<?xml version="1.0" encoding="utf-8"?>
<!-- Generator: Adobe Illustrator 16.0.0, SVG Export Plug-In . SVG Version: 6.00 Build 0)  -->
<!DOCTYPE svg PUBLIC "-//W3C//DTD SVG 1.1//EN" "http://www.w3.org/Graphics/SVG/1.1/DTD/svg11.dtd">
<svg version="1.1" id="Layer_1" xmlns="http://www.w3.org/2000/svg" xmlns:xlink="http://www.w3.org/1999/xlink" x="0px" y="0px"
	 width="75px" height="75px" viewBox="0 0 75 75" enable-background="new 0 0 75 75" xml:space="preserve">
<path fill-rule="evenodd" clip-rule="evenodd" fill="#FFFFFF" stroke="#A62A2A" stroke-width="1.4173" stroke-miterlimit="10" d="
	M37.486,7.176c17.263,0,31.266,14.003,31.266,31.238c0,17.262-14.003,31.266-31.266,31.266c-17.234,0-31.238-14.004-31.238-31.266
	C6.248,21.179,20.252,7.176,37.486,7.176L37.486,7.176z"/>
<g>
	<defs>
		<path id="SVGID_1_" d="M51.716,18.939c-0.028-0.453,0-2.834,0.057-3.826c-24.435,0.34-34.044,11.934-34.044,24.264
			C17.672,51.566,28.245,57.746,37.515,57.83c9.24-0.084,19.757-6.264,19.757-18.51c0-12.643-13.096-16.582-17.008-15.646
			C41.767,22.199,47.974,19.563,51.716,18.939L51.716,18.939z"/>
	</defs>
	<clipPath id="SVGID_2_">
		<use xlink:href="#SVGID_1_"  overflow="visible"/>
	</clipPath>
	<polygon clip-path="url(#SVGID_2_)" fill-rule="evenodd" clip-rule="evenodd" fill="#E03D2D" points="46.812,69.68 6.561,46.406 
		7.694,44.424 47.974,67.695 	"/>
	<polygon clip-path="url(#SVGID_2_)" fill-rule="evenodd" clip-rule="evenodd" fill="#E14032" points="47.379,68.688 7.127,45.416 
		8.262,43.432 48.541,66.703 	"/>
	<polygon clip-path="url(#SVGID_2_)" fill-rule="evenodd" clip-rule="evenodd" fill="#E14436" points="47.974,67.695 7.694,44.424 
		8.828,42.439 49.107,65.684 	"/>
	<polygon clip-path="url(#SVGID_2_)" fill-rule="evenodd" clip-rule="evenodd" fill="#E1493B" points="48.541,66.703 8.262,43.432 
		9.424,41.447 49.675,64.691 	"/>
	<polygon clip-path="url(#SVGID_2_)" fill-rule="evenodd" clip-rule="evenodd" fill="#E24D40" points="49.107,65.684 8.828,42.439 
		9.99,40.455 50.27,63.699 	"/>
	<polygon clip-path="url(#SVGID_2_)" fill-rule="evenodd" clip-rule="evenodd" fill="#E35144" points="49.675,64.691 9.424,41.447 
		10.557,39.463 50.837,62.707 	"/>
	<polygon clip-path="url(#SVGID_2_)" fill-rule="evenodd" clip-rule="evenodd" fill="#E35549" points="50.27,63.699 9.99,40.455 
		11.124,38.471 51.404,61.715 	"/>
	<polygon clip-path="url(#SVGID_2_)" fill-rule="evenodd" clip-rule="evenodd" fill="#E35A4E" points="50.837,62.707 10.557,39.463 
		11.719,37.479 51.971,60.723 	"/>
	<polygon clip-path="url(#SVGID_2_)" fill-rule="evenodd" clip-rule="evenodd" fill="#E45E53" points="51.404,61.715 11.124,38.471 
		12.286,36.486 52.566,59.73 	"/>
	<polygon clip-path="url(#SVGID_2_)" fill-rule="evenodd" clip-rule="evenodd" fill="#E66357" points="51.971,60.723 11.719,37.479 
		12.854,35.494 53.133,58.738 	"/>
	<polygon clip-path="url(#SVGID_2_)" fill-rule="evenodd" clip-rule="evenodd" fill="#E7665C" points="52.566,59.73 12.286,36.486 
		13.42,34.502 53.7,57.746 	"/>
	<polygon clip-path="url(#SVGID_2_)" fill-rule="evenodd" clip-rule="evenodd" fill="#E86B61" points="53.133,58.738 12.854,35.494 
		14.016,33.51 54.267,56.754 	"/>
	<polygon clip-path="url(#SVGID_2_)" fill-rule="evenodd" clip-rule="evenodd" fill="#E86F65" points="53.7,57.746 13.42,34.502 
		14.582,32.518 54.834,55.762 	"/>
	<polygon clip-path="url(#SVGID_2_)" fill-rule="evenodd" clip-rule="evenodd" fill="#E97369" points="54.267,56.754 14.016,33.51 
		15.149,31.525 55.429,54.77 	"/>
	<polygon clip-path="url(#SVGID_2_)" fill-rule="evenodd" clip-rule="evenodd" fill="#E9776E" points="54.834,55.762 14.582,32.518 
		15.717,30.533 55.996,53.777 	"/>
	<polygon clip-path="url(#SVGID_2_)" fill-rule="evenodd" clip-rule="evenodd" fill="#E97C73" points="55.429,54.77 15.149,31.525 
		16.312,29.541 56.563,52.785 	"/>
	<polygon clip-path="url(#SVGID_2_)" fill-rule="evenodd" clip-rule="evenodd" fill="#E98077" points="55.996,53.777 15.717,30.533 
		16.879,28.549 57.13,51.793 	"/>
	<polygon clip-path="url(#SVGID_2_)" fill-rule="evenodd" clip-rule="evenodd" fill="#EA847C" points="56.563,52.785 16.312,29.541 
		17.445,27.557 57.725,50.801 	"/>
	<polygon clip-path="url(#SVGID_2_)" fill-rule="evenodd" clip-rule="evenodd" fill="#EB8980" points="57.13,51.793 16.879,28.549 
		18.012,26.536 58.292,49.809 	"/>
	<polygon clip-path="url(#SVGID_2_)" fill-rule="evenodd" clip-rule="evenodd" fill="#ED8E86" points="57.725,50.801 17.445,27.557 
		18.579,25.545 58.858,48.816 	"/>
	<polygon clip-path="url(#SVGID_2_)" fill-rule="evenodd" clip-rule="evenodd" fill="#ED928B" points="58.292,49.809 18.012,26.536 
		19.174,24.553 59.426,47.824 	"/>
	<polygon clip-path="url(#SVGID_2_)" fill-rule="evenodd" clip-rule="evenodd" fill="#ED968F" points="58.858,48.816 18.579,25.545 
		19.741,23.561 60.021,46.832 	"/>
	<polygon clip-path="url(#SVGID_2_)" fill-rule="evenodd" clip-rule="evenodd" fill="#EE9A94" points="59.426,47.824 19.174,24.553 
		20.309,22.568 60.588,45.84 	"/>
	<polygon clip-path="url(#SVGID_2_)" fill-rule="evenodd" clip-rule="evenodd" fill="#EF9E99" points="60.021,46.832 19.741,23.561 
		20.875,21.576 61.155,44.82 	"/>
	<polygon clip-path="url(#SVGID_2_)" fill-rule="evenodd" clip-rule="evenodd" fill="#EFA39D" points="60.588,45.84 20.309,22.568 
		21.471,20.584 61.722,43.828 	"/>
	<polygon clip-path="url(#SVGID_2_)" fill-rule="evenodd" clip-rule="evenodd" fill="#F0A7A2" points="61.155,44.82 20.875,21.576 
		22.037,19.592 62.317,42.836 	"/>
	<polygon clip-path="url(#SVGID_2_)" fill-rule="evenodd" clip-rule="evenodd" fill="#F1ABA6" points="61.722,43.828 21.471,20.584 
		22.604,18.6 62.884,41.844 	"/>
	<polygon clip-path="url(#SVGID_2_)" fill-rule="evenodd" clip-rule="evenodd" fill="#F1B0AA" points="62.317,42.836 22.037,19.592 
		23.171,17.607 63.451,40.852 	"/>
	<polygon clip-path="url(#SVGID_2_)" fill-rule="evenodd" clip-rule="evenodd" fill="#F2B4AF" points="62.884,41.844 22.604,18.6 
		23.767,16.615 64.018,39.859 	"/>
	<polygon clip-path="url(#SVGID_2_)" fill-rule="evenodd" clip-rule="evenodd" fill="#F2B8B3" points="63.451,40.852 23.171,17.607 
		24.334,15.623 64.585,38.867 	"/>
	<polygon clip-path="url(#SVGID_2_)" fill-rule="evenodd" clip-rule="evenodd" fill="#F2BCB8" points="64.018,39.859 23.767,16.615 
		24.9,14.631 65.18,37.875 	"/>
	<polygon clip-path="url(#SVGID_2_)" fill-rule="evenodd" clip-rule="evenodd" fill="#F4C1BD" points="64.585,38.867 24.334,15.623 
		25.467,13.639 65.747,36.883 	"/>
	<polygon clip-path="url(#SVGID_2_)" fill-rule="evenodd" clip-rule="evenodd" fill="#F5C5C1" points="65.18,37.875 24.9,14.631 
		26.063,12.646 66.313,35.891 	"/>
	<polygon clip-path="url(#SVGID_2_)" fill-rule="evenodd" clip-rule="evenodd" fill="#F4CAC6" points="65.747,36.883 25.467,13.639 
		26.629,11.654 66.881,34.898 	"/>
	<polygon clip-path="url(#SVGID_2_)" fill-rule="evenodd" clip-rule="evenodd" fill="#F6CECC" points="66.313,35.891 26.063,12.646 
		27.196,10.662 67.476,33.906 	"/>
	<polygon clip-path="url(#SVGID_2_)" fill-rule="evenodd" clip-rule="evenodd" fill="#F6D2CF" points="66.881,34.898 26.629,11.654 
		27.764,9.67 68.043,32.914 	"/>
	<polygon clip-path="url(#SVGID_2_)" fill-rule="evenodd" clip-rule="evenodd" fill="#F6D7D4" points="67.476,33.906 27.196,10.662 
		28.33,8.678 68.609,31.922 	"/>
	<polygon clip-path="url(#SVGID_2_)" fill-rule="evenodd" clip-rule="evenodd" fill="#F7DBD8" points="68.043,32.914 27.764,9.67 
		28.926,7.686 69.177,30.93 	"/>
	<polygon clip-path="url(#SVGID_2_)" fill-rule="evenodd" clip-rule="evenodd" fill="#F8DFDC" points="68.609,31.922 28.33,8.678 
		29.492,6.693 69.772,29.938 	"/>
	<polygon clip-path="url(#SVGID_2_)" fill-rule="evenodd" clip-rule="evenodd" fill="#F8E4E1" points="69.177,30.93 28.926,7.686 
		30.059,5.674 70.339,28.945 	"/>
	<polygon clip-path="url(#SVGID_2_)" fill-rule="evenodd" clip-rule="evenodd" fill="#F9E7E5" points="69.772,29.938 29.492,6.693 
		30.626,4.682 70.906,27.953 	"/>
	<polygon clip-path="url(#SVGID_2_)" fill-rule="evenodd" clip-rule="evenodd" fill="#FAECEB" points="70.339,28.945 30.059,5.674 
		31.221,3.689 71.473,26.961 	"/>
	<polygon clip-path="url(#SVGID_2_)" fill-rule="evenodd" clip-rule="evenodd" fill="#FBF1F0" points="70.906,27.953 30.626,4.682 
		31.788,2.697 72.068,25.969 	"/>
	<polygon clip-path="url(#SVGID_2_)" fill-rule="evenodd" clip-rule="evenodd" fill="#FDF5F4" points="71.473,26.961 31.221,3.689 
		32.355,1.705 72.635,24.977 	"/>
</g>
<path fill="none" stroke="#A62A2A" stroke-width="1.4173" stroke-miterlimit="10" d="M51.716,18.939
	c-0.028-0.453,0-2.834,0.057-3.826c-24.435,0.34-34.044,11.934-34.044,24.264C17.672,51.566,28.245,57.746,37.515,57.83
	c9.24-0.084,19.757-6.264,19.757-18.51c0-12.643-13.096-16.582-17.008-15.646C41.767,22.199,47.974,19.563,51.716,18.939
	L51.716,18.939z"/>
<path fill-rule="evenodd" clip-rule="evenodd" fill="#FFFFFF" stroke="#FFFFFF" stroke-width="0.5669" stroke-miterlimit="10" d="
	M22.547,46.662c0,0,0.454-11.594,0.454-12.047c1.474,0,3.544,0.736,5.868,6.15c2.268-5.414,6.009-6.15,6.009-6.15l0.567,12.047
	h-2.324c0,0,0.85-3.855,0.85-10.119c-0.085,0-1.928-0.454-5.131,6.775c-2.721-7.286-4.733-6.775-4.818-6.805
	c0,6.436,0.766,10.148,0.766,10.148H22.547z"/>
<path fill-rule="evenodd" clip-rule="evenodd" fill="#FFFFFF" stroke="#FFFFFF" stroke-width="0.5669" stroke-miterlimit="10" d="
	M39.158,46.662c0,0,3.118-10.148,6.661-12.104c3.657,1.955,6.633,12.104,6.633,12.104h-2.068c0,0-0.511-7.908-4.564-10.8
	c-3.854,2.892-4.337,10.8-4.337,10.8H39.158z"/>
<path fill-rule="evenodd" clip-rule="evenodd" fill="#FFFFFF" stroke="#FFFFFF" stroke-width="0.5669" stroke-miterlimit="10" d="
	M29.351,46.635c1.56-6.945,6.917-13.664,17.461-19.163c-0.566,0.567-1.162,2.211-1.417,2.806
	c-4.791,2.041-12.897,7.059-13.776,16.357C31.42,46.635,29.436,46.635,29.351,46.635L29.351,46.635z"/>
<path fill-rule="evenodd" clip-rule="evenodd" fill="#FFFFFF" stroke="#FFFFFF" stroke-width="0.5669" stroke-miterlimit="10" d="
	M45.281,46.662c-1.56-7.059-6.917-13.89-17.461-19.474c0.566,0.567,1.162,2.239,1.389,2.835c4.818,2.068,12.926,7.172,13.805,16.639
	C43.212,46.662,45.196,46.662,45.281,46.662L45.281,46.662z"/>
<path fill="#161717" d="M18.834,23.248l0.51-0.028c0.029,0,0.086,0,0.143-0.028s0.113-0.057,0.17-0.085
	c0.085-0.028,0.142-0.057,0.198-0.057c0.085-0.028,0.113-0.028,0.142,0l0.086,0.085c0,0.028,0,0.028-0.029,0.057
	c0,0.057-0.027,0.085-0.057,0.113c-0.028,0.057-0.085,0.113-0.142,0.199c-0.085,0.084-0.142,0.141-0.227,0.197
	s-0.17,0.143-0.228,0.17c-0.084,0.057-0.141,0.086-0.197,0.114l-4.564-0.822c-0.027,0.028-0.057,0.057-0.057,0.113
	s0.029,0.142,0.086,0.228c0.027,0.113,0.084,0.197,0.141,0.311s0.113,0.228,0.17,0.341c0.086,0.113,0.143,0.227,0.199,0.312
	c0.057,0.086,0.113,0.17,0.142,0.227l1.7,3.033c-0.141,0.17-0.227,0.283-0.283,0.34c-0.085,0.057-0.142,0.057-0.198,0
	c-0.851-0.538-1.813-1.049-2.919-1.502c-0.908-0.396-1.475-0.539-1.729-0.425l-0.058-0.028c-0.027,0-0.027-0.028-0.027-0.113
	c0-0.057,0.027-0.143,0.027-0.227c0.029-0.086,0.058-0.199,0.086-0.283c0.028-0.086,0.057-0.143,0.057-0.171h0.057v-0.028
	c0.028-0.057,0.113-0.028,0.283,0.028c0.199,0.057,0.396,0.142,0.652,0.255c0.255,0.113,0.538,0.256,0.85,0.396
	c0.313,0.171,0.624,0.313,0.936,0.482c0.313,0.143,0.624,0.283,0.907,0.426c0.284,0.141,0.511,0.255,0.709,0.312
	c-0.057-0.085-0.113-0.198-0.228-0.397c-0.084-0.17-0.197-0.396-0.34-0.623c-0.113-0.227-0.255-0.482-0.425-0.737
	c-0.142-0.255-0.284-0.511-0.397-0.737c-0.141-0.254-0.254-0.453-0.367-0.651c-0.114-0.171-0.171-0.312-0.228-0.397
	c-0.142-0.283-0.283-0.51-0.34-0.68c-0.085-0.17-0.114-0.283-0.114-0.34v-0.029c0-0.057,0.086-0.057,0.256-0.057
	s0.368,0.029,0.623,0.057c0.283,0.029,0.567,0.086,0.879,0.143c0.34,0.057,0.652,0.113,0.964,0.17
	c0.397,0.057,0.737,0.113,1.049,0.17c0.312,0.028,0.567,0.057,0.766,0.085c-0.113-0.113-0.255-0.283-0.481-0.481
	c-0.199-0.227-0.454-0.454-0.709-0.709c-0.256-0.256-0.51-0.539-0.766-0.822c-0.283-0.283-0.51-0.566-0.736-0.822
	c-0.199-0.283-0.369-0.538-0.511-0.766c-0.113-0.227-0.171-0.424-0.142-0.566l0.028-0.085c0.028-0.028,0.057-0.057,0.142-0.113
	c0.057-0.028,0.142-0.028,0.227-0.057s0.17-0.028,0.256-0.028c0.084,0,0.141,0.028,0.17,0.057l0.027,0.057l-0.057,0.085
	c-0.057,0.057-0.084,0.17-0.057,0.312c0.057,0.143,0.113,0.313,0.199,0.482c0.084,0.198,0.198,0.368,0.34,0.596
	c0.142,0.197,0.283,0.396,0.453,0.623c0.17,0.198,0.34,0.396,0.482,0.596c0.17,0.197,0.34,0.368,0.481,0.538
	c0.171,0.198,0.341,0.397,0.511,0.595C18.494,22.852,18.664,23.05,18.834,23.248L18.834,23.248z M11.946,30.307
	c0.283-0.029,0.511-0.113,0.708-0.256c0.17-0.17,0.313-0.368,0.397-0.595c0.057-0.142,0.085-0.312,0.085-0.481
	c0.028-0.17,0.028-0.313-0.028-0.482c-0.028-0.142-0.085-0.283-0.198-0.396c-0.086-0.113-0.227-0.199-0.396-0.256
	c-0.143-0.057-0.284-0.057-0.426-0.057c-0.142,0.029-0.283,0.086-0.426,0.17c-0.141,0.057-0.254,0.17-0.368,0.313
	c-0.085,0.113-0.17,0.255-0.227,0.426c-0.028,0.057-0.028,0.113-0.057,0.17c0,0.084-0.028,0.141-0.028,0.227
	c-0.028,0.113-0.028,0.255,0,0.368s0.057,0.227,0.113,0.341c0.057,0.113,0.142,0.197,0.227,0.254
	c0.086,0.086,0.199,0.143,0.313,0.199C11.719,30.277,11.832,30.307,11.946,30.307L11.946,30.307z M13.335,29.74
	c-0.113,0.34-0.283,0.623-0.511,0.878c-0.311,0.341-0.651,0.454-1.02,0.341c-0.086-0.029-0.199-0.086-0.313-0.171
	s-0.198-0.198-0.312-0.312c-0.085-0.142-0.17-0.283-0.255-0.453c-0.085-0.143-0.143-0.313-0.17-0.482
	c-0.029-0.17-0.057-0.34-0.057-0.51s0.027-0.313,0.084-0.454l0.114-0.396c0.057-0.198,0.142-0.368,0.227-0.511
	c0.085-0.17,0.198-0.283,0.284-0.368c0.254-0.255,0.566-0.312,0.906-0.198c0.369,0.113,0.652,0.368,0.879,0.709
	C13.563,28.322,13.59,28.975,13.335,29.74L13.335,29.74z M11.124,31.497c0.341,0.17,0.651,0.567,0.907,1.162
	c0.283,0.624,0.368,1.19,0.283,1.729c-0.028,0.113-0.057,0.198-0.085,0.283s-0.085,0.17-0.142,0.227
	c-0.057,0.085-0.113,0.143-0.198,0.17c-0.058,0.029-0.142,0.029-0.198,0.029s-0.086-0.029-0.113-0.057
	c-0.029-0.029-0.029-0.058-0.029-0.086l0.029-0.057c0.057-0.028,0.084-0.085,0.113-0.142c0.027-0.057,0.084-0.142,0.113-0.228
	c0.027-0.084,0.057-0.17,0.085-0.254c0.028-0.086,0.057-0.199,0.085-0.283c0.057-0.454,0.028-0.852-0.113-1.163
	c-0.17-0.425-0.511-0.681-0.992-0.765h-0.143c-0.113,0-0.227,0.027-0.34,0.084c-0.084,0.057-0.198,0.143-0.283,0.256
	s-0.17,0.255-0.227,0.425C9.82,33,9.764,33.17,9.735,33.367c-0.028,0.228-0.058,0.426-0.028,0.625c0,0.197,0.057,0.367,0.113,0.537
	c0.028,0.143,0.085,0.256,0.085,0.369c0.028,0.085,0.028,0.143,0.028,0.17c-0.028,0.029-0.028,0.057-0.057,0.057l-0.028,0.029
	c-0.057-0.029-0.142-0.086-0.171-0.171c-0.057-0.113-0.084-0.227-0.141-0.368c-0.029-0.143-0.029-0.313-0.057-0.51
	c0-0.171,0-0.369,0-0.539c-0.029-0.199,0-0.369,0-0.539c0.027-0.17,0.027-0.312,0.057-0.425c0.027-0.228,0.084-0.397,0.141-0.567
	c0.058-0.141,0.143-0.283,0.228-0.396c0.198-0.255,0.481-0.34,0.821-0.283c0.029,0,0.057,0,0.086,0.028c0,0,0.028,0,0.057,0
	c0.028,0.028,0.057,0.028,0.113,0.057C11.011,31.44,11.067,31.469,11.124,31.497L11.124,31.497z M14.412,36.74l-4.309-0.367
	c0.057,0.227,0.142,0.453,0.283,0.68c0.113,0.227,0.256,0.453,0.454,0.652c0.198,0.227,0.396,0.453,0.624,0.68
	c0.197,0.199,0.425,0.426,0.623,0.652c0,0,0,0.029-0.028,0.057c-0.028,0.029-0.085,0.029-0.113,0.057
	c-0.057,0.029-0.114,0.029-0.171,0.029c-0.057,0.027-0.113,0.027-0.141,0.027c-0.113,0-0.227-0.057-0.313-0.141
	c-0.113-0.115-0.227-0.229-0.312-0.369c-0.113-0.17-0.198-0.313-0.284-0.482c-0.084-0.17-0.17-0.34-0.254-0.48
	c-0.029,0.027-0.086,0.057-0.17,0.141c-0.086,0.086-0.171,0.17-0.256,0.256c-0.085,0.113-0.17,0.197-0.255,0.283
	c-0.085,0.084-0.142,0.141-0.198,0.197s-0.113,0.113-0.17,0.199c-0.086,0.057-0.143,0.141-0.17,0.227
	c-0.058,0.086-0.086,0.143-0.114,0.227c-0.057,0.086-0.057,0.143-0.057,0.227v0.113H9.026c-0.028,0-0.085,0-0.142-0.057
	c-0.057-0.027-0.113-0.057-0.17-0.113s-0.113-0.113-0.143-0.17c-0.027-0.057-0.057-0.113-0.027-0.141v-0.086
	c0.027-0.029,0.057-0.113,0.142-0.199c0.085-0.113,0.17-0.254,0.312-0.396c0.113-0.113,0.227-0.283,0.369-0.424
	c0.113-0.143,0.254-0.283,0.368-0.426c0.113-0.113,0.198-0.227,0.283-0.313c0.085-0.084,0.113-0.143,0.113-0.143L9.82,36.373
	c-0.057,0-0.143,0-0.256,0C9.48,36.4,9.367,36.4,9.281,36.4c-0.085,0-0.142,0-0.227,0c-0.057-0.027-0.085-0.057-0.085-0.113
	c0.028-0.084,0.028-0.17,0.085-0.227c0.028-0.085,0.085-0.113,0.17-0.142l2.637,0.142c0.396,0,0.709,0.028,1.02,0.028
	c0.284,0,0.539,0,0.766,0c0.256,0,0.454,0,0.652-0.028c0.17,0,0.369,0,0.539-0.028l0.084,0.028h0.029c0-0.028,0,0,0,0v0.028
	c0.027,0.028,0.027,0.028,0.027,0.028c0,0.029,0,0.029,0,0.029c0,0.027-0.027,0.113-0.057,0.17
	c-0.027,0.084-0.057,0.141-0.113,0.197c-0.027,0.057-0.084,0.113-0.141,0.17c-0.057,0.029-0.114,0.057-0.171,0.057H14.412z
	 M11.124,43.318c0.255-0.143,0.425-0.313,0.511-0.539c0.113-0.227,0.141-0.453,0.113-0.682c-0.029-0.17-0.057-0.34-0.113-0.48
	c-0.057-0.17-0.143-0.313-0.256-0.426c-0.085-0.113-0.198-0.199-0.34-0.283c-0.142-0.057-0.283-0.086-0.482-0.057
	c-0.141,0.027-0.283,0.084-0.396,0.17c-0.142,0.084-0.227,0.17-0.312,0.313c-0.085,0.113-0.171,0.283-0.198,0.424
	c-0.029,0.17-0.057,0.34-0.029,0.512c0,0.057,0.029,0.084,0.029,0.17c0.027,0.084,0.057,0.141,0.085,0.197
	c0.028,0.143,0.085,0.256,0.17,0.34c0.057,0.113,0.142,0.199,0.255,0.256c0.085,0.057,0.199,0.113,0.313,0.143
	c0.113,0.027,0.227,0.057,0.34,0.027C10.926,43.402,11.039,43.375,11.124,43.318L11.124,43.318z M12.145,42.213
	c0.028,0.34,0,0.68-0.085,0.99c-0.142,0.455-0.397,0.709-0.766,0.766c-0.113,0.029-0.227,0.029-0.368,0
	c-0.113-0.027-0.256-0.084-0.396-0.17c-0.143-0.057-0.284-0.17-0.426-0.283s-0.283-0.227-0.396-0.369
	c-0.086-0.113-0.199-0.283-0.256-0.424c-0.084-0.143-0.113-0.283-0.113-0.453l-0.084-0.398c-0.029-0.197-0.029-0.396-0.029-0.566
	c0.029-0.17,0.057-0.313,0.113-0.453c0.113-0.34,0.34-0.51,0.737-0.566c0.368-0.057,0.737,0.027,1.077,0.227
	C11.719,40.852,12.031,41.418,12.145,42.213L12.145,42.213z M12.627,46.01c0.113,0.17,0.227,0.313,0.311,0.512
	c0.114,0.17,0.171,0.34,0.228,0.48c0.085,0.283,0.113,0.51,0.057,0.738c-0.057,0.227-0.198,0.396-0.454,0.48l-0.057,0.029
	c-0.254,0.084-0.51,0.084-0.765,0.027s-0.511-0.17-0.766-0.311c-0.227-0.143-0.425-0.34-0.624-0.539
	c-0.17-0.227-0.312-0.426-0.396-0.68c-0.057-0.199-0.085-0.426-0.085-0.625c0.028-0.227,0.085-0.453,0.17-0.68
	c-0.085-0.057-0.17-0.113-0.198-0.17c-0.057-0.029-0.085-0.057-0.113-0.057c-0.057-0.057-0.085-0.086-0.113-0.113
	c-0.028-0.029-0.057-0.057-0.057-0.057l0.936-0.34c0.566-0.199,1.049-0.313,1.502-0.398c0.453-0.057,0.822-0.084,1.105-0.057
	c0.794,0.086,1.389,0.482,1.785,1.221l0.029,0.084c0.057,0.17,0.028,0.313-0.086,0.453c-0.113,0.143-0.283,0.256-0.51,0.34
	c-0.142,0.057-0.312,0.086-0.453,0.086c-0.17,0-0.34,0-0.51-0.029c-0.171-0.027-0.341-0.084-0.482-0.141
	C12.91,46.18,12.768,46.123,12.627,46.01L12.627,46.01z M12.428,45.699c0.34,0.197,0.652,0.311,0.936,0.396
	c0.256,0.027,0.482,0.027,0.652-0.029c0.113-0.027,0.198-0.084,0.255-0.141c0.085-0.057,0.142-0.143,0.17-0.227
	c0.057-0.086,0.085-0.17,0.085-0.256c0.028-0.086,0-0.17-0.028-0.256c-0.028-0.113-0.085-0.197-0.142-0.254
	c-0.057-0.086-0.142-0.143-0.227-0.199s-0.199-0.084-0.283-0.113c-0.113-0.027-0.227-0.027-0.341-0.027
	c-0.113,0-0.227,0.027-0.396,0.027c-0.142,0.029-0.284,0.057-0.454,0.057c-0.141,0.029-0.283,0.086-0.425,0.113
	c-0.142,0.029-0.255,0.057-0.34,0.086l-0.284,0.113c0.113,0.084,0.256,0.197,0.397,0.311C12.145,45.416,12.286,45.557,12.428,45.699
	L12.428,45.699z M11.181,45.16l-0.538,0.17c-0.086,0.027-0.143,0.086-0.17,0.17c-0.057,0.086-0.086,0.199-0.086,0.34
	c-0.027,0.143-0.027,0.283,0,0.453c0.029,0.143,0.057,0.313,0.113,0.482c0.086,0.227,0.17,0.426,0.283,0.596
	c0.114,0.17,0.228,0.313,0.369,0.369c0.34,0.17,0.652,0.227,0.907,0.141c0.113-0.027,0.227-0.113,0.312-0.197
	c0.086-0.086,0.143-0.199,0.17-0.313c0.057-0.143,0.086-0.256,0.086-0.426c0-0.141-0.029-0.283-0.086-0.424l-0.057-0.199
	c-0.027-0.113-0.113-0.227-0.198-0.369c-0.113-0.113-0.198-0.197-0.283-0.311C11.748,45.387,11.465,45.244,11.181,45.16
	L11.181,45.16z M12.371,48.986c0.369-0.057,0.851,0.057,1.418,0.369c0.595,0.34,1.02,0.736,1.275,1.246
	c0.027,0.086,0.057,0.172,0.085,0.256c0.028,0.113,0.028,0.199,0.028,0.283c0,0.086-0.028,0.17-0.057,0.227
	c-0.029,0.086-0.086,0.113-0.17,0.17c-0.029,0-0.057,0-0.086,0c-0.057,0-0.084,0-0.084-0.057v-0.057c0-0.027,0-0.084,0-0.17
	c0-0.084-0.029-0.141-0.057-0.227c-0.029-0.084-0.057-0.197-0.086-0.283c-0.027-0.086-0.057-0.17-0.113-0.283
	c-0.198-0.396-0.453-0.68-0.766-0.852c-0.396-0.227-0.822-0.227-1.246,0l-0.114,0.059c-0.113,0.084-0.17,0.17-0.227,0.283
	s-0.085,0.227-0.085,0.367c0,0.17,0.028,0.313,0.085,0.482c0.028,0.17,0.113,0.34,0.198,0.539c0.113,0.17,0.227,0.34,0.34,0.482
	c0.143,0.17,0.284,0.283,0.426,0.367c0.113,0.086,0.227,0.17,0.283,0.256c0.085,0.057,0.113,0.113,0.143,0.141c0,0,0,0.029,0,0.057
	c-0.029,0-0.029,0.029-0.029,0.029c-0.057,0.027-0.142,0.027-0.255-0.029c-0.085-0.057-0.198-0.113-0.312-0.227
	c-0.113-0.084-0.227-0.197-0.34-0.34c-0.113-0.141-0.228-0.283-0.341-0.453c-0.113-0.143-0.227-0.283-0.312-0.426
	c-0.085-0.141-0.17-0.254-0.227-0.367c-0.086-0.199-0.17-0.369-0.199-0.539c-0.057-0.17-0.084-0.313-0.084-0.453
	c0.027-0.313,0.197-0.568,0.481-0.709c0.028-0.029,0.057-0.029,0.085-0.029c0.028-0.027,0.028-0.027,0.085-0.027
	c0.028-0.029,0.057-0.029,0.085-0.029C12.258,49.016,12.286,49.016,12.371,48.986L12.371,48.986z M18.268,51.197l-3.656,2.297
	c0.17,0.141,0.396,0.254,0.623,0.367c0.227,0.115,0.482,0.199,0.766,0.256c0.312,0.057,0.595,0.113,0.906,0.17
	c0.283,0.029,0.596,0.086,0.907,0.113c0,0.029,0,0.057,0,0.086c-0.028,0.027-0.028,0.084-0.057,0.113
	c-0.028,0.057-0.085,0.084-0.113,0.141c-0.028,0.029-0.085,0.057-0.113,0.086c-0.085,0.057-0.198,0.084-0.341,0.084
	c-0.141-0.027-0.311-0.057-0.453-0.113c-0.17-0.057-0.34-0.141-0.538-0.227c-0.171-0.057-0.312-0.141-0.481-0.227
	c0,0.029-0.029,0.113-0.029,0.227c-0.028,0.113-0.028,0.227-0.057,0.369c0,0.113-0.028,0.256-0.028,0.369
	c-0.028,0.113-0.028,0.197-0.057,0.254c0,0.086-0.028,0.199-0.028,0.283c0,0.086,0,0.199,0,0.285
	c0.028,0.084,0.028,0.17,0.057,0.254c0.028,0.086,0.057,0.143,0.085,0.227l0.085,0.086l-0.027,0.027
	c-0.058,0.029-0.086,0.029-0.171,0.057c-0.057,0-0.142,0-0.198,0c-0.085-0.027-0.142-0.027-0.198-0.057
	c-0.085-0.027-0.114-0.057-0.142-0.113l-0.029-0.057c0-0.027-0.027-0.113-0.027-0.254c0-0.143,0-0.283,0.027-0.482
	c0-0.17,0-0.369,0.029-0.566c0.027-0.199,0.027-0.398,0.027-0.568c0.029-0.17,0.029-0.311,0.057-0.424c0-0.113,0-0.17,0.029-0.17
	l-0.737-0.455c-0.057,0.057-0.113,0.113-0.198,0.199c-0.057,0.057-0.142,0.113-0.199,0.17c-0.084,0.057-0.141,0.086-0.197,0.113
	c-0.057,0.029-0.086,0.029-0.143-0.027c-0.027-0.086-0.057-0.143-0.084-0.229c0-0.057,0.027-0.141,0.084-0.197l2.184-1.475
	c0.311-0.227,0.595-0.424,0.821-0.596c0.228-0.17,0.454-0.311,0.624-0.48c0.198-0.143,0.34-0.256,0.51-0.396
	c0.143-0.115,0.283-0.229,0.426-0.342l0.057-0.027l0.027-0.029l0,0l0.029,0.029h0.028c0,0.027,0,0.027,0,0.027
	c0.028,0.029,0.057,0.086,0.085,0.17c0.028,0.086,0.028,0.143,0.028,0.229c0,0.084,0,0.141-0.028,0.227
	c-0.028,0.057-0.057,0.113-0.113,0.141L18.268,51.197z M17.304,56.215c0,0,0.057-0.057,0.142-0.113
	c0.085-0.084,0.198-0.17,0.34-0.283c0.028-0.029,0.057-0.057,0.086-0.086c0.057-0.027,0.084-0.084,0.141-0.113
	c0.057-0.027,0.113-0.057,0.143-0.084c0.057-0.029,0.084,0,0.113,0.027c0.027,0,0.057,0.057,0.085,0.113s0.057,0.113,0.057,0.17
	c0.028,0.057,0.028,0.113,0.028,0.172c0,0.057,0,0.084,0,0.113c-0.085,0.057-0.199,0.084-0.313,0.17
	c-0.113,0.057-0.227,0.141-0.34,0.227c-0.113,0.057-0.227,0.141-0.34,0.227c-0.085,0.057-0.17,0.141-0.227,0.197
	c-0.143,0.143-0.199,0.256-0.227,0.369c-0.029,0.113,0.027,0.199,0.113,0.313c0.227,0.197,0.623,0.283,1.189,0.197
	c0.511-0.057,0.965-0.17,1.305-0.396c0.057-0.027,0.142-0.027,0.227,0.029c0.085,0.027,0.17,0.084,0.256,0.17l-0.199,0.197
	c-0.057,0.029-0.085,0.086-0.17,0.17c-0.085,0.086-0.17,0.199-0.255,0.313s-0.171,0.227-0.255,0.369
	c-0.113,0.113-0.17,0.227-0.256,0.34c-0.057,0.113-0.113,0.227-0.142,0.313c-0.028,0.084,0,0.17,0.028,0.197
	c0.057,0.086,0.086,0.143,0.086,0.17c0,0.029-0.058,0.057-0.114,0.057c-0.085,0-0.17-0.027-0.283-0.057
	c-0.113-0.057-0.228-0.084-0.368-0.17c0-0.084,0.027-0.17,0.084-0.283s0.114-0.227,0.199-0.34c0.057-0.113,0.142-0.227,0.227-0.34
	s0.142-0.199,0.198-0.313c0.085-0.084,0.114-0.17,0.171-0.227c0.027-0.057,0.027-0.113,0.027-0.113
	c-0.396,0.113-0.822,0.17-1.275,0.141c-0.566-0.027-0.963-0.141-1.162-0.34c-0.17-0.141-0.227-0.311-0.198-0.48
	c0.057-0.172,0.142-0.342,0.312-0.512c0.029-0.057,0.086-0.084,0.143-0.141s0.113-0.086,0.17-0.143s0.113-0.113,0.141-0.141
	C17.246,56.244,17.275,56.215,17.304,56.215L17.304,56.215z M20.309,59.105c0.027-0.027,0.057-0.057,0.141-0.141
	c0.058-0.086,0.171-0.199,0.313-0.34c0,0,0.028-0.029,0.057-0.086c0.057-0.027,0.085-0.084,0.113-0.113
	c0.057-0.057,0.113-0.084,0.143-0.113c0.057-0.027,0.084-0.027,0.113,0c0.027,0.029,0.084,0.057,0.113,0.113
	c0.027,0.029,0.057,0.086,0.057,0.143c0.027,0.057,0.057,0.113,0.057,0.17c0.027,0.057,0.027,0.084,0,0.113
	c-0.057,0.057-0.17,0.141-0.256,0.227c-0.113,0.084-0.227,0.17-0.34,0.256c-0.085,0.084-0.198,0.197-0.283,0.283
	c-0.086,0.084-0.143,0.17-0.199,0.227c-0.113,0.141-0.17,0.283-0.17,0.396s0.057,0.199,0.17,0.283
	c0.256,0.17,0.652,0.199,1.191,0.057c0.51-0.141,0.936-0.311,1.247-0.566c0.057-0.057,0.113-0.057,0.227-0.029
	c0.085,0,0.17,0.057,0.284,0.143l-0.199,0.227c-0.028,0.029-0.057,0.086-0.113,0.199c-0.085,0.084-0.142,0.197-0.227,0.311
	c-0.057,0.143-0.143,0.256-0.199,0.396c-0.084,0.143-0.141,0.285-0.197,0.398s-0.086,0.227-0.086,0.311
	c-0.027,0.113,0,0.17,0.029,0.199c0.084,0.084,0.113,0.141,0.113,0.17c0,0.027-0.029,0.057-0.113,0.057
	c-0.057,0-0.143,0-0.256-0.029c-0.142,0-0.255-0.057-0.396-0.084c-0.028-0.086,0-0.199,0.028-0.313
	c0.057-0.113,0.085-0.227,0.142-0.34c0.057-0.141,0.113-0.254,0.17-0.369c0.085-0.141,0.142-0.254,0.17-0.34
	c0.057-0.113,0.113-0.197,0.143-0.254c0-0.086,0.027-0.113,0-0.143c-0.369,0.17-0.766,0.283-1.248,0.34
	c-0.538,0.057-0.963,0-1.19-0.17c-0.17-0.141-0.255-0.283-0.255-0.453c0.028-0.199,0.085-0.369,0.227-0.566
	c0.028-0.029,0.085-0.086,0.113-0.143c0.057-0.057,0.113-0.113,0.17-0.17c0.029-0.057,0.086-0.113,0.113-0.17
	C20.279,59.162,20.309,59.105,20.309,59.105L20.309,59.105z M23.568,58.936c-0.113-0.057-0.227-0.113-0.369-0.197
	c-0.142-0.057-0.283-0.143-0.425-0.227c-0.142-0.086-0.284-0.17-0.397-0.256c-0.141-0.084-0.255-0.17-0.368-0.227L21.924,58
	c-0.085-0.027-0.142-0.084-0.17-0.17c-0.057-0.113-0.085-0.197-0.085-0.283c0-0.113,0-0.197,0-0.311
	c0.028-0.086,0.057-0.172,0.085-0.229l0.057-0.027c0.028,0,0.028,0,0.057,0s0.028,0.027,0.057,0.027
	c0.085,0.115,0.17,0.229,0.283,0.369c0.113,0.143,0.227,0.283,0.34,0.396c0.143,0.143,0.284,0.283,0.426,0.426
	c0.142,0.113,0.313,0.256,0.482,0.34l0.623,0.396c0.028,0.057,0.057,0.057,0.028,0.086c-0.028,0-0.085,0.027-0.142,0.027
	c-0.085,0-0.142-0.027-0.227-0.027C23.682,58.992,23.625,58.965,23.568,58.936L23.568,58.936z"/>
<path fill="#161717" d="M24.361,64.492l4.139-2.184l-0.992-2.494c-0.085-0.17-0.17-0.311-0.312-0.453
	c-0.113-0.141-0.255-0.283-0.368-0.396l0.113-0.086l0.425,0.113c0.284,0.086,0.511,0.229,0.709,0.455
	c0.198,0.254,0.34,0.51,0.453,0.85c0.085,0.283,0.171,0.566,0.255,0.879c0.086,0.283,0.17,0.566,0.227,0.879
	c0.143-0.086,0.284-0.143,0.426-0.227c0.142-0.086,0.283-0.143,0.426-0.227c0.197-0.113,0.425-0.199,0.623-0.313
	s0.396-0.199,0.596-0.283c0.453-0.199,0.793-0.34,1.02-0.426l0.086,0.029c0.057,0.027,0.113,0.057,0.17,0.113
	c0.028,0.084,0.085,0.141,0.113,0.227c0.028,0.084,0.057,0.17,0.085,0.227c0,0.084,0,0.141,0,0.17
	c-0.028,0.057-0.028,0.057-0.085,0.029c-0.028,0-0.057-0.029-0.113-0.059c-0.086-0.027-0.199-0.027-0.34,0
	c-0.17,0-0.341,0.059-0.511,0.086c-0.198,0.057-0.397,0.113-0.624,0.199c-0.198,0.057-0.396,0.141-0.623,0.227
	c-0.199,0.084-0.396,0.17-0.596,0.254c-0.198,0.086-0.368,0.143-0.51,0.227c0.085,0.313,0.17,0.652,0.283,0.992
	c0.113,0.369,0.227,0.709,0.369,1.078c0.396,0.963,0.708,1.502,0.963,1.588c0.057,0.027,0.086,0.027,0.057,0.057
	c-0.027,0.027-0.113,0.057-0.198,0.084c-0.085,0-0.198,0.029-0.312,0.029s-0.227-0.029-0.313-0.057l-0.113-0.057
	c-0.057-0.057-0.113-0.113-0.197-0.256c-0.058-0.113-0.114-0.283-0.199-0.453c-0.085-0.199-0.142-0.396-0.227-0.652
	c-0.085-0.227-0.17-0.453-0.256-0.709c-0.084-0.254-0.141-0.48-0.227-0.736c-0.084-0.256-0.141-0.482-0.227-0.68
	c-0.425,0.227-0.822,0.48-1.219,0.707c-0.368,0.256-0.736,0.482-1.105,0.738c-0.057,0.057-0.142,0.113-0.227,0.197
	c-0.113,0.057-0.227,0.143-0.34,0.256c-0.143,0.086-0.256,0.199-0.397,0.283c-0.142,0.113-0.255,0.199-0.368,0.283
	c-0.113,0.086-0.199,0.143-0.283,0.199c-0.086,0.027-0.143,0.057-0.17,0.057c0-0.029-0.029-0.057-0.057-0.113
	c-0.029-0.057-0.029-0.143-0.057-0.227c0-0.057-0.029-0.143-0.029-0.227c0-0.086,0-0.143,0.029-0.17L24.361,64.492z M31.93,64.775
	c0.029-0.027,0.029-0.084,0.057-0.197c0.029-0.115,0.057-0.256,0.113-0.426c0-0.029,0.029-0.057,0.029-0.113s0.027-0.113,0.057-0.17
	c0-0.057,0.027-0.113,0.057-0.17c0.027-0.029,0.057-0.057,0.113-0.057c0.028,0.027,0.085,0.027,0.113,0.057
	c0.057,0.027,0.113,0.057,0.17,0.113c0.028,0.027,0.085,0.084,0.113,0.113c0.028,0.057,0.057,0.084,0.057,0.113
	c-0.057,0.084-0.085,0.197-0.142,0.311s-0.113,0.256-0.17,0.369c-0.028,0.143-0.085,0.256-0.113,0.396
	c-0.028,0.113-0.057,0.227-0.085,0.283c0,0.199,0,0.342,0.057,0.426c0.028,0.113,0.142,0.17,0.283,0.199
	c0.283,0.027,0.652-0.143,1.077-0.512c0.368-0.367,0.651-0.736,0.822-1.105c0.028-0.057,0.085-0.113,0.17-0.113
	c0.085-0.027,0.198-0.027,0.312-0.027l-0.028,0.313c-0.028,0.027-0.028,0.113-0.028,0.227c-0.028,0.113-0.028,0.227-0.028,0.396
	c0,0.141,0,0.283,0,0.426c-0.028,0.17,0,0.311,0,0.453c0.028,0.113,0.057,0.227,0.085,0.311c0.029,0.086,0.057,0.143,0.113,0.143
	c0.113,0.027,0.17,0.084,0.17,0.113c0.029,0.029,0,0.057-0.057,0.113c-0.057,0.029-0.141,0.057-0.255,0.086
	c-0.113,0.057-0.255,0.084-0.396,0.113c-0.057-0.086-0.085-0.17-0.085-0.283c-0.028-0.115-0.057-0.256-0.057-0.398
	c0-0.113-0.029-0.254-0.029-0.396c0-0.141,0-0.254,0-0.369c0-0.113,0-0.227-0.027-0.283c0-0.084,0-0.113-0.029-0.113
	c-0.254,0.313-0.566,0.596-0.935,0.879c-0.481,0.313-0.851,0.426-1.163,0.396c-0.197-0.027-0.34-0.141-0.424-0.283
	c-0.086-0.17-0.086-0.367-0.058-0.596c0-0.057,0.028-0.113,0.028-0.197c0.029-0.057,0.029-0.143,0.057-0.227
	c0-0.057,0.029-0.143,0.057-0.199C31.93,64.832,31.93,64.775,31.93,64.775L31.93,64.775z M40.037,64.152L39.3,66.676l-0.057,0.027
	c0,0.029-0.057-0.057-0.142-0.17c-0.085-0.143-0.17-0.283-0.283-0.482c-0.113-0.197-0.227-0.396-0.341-0.623
	c-0.113-0.227-0.227-0.426-0.312-0.623c-0.085-0.17-0.142-0.313-0.198-0.398c-0.028-0.113-0.057-0.113-0.028-0.057l-0.425,1.305
	c-0.085,0.313-0.171,0.566-0.255,0.736c-0.057,0.17-0.114,0.313-0.143,0.369c-0.198,0.453-0.368,0.68-0.51,0.709
	c-0.057,0-0.113,0-0.17-0.029c-0.057-0.027-0.086-0.057-0.143-0.113c-0.027-0.027-0.057-0.084-0.084-0.141
	c-0.029-0.057-0.029-0.113-0.029-0.143c-0.027-0.057,0-0.084,0.029-0.113l0.113,0.029c0.057,0.027,0.141-0.029,0.227-0.113
	c0.085-0.086,0.17-0.199,0.283-0.313c0.085-0.143,0.198-0.283,0.283-0.453c0.086-0.17,0.143-0.313,0.199-0.453
	c0.027-0.029,0.057-0.115,0.084-0.229c0.029-0.141,0.086-0.283,0.114-0.453c0.057-0.141,0.113-0.283,0.142-0.453
	c0.057-0.143,0.113-0.256,0.142-0.34c-0.028-0.029-0.057-0.057-0.085-0.086c-0.057-0.057-0.085-0.084-0.142-0.113
	c-0.028-0.057-0.057-0.084-0.085-0.113c0,0,0-0.027,0.057-0.027s0.113,0,0.17-0.029c0.057,0,0.142,0,0.198,0s0.113,0,0.17,0
	s0.113,0,0.142,0.029c0,0,0.028,0.057,0.085,0.141c0.028,0.057,0.085,0.17,0.17,0.283c0.058,0.113,0.143,0.227,0.199,0.369
	c0.085,0.143,0.17,0.283,0.227,0.426c0.085,0.141,0.17,0.283,0.227,0.396s0.113,0.199,0.142,0.283
	c0.028-0.027,0.057-0.141,0.113-0.313c0.028-0.141,0.113-0.367,0.199-0.68c0.057-0.113,0.085-0.256,0.113-0.396
	c0.028-0.143,0.057-0.256,0.113-0.34c0.028-0.113,0.085-0.199,0.142-0.256c0.057-0.084,0.142-0.113,0.255-0.113h0.085
	c0,0,0.028,0.057,0.113,0.199c0.057,0.113,0.17,0.254,0.284,0.453c0.113,0.197,0.227,0.396,0.34,0.623
	c0.142,0.227,0.255,0.426,0.368,0.623c0.113,0.172,0.198,0.342,0.283,0.455c0.086,0.141,0.114,0.197,0.114,0.197v0.057
	c0,0-0.028,0.029-0.057,0.057c-0.029,0-0.086,0.029-0.143,0.057c-0.057,0.029-0.113,0.057-0.17,0.086
	c-0.057,0.027-0.085,0.057-0.113,0.084l-0.057,0.029c-0.028,0-0.057-0.029-0.113-0.143c-0.057-0.084-0.142-0.227-0.227-0.367
	c-0.057-0.17-0.142-0.34-0.256-0.539c-0.085-0.17-0.17-0.369-0.255-0.539c-0.085-0.197-0.17-0.367-0.227-0.51
	S40.065,64.209,40.037,64.152L40.037,64.152z M42.276,64.945c0,0,0-0.084-0.028-0.17c0-0.113-0.028-0.254-0.057-0.453
	c0-0.029,0-0.057-0.028-0.113c0-0.057,0-0.113,0-0.17c-0.028-0.057-0.028-0.113,0-0.17c0-0.057,0.028-0.086,0.057-0.086
	c0.057-0.027,0.085-0.027,0.142,0c0.057,0,0.113,0,0.198,0.029c0.057,0.027,0.085,0.057,0.142,0.057
	c0.057,0.027,0.085,0.057,0.113,0.084c-0.028,0.086-0.028,0.199-0.028,0.34c0,0.143,0,0.285,0,0.426c0,0.143,0,0.256,0.028,0.396
	c0,0.113,0.029,0.227,0.029,0.313c0.057,0.17,0.113,0.283,0.198,0.369c0.085,0.084,0.198,0.113,0.34,0.057
	c0.283-0.057,0.567-0.369,0.794-0.879c0.227-0.482,0.368-0.908,0.368-1.305c0-0.084,0.028-0.141,0.113-0.197
	c0.085-0.059,0.17-0.086,0.284-0.115l0.085,0.285c0,0.027,0.028,0.113,0.057,0.227s0.085,0.227,0.113,0.367
	c0.057,0.143,0.113,0.256,0.17,0.426c0.057,0.143,0.113,0.256,0.17,0.369c0.057,0.141,0.142,0.227,0.198,0.283
	c0.057,0.084,0.113,0.113,0.17,0.084c0.085,0,0.171,0,0.199,0.029c0,0.027,0,0.084-0.028,0.143
	c-0.028,0.057-0.114,0.113-0.199,0.197c-0.085,0.057-0.198,0.143-0.34,0.227c-0.057-0.057-0.113-0.113-0.17-0.227
	c-0.085-0.113-0.142-0.227-0.198-0.34s-0.113-0.256-0.17-0.369c-0.057-0.141-0.114-0.254-0.143-0.34
	c-0.057-0.113-0.085-0.197-0.142-0.256c-0.028-0.084-0.057-0.113-0.085-0.084c-0.085,0.369-0.255,0.766-0.538,1.162
	c-0.313,0.453-0.624,0.709-0.907,0.793c-0.198,0.057-0.369,0.029-0.511-0.113c-0.113-0.113-0.198-0.283-0.283-0.537
	c0-0.029,0-0.086-0.028-0.172c0-0.084-0.028-0.141-0.028-0.227c-0.028-0.084-0.028-0.141-0.028-0.197
	C42.276,65.031,42.276,64.975,42.276,64.945L42.276,64.945z M48.059,62.252c0.028-0.113,0.171-0.197,0.341-0.283l0.085,0.283
	c0.028,0.029,0.057,0.113,0.113,0.199c0.028,0.113,0.085,0.227,0.17,0.34c0.057,0.143,0.142,0.283,0.227,0.396
	c0.085,0.143,0.142,0.256,0.227,0.369c0.086,0.113,0.171,0.199,0.228,0.256c0.085,0.057,0.142,0.084,0.17,0.084
	c0.113-0.027,0.17-0.027,0.198,0c0.028,0,0.028,0.057,0,0.113s-0.085,0.143-0.17,0.227c-0.085,0.086-0.17,0.17-0.283,0.285
	c-0.057-0.029-0.113-0.086-0.199-0.199c-0.085-0.086-0.17-0.227-0.283-0.396c-0.481-0.709-0.737-1.049-0.766-1.021
	c-0.113,0.313-0.255,0.625-0.396,0.879c-0.113,0.17-0.198,0.313-0.312,0.396c-0.085,0.113-0.198,0.17-0.284,0.199
	c-0.198,0.084-0.368,0.057-0.51-0.057c-0.17-0.113-0.283-0.256-0.368-0.482c-0.028-0.057-0.028-0.113-0.057-0.17
	c-0.028-0.084-0.057-0.17-0.085-0.227c0-0.086-0.028-0.143-0.057-0.199c0-0.057-0.029-0.113-0.029-0.113
	c-0.028-0.057-0.028-0.113-0.057-0.17c0-0.027-0.028-0.084-0.028-0.141c0-0.029,0.028-0.086,0.028-0.113
	c0.028-0.029,0.028-0.057,0.086-0.086h0.085c0.085-0.027,0.17,0,0.227,0.029c0.085,0.027,0.113,0.057,0.142,0.084
	c0,0.057,0.028,0.113,0.057,0.199c0,0.057,0.028,0.141,0.028,0.227c0.028,0.084,0.028,0.141,0.028,0.227
	c0.028,0.057,0.028,0.086,0.057,0.113c0.057,0.17,0.142,0.283,0.227,0.34c0.085,0.086,0.199,0.086,0.341,0.029
	c0.085-0.057,0.198-0.113,0.283-0.227s0.17-0.229,0.227-0.369c0.085-0.143,0.142-0.313,0.198-0.482
	C47.974,62.621,48.03,62.424,48.059,62.252L48.059,62.252z M50.525,62.338c0.227-0.199,0.453-0.396,0.68-0.596
	c0.228-0.17,0.426-0.367,0.652-0.566c0.113-0.086,0.17-0.17,0.198-0.256c0.028-0.084,0-0.17-0.028-0.227l-0.057-0.113
	c-0.085-0.113-0.198-0.197-0.34-0.197c-0.17-0.029-0.341,0.027-0.539,0.141c-0.113,0.086-0.227,0.199-0.312,0.34
	c-0.085,0.143-0.17,0.283-0.227,0.453c-0.028,0.172-0.057,0.342-0.085,0.512C50.469,62.025,50.497,62.168,50.525,62.338
	L50.525,62.338z M50.1,62.225c0-0.256,0.028-0.482,0.057-0.709c0.057-0.199,0.142-0.396,0.256-0.596
	c0-0.027,0.057-0.084,0.113-0.141c0.057-0.086,0.113-0.143,0.198-0.227c0.085-0.086,0.17-0.17,0.255-0.256
	c0.085-0.057,0.198-0.143,0.283-0.199c0.199-0.141,0.397-0.227,0.567-0.227c0.198-0.027,0.34,0.029,0.425,0.17
	c0.028,0.057,0.085,0.113,0.142,0.17c0.057,0.059,0.114,0.115,0.143,0.143c0.057,0.057,0.113,0.086,0.142,0.143
	s0.028,0.084,0.028,0.113l-2.069,1.928c0.227,0.227,0.481,0.34,0.766,0.367c0.255,0,0.566-0.084,0.878-0.283
	c0.085-0.057,0.198-0.17,0.313-0.283c0.142-0.113,0.255-0.256,0.396-0.396c0.142-0.143,0.255-0.283,0.396-0.396
	c0.142-0.143,0.256-0.229,0.341-0.313c0.057-0.029,0.085-0.029,0.142-0.029c0.057,0.029,0.057,0.086,0,0.172
	c-0.057,0.084-0.142,0.197-0.255,0.311c-0.114,0.113-0.256,0.256-0.397,0.426c-0.17,0.141-0.34,0.283-0.481,0.396
	c-0.142,0.143-0.284,0.256-0.426,0.369c-0.113,0.084-0.198,0.17-0.255,0.197c-0.17,0.113-0.34,0.199-0.51,0.283
	c-0.171,0.057-0.341,0.115-0.482,0.115c-0.34,0.027-0.566-0.059-0.737-0.313C50.185,62.961,50.128,62.65,50.1,62.225L50.1,62.225z
	 M53.983,60.07c-0.17-0.34-0.17-0.822,0-1.475s0.481-1.162,0.907-1.531c0.057-0.057,0.142-0.113,0.227-0.141
	c0.085-0.057,0.17-0.086,0.255-0.113c0.085,0,0.17,0,0.255,0c0.057,0.027,0.114,0.057,0.171,0.113
	c0.028,0.027,0.028,0.057,0.057,0.113c0,0.027,0,0.086-0.028,0.086l-0.085,0.027c-0.028,0-0.086,0-0.171,0.029
	c-0.057,0.027-0.142,0.057-0.198,0.113c-0.085,0.027-0.17,0.084-0.255,0.141s-0.142,0.113-0.227,0.199
	c-0.341,0.283-0.567,0.596-0.652,0.936c-0.113,0.453-0.028,0.85,0.283,1.219l0.113,0.084c0.086,0.086,0.199,0.143,0.313,0.17
	c0.113,0,0.255,0,0.396-0.027c0.142-0.029,0.283-0.113,0.426-0.199c0.17-0.084,0.312-0.197,0.481-0.311
	c0.142-0.143,0.283-0.313,0.396-0.455c0.113-0.17,0.199-0.34,0.256-0.48c0.057-0.143,0.085-0.283,0.142-0.369
	s0.085-0.143,0.113-0.143c0.028-0.027,0.028-0.027,0.057-0.027s0.028,0,0.028,0c0.057,0.057,0.085,0.143,0.057,0.256
	s-0.085,0.227-0.142,0.367c-0.085,0.143-0.17,0.283-0.255,0.426c-0.114,0.143-0.228,0.313-0.341,0.453
	c-0.113,0.143-0.227,0.256-0.34,0.396c-0.142,0.113-0.227,0.227-0.34,0.283c-0.142,0.143-0.313,0.256-0.454,0.342
	c-0.142,0.084-0.283,0.141-0.425,0.17c-0.312,0.057-0.596-0.029-0.822-0.283c0-0.029-0.028-0.057-0.028-0.057
	c-0.028-0.029-0.028-0.057-0.057-0.086c0,0-0.028-0.057-0.057-0.086C54.04,60.184,54.012,60.127,53.983,60.07L53.983,60.07z
	 M54.493,54.117l3.288,2.834c0.086-0.227,0.143-0.453,0.171-0.707c0.028-0.256,0.028-0.539,0.028-0.822
	c-0.028-0.283-0.085-0.596-0.113-0.879c-0.058-0.313-0.114-0.623-0.143-0.908c0-0.027,0.028-0.027,0.085-0.027
	c0.028,0,0.058,0,0.114,0.027c0.057,0,0.113,0.029,0.142,0.057c0.057,0.029,0.113,0.057,0.142,0.086
	c0.085,0.057,0.142,0.143,0.17,0.283c0.028,0.143,0.028,0.313,0.028,0.482s-0.028,0.367-0.057,0.566
	c-0.028,0.17-0.057,0.369-0.085,0.539c0.057,0,0.113-0.029,0.227-0.029c0.113-0.027,0.227-0.057,0.368-0.057
	c0.114-0.027,0.256-0.057,0.369-0.084c0.113-0.029,0.198-0.029,0.255-0.029c0.085-0.027,0.198-0.027,0.283-0.057
	c0.085-0.027,0.17-0.057,0.256-0.084c0.085-0.029,0.17-0.086,0.255-0.113c0.057-0.057,0.113-0.113,0.17-0.17l0.057-0.115
	l0.028,0.059c0.057,0.027,0.085,0.057,0.113,0.113c0.028,0.084,0.057,0.141,0.057,0.197c0,0.086,0.028,0.143,0,0.227
	c0,0.057-0.028,0.113-0.057,0.143l-0.057,0.057c-0.028,0.027-0.113,0.057-0.227,0.084c-0.142,0.057-0.283,0.086-0.454,0.143
	c-0.17,0.027-0.368,0.086-0.566,0.113c-0.198,0.057-0.368,0.086-0.539,0.143c-0.17,0.027-0.312,0.057-0.425,0.084
	c-0.113,0.029-0.17,0.029-0.17,0.029l-0.227,0.822c0.085,0.057,0.142,0.084,0.227,0.141s0.17,0.086,0.255,0.143
	c0.057,0.057,0.113,0.084,0.17,0.141c0.028,0.057,0.028,0.086,0,0.143c-0.057,0.057-0.113,0.113-0.198,0.141
	c-0.057,0.029-0.142,0.029-0.198,0l-2.069-1.672c-0.312-0.227-0.567-0.426-0.794-0.596s-0.453-0.34-0.651-0.48
	c-0.171-0.113-0.341-0.229-0.511-0.342s-0.312-0.197-0.453-0.311L53.7,54.373h-0.028c0,0,0,0,0-0.029c0,0,0,0,0-0.027l0.028-0.029
	l0,0c0.028-0.057,0.085-0.084,0.142-0.141c0.057-0.029,0.142-0.057,0.198-0.086c0.085-0.027,0.142-0.027,0.227-0.027
	c0.057-0.029,0.142,0,0.17,0.027L54.493,54.117z M59.766,53.607c0,0-0.057-0.057-0.142-0.113s-0.227-0.143-0.368-0.256
	c-0.028-0.027-0.057-0.027-0.085-0.057c-0.057-0.027-0.113-0.084-0.17-0.113c-0.028-0.027-0.086-0.084-0.114-0.113
	c-0.028-0.057-0.028-0.084,0-0.113c0-0.029,0.057-0.086,0.086-0.113c0.057-0.029,0.085-0.057,0.142-0.086
	c0.057-0.027,0.113-0.057,0.17-0.084c0.057,0,0.085-0.029,0.113-0.029c0.057,0.086,0.142,0.17,0.255,0.256
	c0.085,0.113,0.198,0.199,0.283,0.283c0.114,0.086,0.228,0.17,0.313,0.256c0.113,0.084,0.198,0.141,0.255,0.17
	c0.17,0.084,0.312,0.141,0.425,0.141c0.113-0.027,0.199-0.084,0.256-0.197c0.142-0.283,0.113-0.682-0.086-1.219
	c-0.198-0.482-0.425-0.879-0.736-1.162c-0.028-0.029-0.057-0.113-0.057-0.199c0.028-0.084,0.057-0.199,0.113-0.313l0.255,0.172
	c0.057,0,0.113,0.057,0.227,0.084c0.085,0.057,0.198,0.113,0.341,0.17c0.142,0.057,0.283,0.113,0.425,0.17s0.283,0.113,0.396,0.143
	c0.143,0.027,0.256,0.057,0.341,0.057s0.142-0.029,0.17-0.086c0.057-0.057,0.113-0.113,0.142-0.113c0.057,0,0.085,0.029,0.085,0.113
	c0.028,0.057,0.028,0.143,0.028,0.256c-0.028,0.113-0.028,0.256-0.057,0.426c-0.085,0-0.198,0-0.312-0.029
	c-0.113-0.027-0.227-0.057-0.369-0.084c-0.113-0.057-0.255-0.086-0.396-0.143c-0.113-0.029-0.227-0.086-0.34-0.113
	c-0.113-0.057-0.198-0.086-0.284-0.086c-0.057-0.027-0.085-0.027-0.113,0c0.228,0.342,0.369,0.738,0.482,1.191
	c0.113,0.539,0.113,0.936-0.028,1.219c-0.113,0.17-0.255,0.283-0.426,0.283c-0.17,0.029-0.368-0.027-0.566-0.141
	c-0.057-0.029-0.113-0.057-0.17-0.113c-0.057-0.029-0.142-0.086-0.198-0.115c-0.058-0.057-0.114-0.084-0.171-0.113
	C59.822,53.635,59.794,53.635,59.766,53.607L59.766,53.607z M61.807,49.922c0-0.027-0.057-0.057-0.17-0.084
	c-0.085-0.057-0.227-0.113-0.396-0.229c0,0-0.057-0.027-0.085-0.027c-0.058-0.029-0.114-0.057-0.171-0.086
	c-0.057-0.027-0.085-0.084-0.142-0.113c-0.028-0.027-0.028-0.057-0.028-0.113c0.028-0.027,0.057-0.057,0.085-0.113
	c0.028-0.027,0.085-0.084,0.142-0.113c0.057-0.027,0.086-0.057,0.143-0.084c0.057-0.029,0.085-0.057,0.113-0.057
	c0.085,0.084,0.17,0.141,0.283,0.227c0.085,0.084,0.198,0.17,0.34,0.227c0.113,0.084,0.227,0.141,0.313,0.227
	c0.113,0.057,0.227,0.086,0.283,0.113c0.17,0.086,0.312,0.113,0.425,0.086c0.113-0.029,0.198-0.113,0.255-0.256
	c0.114-0.283,0.029-0.652-0.255-1.162c-0.283-0.453-0.566-0.793-0.879-1.049c-0.057-0.029-0.085-0.113-0.085-0.199
	c0-0.084,0-0.197,0.057-0.311l0.256,0.113c0.057,0.027,0.142,0.027,0.227,0.084c0.113,0.029,0.255,0.057,0.368,0.113
	c0.142,0.029,0.283,0.057,0.454,0.113c0.142,0.029,0.283,0.057,0.425,0.057c0.142,0.029,0.227,0.029,0.34,0.029
	c0.085-0.029,0.142-0.057,0.17-0.113c0.028-0.086,0.086-0.143,0.114-0.143c0.057,0,0.085,0.029,0.113,0.086
	c0,0.084,0.028,0.17,0.028,0.283c0.028,0.113,0.028,0.256,0,0.396c-0.057,0.029-0.17,0.057-0.284,0.029
	c-0.113,0-0.255,0-0.368-0.029c-0.142-0.027-0.283-0.057-0.425-0.084c-0.113-0.029-0.256-0.057-0.369-0.086
	c-0.113,0-0.198-0.027-0.283-0.027c-0.057,0-0.113,0-0.113,0.027c0.255,0.283,0.481,0.652,0.652,1.105
	c0.198,0.51,0.227,0.908,0.113,1.219c-0.057,0.17-0.199,0.283-0.369,0.34c-0.17,0.029-0.368,0-0.595-0.084
	c-0.028,0-0.085-0.029-0.17-0.057c-0.057-0.057-0.142-0.086-0.199-0.113c-0.085-0.029-0.142-0.057-0.198-0.086
	C61.863,49.951,61.835,49.922,61.807,49.922L61.807,49.922z M60.814,46.805c-0.028,0.141-0.057,0.283-0.085,0.424
	c-0.028,0.143-0.085,0.313-0.113,0.455c-0.057,0.17-0.113,0.34-0.142,0.48c-0.057,0.143-0.085,0.283-0.142,0.396v0.086
	c0,0.086-0.057,0.17-0.113,0.227c-0.085,0.057-0.17,0.113-0.256,0.143c-0.113,0.057-0.198,0.057-0.312,0.057
	c-0.085,0.027-0.17,0-0.227,0l-0.057-0.057v-0.029c0-0.027,0-0.057,0-0.057c0.085-0.113,0.198-0.254,0.283-0.369
	c0.113-0.141,0.227-0.311,0.312-0.453c0.114-0.17,0.199-0.34,0.284-0.51c0.085-0.199,0.17-0.369,0.227-0.566l0.227-0.709
	c0-0.057,0.028-0.057,0.057-0.029c0.028,0.029,0.028,0.057,0.057,0.143c0,0.057,0.028,0.113,0.028,0.199
	C60.843,46.719,60.843,46.775,60.814,46.805L60.814,46.805z"/>
<path fill="#161717" d="M61.354,39.773l2.239,1.504c0.17,0.113,0.368,0.254,0.566,0.424c0.171,0.143,0.369,0.313,0.567,0.482
	c0.283,0.199,0.51,0.396,0.709,0.596c0.198,0.17,0.396,0.34,0.538,0.51c0.368,0.369,0.539,0.68,0.539,0.85v0.057
	c-0.028,0.057-0.058,0.113-0.114,0.199c-0.057,0.057-0.113,0.113-0.198,0.17c-0.057,0.057-0.142,0.086-0.198,0.113
	c-0.085,0.029-0.142,0.057-0.198,0.057c-0.057-0.027-0.057-0.027-0.057-0.084s0.028-0.113,0.113-0.17l0.028-0.113
	c0.028-0.086,0-0.199-0.057-0.369c-0.085-0.143-0.17-0.313-0.312-0.482s-0.313-0.369-0.482-0.566
	c-0.17-0.17-0.368-0.369-0.538-0.539c-0.199-0.17-0.369-0.34-0.539-0.482c-0.142-0.141-0.283-0.254-0.396-0.34
	c-0.397-0.283-0.794-0.566-1.19-0.85c-0.426-0.256-0.822-0.539-1.219-0.852c-0.171,0.086-0.313,0.17-0.426,0.313
	c-0.028,0.029-0.057,0.086-0.113,0.17c-0.028,0.086-0.057,0.17-0.085,0.256c-0.057,0.084-0.085,0.141-0.113,0.197
	s-0.057,0.086-0.057,0.086c-0.085,0-0.113-0.086-0.085-0.313c0-0.283,0.028-0.51,0.085-0.68c0.028-0.17,0.113-0.34,0.227-0.453
	c0.085-0.113,0.255-0.227,0.453-0.313c0.199-0.084,0.454-0.227,0.822-0.34c0.369-0.17,0.737-0.313,1.105-0.453
	c0.369-0.143,0.737-0.283,1.105-0.453c0.822-0.342,1.305-0.596,1.446-0.768c0.028-0.027,0.057-0.057,0.085-0.084
	c0,0,0.028-0.029,0.057-0.057c0,0,0.028,0,0.057,0.027c0.057,0,0.085,0,0.142,0.057c0.028,0.029,0.085,0.086,0.113,0.172
	c0.028,0.057,0.057,0.17,0.028,0.311c0,0.113-0.028,0.199-0.113,0.256c-0.057,0.057-0.198,0.143-0.34,0.199
	c-0.17,0.084-0.397,0.17-0.652,0.254c-0.255,0.086-0.596,0.227-0.992,0.369C63.025,39.008,62.176,39.377,61.354,39.773
	L61.354,39.773z M64.387,36.373c-0.028,0-0.086,0-0.199,0.027c-0.113,0-0.255,0-0.453,0c0,0-0.057,0-0.113,0s-0.113,0-0.17,0
	s-0.113,0-0.17,0c-0.057-0.027-0.086-0.057-0.086-0.084c0-0.057,0-0.086,0.029-0.143c0-0.057,0.027-0.113,0.057-0.17
	c0.028-0.057,0.057-0.113,0.085-0.17c0.028-0.028,0.057-0.057,0.085-0.085c0.085,0.028,0.198,0.057,0.34,0.057
	c0.142,0.028,0.255,0.028,0.396,0.057c0.143,0,0.284,0,0.397,0c0.142,0,0.227,0,0.312,0c0.198-0.028,0.312-0.085,0.396-0.142
	c0.086-0.085,0.113-0.199,0.113-0.34c-0.057-0.313-0.312-0.596-0.793-0.879c-0.454-0.283-0.879-0.453-1.275-0.51
	c-0.086,0-0.143-0.058-0.171-0.143c-0.057-0.085-0.085-0.17-0.113-0.283l0.313-0.057c0.028,0,0.113,0,0.227-0.029
	c0.113-0.027,0.227-0.057,0.368-0.084c0.142-0.029,0.283-0.057,0.454-0.113c0.142-0.029,0.283-0.086,0.396-0.143
	s0.227-0.084,0.312-0.141c0.057-0.057,0.085-0.114,0.085-0.171c0-0.113,0.028-0.17,0.057-0.198s0.057,0,0.114,0.028
	c0.057,0.057,0.113,0.113,0.17,0.227c0.085,0.085,0.142,0.228,0.198,0.341c-0.057,0.084-0.113,0.141-0.227,0.17
	c-0.114,0.057-0.228,0.113-0.369,0.17c-0.113,0.028-0.255,0.085-0.396,0.113c-0.113,0.057-0.227,0.085-0.34,0.113
	c-0.114,0.028-0.199,0.085-0.284,0.085c-0.057,0.057-0.085,0.057-0.085,0.085c0.369,0.143,0.737,0.369,1.105,0.681
	c0.426,0.34,0.652,0.681,0.709,0.992c0.028,0.198-0.028,0.368-0.17,0.481s-0.312,0.17-0.567,0.227c-0.028,0-0.085,0-0.17,0
	s-0.142,0.029-0.227,0.029s-0.142,0-0.227,0C64.443,36.373,64.415,36.373,64.387,36.373L64.387,36.373z M63.706,28.889
	c-0.085-0.027-0.142-0.027-0.17-0.027c-0.085-0.029-0.17-0.057-0.227-0.057c-0.058,0-0.114,0-0.143-0.029
	c-0.085-0.057-0.113-0.084-0.085-0.084c0.028-0.029,0.113-0.029,0.199-0.029c0.085,0,0.227,0,0.368,0.029
	c0.113,0,0.255,0.027,0.396,0.027c0.142,0.029,0.255,0.029,0.369,0.057c0.113,0,0.198,0.029,0.255,0.029
	c0.566,0.113,0.907,0.254,0.936,0.367c0.028,0.057,0,0.086,0,0.143c-0.028,0.057-0.057,0.113-0.113,0.142
	c-0.028,0.057-0.057,0.113-0.113,0.142c-0.058,0.028-0.086,0.057-0.114,0.085l-0.085-0.028c0,0,0,0,0.028-0.028
	c0-0.028,0-0.028,0-0.057c0.028-0.028,0.028-0.057,0.028-0.085s0.028-0.028,0-0.057c-0.028-0.057-0.113-0.142-0.255-0.199
	c-0.142-0.084-0.34-0.141-0.566-0.197c-0.028,0-0.085,0.057-0.171,0.113c-0.085,0.057-0.198,0.113-0.312,0.17
	c-0.085,0.085-0.198,0.142-0.312,0.227s-0.227,0.142-0.312,0.199c-0.085,0.084-0.171,0.141-0.228,0.17
	c-0.057,0.057-0.085,0.084-0.085,0.084c0.397,0.057,0.794,0.199,1.219,0.426c0.482,0.255,0.794,0.539,0.879,0.822
	c0.085,0.198,0.057,0.368-0.028,0.51c-0.113,0.143-0.283,0.256-0.51,0.34c-0.057,0-0.113,0.029-0.17,0.057
	c-0.086,0-0.143,0.029-0.228,0.057c-0.085,0.029-0.142,0.029-0.198,0.057c-0.057,0-0.113,0.029-0.113,0.029
	c-0.028,0-0.113,0.027-0.198,0.057c-0.113,0-0.255,0.057-0.454,0.085c0,0-0.057,0.028-0.085,0.028
	c-0.057,0.028-0.113,0.028-0.17,0.057c-0.085,0-0.142,0-0.17,0c-0.057,0-0.085-0.028-0.113-0.057c0-0.028-0.028-0.086,0-0.143
	c0-0.057,0-0.113,0-0.17c0.028-0.057,0.028-0.113,0.057-0.17s0.057-0.084,0.057-0.113c0.113,0,0.227,0,0.368,0
	c0.113-0.028,0.256-0.028,0.397-0.057s0.255-0.028,0.396-0.057c0.113-0.028,0.227-0.057,0.283-0.085
	c0.199-0.057,0.313-0.142,0.369-0.227c0.085-0.085,0.085-0.198,0.028-0.341c-0.113-0.283-0.426-0.51-0.964-0.708
	c-0.482-0.171-0.936-0.255-1.332-0.228c-0.085,0-0.142-0.027-0.199-0.084c-0.085-0.086-0.142-0.17-0.17-0.283l0.313-0.086
	c0.113-0.057,0.255-0.113,0.396-0.17c0.142-0.085,0.255-0.142,0.396-0.227c0.113-0.057,0.256-0.143,0.369-0.227
	C63.536,29.031,63.621,28.945,63.706,28.889L63.706,28.889z M62.431,27.5c-0.17-0.255-0.341-0.482-0.511-0.736
	c-0.17-0.228-0.368-0.482-0.538-0.709c-0.057-0.113-0.142-0.17-0.227-0.199c-0.086-0.057-0.171-0.057-0.228,0l-0.113,0.057
	c-0.113,0.057-0.198,0.171-0.227,0.313c-0.057,0.142,0,0.312,0.113,0.539c0.057,0.113,0.17,0.254,0.283,0.34
	c0.143,0.113,0.284,0.198,0.454,0.255c0.142,0.057,0.312,0.113,0.481,0.142C62.118,27.5,62.289,27.5,62.431,27.5L62.431,27.5z
	 M62.289,27.896c-0.256,0-0.482-0.057-0.681-0.141c-0.198-0.057-0.396-0.143-0.596-0.284c-0.028,0-0.085-0.057-0.142-0.113
	s-0.142-0.142-0.198-0.227c-0.085-0.085-0.142-0.171-0.227-0.284c-0.057-0.084-0.113-0.197-0.17-0.283
	c-0.113-0.227-0.17-0.425-0.198-0.596c0-0.197,0.085-0.311,0.227-0.396c0.057-0.027,0.113-0.084,0.17-0.142
	c0.057-0.028,0.113-0.085,0.17-0.142c0.057-0.028,0.113-0.085,0.142-0.113c0.057-0.028,0.085-0.028,0.113,0l1.758,2.211
	c0.227-0.198,0.368-0.426,0.396-0.709c0.057-0.283,0-0.595-0.198-0.936c-0.028-0.084-0.113-0.197-0.227-0.34
	c-0.113-0.113-0.255-0.255-0.368-0.396c-0.143-0.17-0.256-0.313-0.369-0.453c-0.113-0.143-0.198-0.256-0.283-0.369
	c0-0.028,0-0.085,0-0.113c0.028-0.057,0.057-0.057,0.142,0s0.198,0.142,0.312,0.283c0.114,0.113,0.228,0.256,0.369,0.453
	c0.142,0.17,0.255,0.313,0.368,0.482c0.142,0.17,0.227,0.313,0.312,0.453c0.114,0.143,0.171,0.227,0.199,0.283
	c0.085,0.199,0.17,0.369,0.227,0.539s0.085,0.34,0.085,0.482c0,0.34-0.113,0.566-0.369,0.709
	C63.025,27.869,62.714,27.926,62.289,27.896L62.289,27.896z M60.22,24.07c0,0-0.057,0.028-0.17,0.085
	c-0.086,0.057-0.228,0.113-0.397,0.227c0,0-0.028,0.028-0.085,0.058c-0.057,0.027-0.085,0.057-0.142,0.084
	c-0.057,0.029-0.113,0.029-0.17,0.057c-0.057,0-0.085,0-0.113-0.027c-0.028-0.057-0.028-0.086-0.057-0.143
	c0-0.057-0.028-0.113-0.028-0.17c0-0.085,0-0.113,0-0.17c0.028-0.057,0.028-0.113,0.028-0.113c0.113-0.029,0.227-0.086,0.34-0.113
	c0.142-0.057,0.255-0.113,0.396-0.17c0.113-0.057,0.228-0.113,0.341-0.17s0.198-0.113,0.283-0.171
	c0.142-0.085,0.227-0.198,0.283-0.312c0.028-0.113,0-0.199-0.085-0.313c-0.17-0.254-0.538-0.396-1.105-0.425
	c-0.538-0.028-0.992,0.028-1.36,0.171c-0.057,0-0.142,0-0.227-0.057s-0.143-0.114-0.228-0.228l0.256-0.17
	c0.028-0.028,0.085-0.057,0.17-0.142c0.085-0.057,0.198-0.143,0.312-0.256c0.113-0.084,0.198-0.197,0.312-0.283
	c0.113-0.113,0.228-0.227,0.313-0.34c0.085-0.085,0.142-0.17,0.198-0.256c0.028-0.084,0.028-0.141,0-0.197
	c-0.057-0.086-0.057-0.17-0.057-0.199c0.028-0.027,0.057-0.027,0.142-0.027c0.057,0.027,0.142,0.057,0.255,0.113
	c0.085,0.057,0.198,0.141,0.34,0.227c-0.028,0.084-0.057,0.17-0.142,0.255c-0.057,0.085-0.142,0.198-0.255,0.312
	c-0.085,0.086-0.17,0.199-0.283,0.283c-0.085,0.113-0.17,0.199-0.255,0.283c-0.086,0.058-0.143,0.143-0.199,0.199
	c-0.028,0.057-0.057,0.085-0.028,0.113c0.397-0.057,0.822-0.028,1.276,0.057c0.538,0.113,0.906,0.313,1.077,0.566
	c0.142,0.143,0.17,0.313,0.085,0.482c-0.057,0.17-0.171,0.34-0.369,0.482c-0.057,0-0.085,0.057-0.17,0.084
	c-0.057,0.057-0.113,0.086-0.198,0.113c-0.057,0.057-0.113,0.086-0.17,0.114S60.248,24.042,60.22,24.07L60.22,24.07z M57.073,23.191
	c0.085,0.085,0.198,0.199,0.312,0.313c0.085,0.113,0.198,0.227,0.312,0.367c0.113,0.114,0.228,0.228,0.313,0.369
	c0.113,0.113,0.198,0.227,0.283,0.313l0.057,0.057c0.085,0.057,0.113,0.141,0.113,0.227c0.028,0.084,0.028,0.198,0,0.283
	c-0.028,0.113-0.057,0.198-0.113,0.283c-0.028,0.086-0.085,0.143-0.142,0.199H58.15c-0.028,0-0.028,0-0.057,0
	c0-0.029-0.028-0.029-0.028-0.057c-0.057-0.114-0.113-0.256-0.17-0.426c-0.058-0.17-0.114-0.34-0.199-0.51s-0.17-0.341-0.283-0.511
	c-0.085-0.171-0.198-0.341-0.34-0.481l-0.454-0.567c-0.057-0.057-0.057-0.085,0-0.085c0.028,0,0.057,0,0.142,0.028
	c0.058,0.028,0.114,0.057,0.171,0.085C57.017,23.135,57.045,23.163,57.073,23.191L57.073,23.191z"/>
<path fill="#FFFFFF" stroke="#FFFFFF" stroke-width="0.1984" stroke-miterlimit="10" d="M27.537,53.551v-4.535h0.453v4.535H27.537z
	 M31.902,49.326h-2.552v-0.283h2.892c0.255,0,0.481,0.029,0.68,0.113c0.227,0.086,0.369,0.199,0.511,0.34
	c0.113,0.143,0.17,0.285,0.17,0.455c0,0.396-0.228,0.65-0.737,0.822c0.34,0.141,0.624,0.311,0.822,0.537
	c0.198,0.199,0.283,0.455,0.313,0.738c0,0.254-0.114,0.51-0.313,0.736c-0.17,0.256-0.453,0.426-0.766,0.566
	c-0.34,0.143-0.68,0.227-1.076,0.227h-2.495v-0.283h2.438c0.341,0,0.624-0.057,0.907-0.17s0.482-0.254,0.652-0.453
	c0.142-0.199,0.227-0.396,0.227-0.623s-0.085-0.426-0.256-0.625c-0.141-0.17-0.367-0.311-0.623-0.424
	c-0.283-0.113-0.596-0.17-0.964-0.17h-2.353v-0.256h2.664c0.766,0,1.135-0.199,1.162-0.623c0-0.227-0.141-0.369-0.396-0.482
	C32.554,49.355,32.27,49.326,31.902,49.326L31.902,49.326z M38.875,48.959c0.651,0,1.247,0.084,1.785,0.311
	c0.539,0.199,0.964,0.482,1.276,0.852c0.34,0.34,0.481,0.736,0.481,1.162c0,0.424-0.142,0.793-0.481,1.162
	c-0.313,0.367-0.737,0.652-1.276,0.85c-0.538,0.199-1.134,0.313-1.785,0.313c-0.624,0-1.219-0.113-1.758-0.313
	c-0.539-0.197-0.992-0.482-1.304-0.85c-0.312-0.369-0.481-0.738-0.481-1.162c0-0.426,0.17-0.822,0.481-1.162
	c0.312-0.369,0.765-0.652,1.304-0.852C37.656,49.043,38.251,48.959,38.875,48.959L38.875,48.959z M38.875,49.213
	c-0.567,0-1.077,0.113-1.559,0.283c-0.482,0.199-0.852,0.455-1.135,0.766c-0.283,0.313-0.425,0.682-0.425,1.049
	c0,0.369,0.142,0.709,0.425,1.021c0.283,0.311,0.652,0.566,1.135,0.766c0.481,0.17,0.991,0.283,1.559,0.283
	c0.566,0,1.077-0.113,1.559-0.283c0.482-0.199,0.851-0.455,1.134-0.766c0.284-0.313,0.426-0.652,0.426-1.021
	c0-0.367-0.142-0.736-0.426-1.049c-0.283-0.311-0.651-0.566-1.134-0.766C39.952,49.326,39.441,49.213,38.875,49.213L38.875,49.213z
	 M46.33,49.326h-2.552v-0.283h2.892c0.255,0,0.482,0.029,0.681,0.113c0.227,0.086,0.396,0.199,0.51,0.34
	c0.113,0.143,0.198,0.285,0.198,0.455c0,0.396-0.255,0.65-0.765,0.822c0.34,0.141,0.623,0.311,0.821,0.537
	c0.199,0.199,0.284,0.455,0.313,0.738c0,0.254-0.113,0.51-0.284,0.736c-0.198,0.256-0.453,0.426-0.793,0.566
	c-0.341,0.143-0.681,0.227-1.077,0.227h-2.467v-0.283h2.41c0.34,0,0.651-0.057,0.906-0.17c0.284-0.113,0.482-0.254,0.652-0.453
	c0.142-0.199,0.227-0.396,0.227-0.623s-0.085-0.426-0.227-0.625c-0.17-0.17-0.368-0.311-0.652-0.424
	c-0.283-0.113-0.595-0.17-0.963-0.17h-2.354v-0.256H46.5c0.737,0,1.134-0.199,1.134-0.623c0-0.227-0.113-0.369-0.368-0.482
	C47.01,49.355,46.698,49.326,46.33,49.326L46.33,49.326z"/>
</svg>
