<svg id="Layer_1" data-name="Layer 1" xmlns="http://www.w3.org/2000/svg" xmlns:xlink="http://www.w3.org/1999/xlink" viewBox="0 0 538.22 551.08"><defs><style>.cls-1,.cls-48{fill:none;}.cls-1{clip-rule:evenodd;}.cls-2,.cls-49,.cls-51{fill:#fefefe;}.cls-2{stroke:#141515;}.cls-2,.cls-48,.cls-49,.cls-51{stroke-miterlimit:10;}.cls-2,.cls-48{stroke-width:1.42px;}.cls-10,.cls-11,.cls-12,.cls-13,.cls-14,.cls-15,.cls-16,.cls-17,.cls-18,.cls-19,.cls-2,.cls-20,.cls-21,.cls-22,.cls-23,.cls-24,.cls-25,.cls-26,.cls-27,.cls-28,.cls-29,.cls-30,.cls-31,.cls-32,.cls-33,.cls-34,.cls-35,.cls-36,.cls-37,.cls-38,.cls-39,.cls-4,.cls-40,.cls-41,.cls-42,.cls-43,.cls-44,.cls-45,.cls-46,.cls-47,.cls-49,.cls-5,.cls-6,.cls-7,.cls-8,.cls-9{fill-rule:evenodd;}.cls-3{clip-path:url(#clip-path);}.cls-4{fill:#df3b2d;}.cls-5{fill:#e03f32;}.cls-6{fill:#e14336;}.cls-7{fill:#e1483b;}.cls-8{fill:#e24c40;}.cls-9{fill:#e35044;}.cls-10{fill:#e35549;}.cls-11{fill:#e4594d;}.cls-12{fill:#e55d52;}.cls-13{fill:#e56257;}.cls-14{fill:#e6665b;}.cls-15{fill:#e76a60;}.cls-16{fill:#e76f65;}.cls-17{fill:#e87369;}.cls-18{fill:#e9776e;}.cls-19{fill:#e97c73;}.cls-20{fill:#ea8077;}.cls-21{fill:#eb847c;}.cls-22{fill:#eb8980;}.cls-23{fill:#ec8d85;}.cls-24{fill:#ed918a;}.cls-25{fill:#ed968e;}.cls-26{fill:#ee9a93;}.cls-27{fill:#ef9e98;}.cls-28{fill:#efa39c;}.cls-29{fill:#f0a7a1;}.cls-30{fill:#f1aba5;}.cls-31{fill:#f1b0aa;}.cls-32{fill:#f2b4af;}.cls-33{fill:#f3b8b3;}.cls-34{fill:#f3bdb8;}.cls-35{fill:#f4c1bd;}.cls-36{fill:#f5c5c1;}.cls-37{fill:#f5cac6;}.cls-38{fill:#f6cecb;}.cls-39{fill:#f7d2cf;}.cls-40{fill:#f7d7d4;}.cls-41{fill:#f8dbd8;}.cls-42{fill:#f9dfdd;}.cls-43{fill:#f9e4e2;}.cls-44{fill:#fae8e6;}.cls-45{fill:#fbeceb;}.cls-46{fill:#fbf1f0;}.cls-47{fill:#fcf5f4;}.cls-48{stroke:#dd2a1b;}.cls-49,.cls-51{stroke:#fefefe;}.cls-49{stroke-width:0.57px;}.cls-50{fill:#141515;}.cls-51{stroke-width:0.2px;}</style><clipPath id="clip-path" transform="translate(-36.08 19.09)"><path class="cls-1" d="M404.92,120.45c-.23-3.67,0-23,.46-31-197.84,2.75-275.64,96.62-275.64,196.46-.46,98.69,85.15,148.72,160.2,149.41,74.82-.69,160-50.72,160-149.87,0-102.36-106-134.27-137.71-126.69,12.16-11.93,62.43-33.28,92.72-38.33Z"/></clipPath></defs><title>MCL sign - RUS</title><path class="cls-2" d="M289.71,25.2c139.77,0,253.15,113.38,253.15,252.92,0,139.77-113.38,253.15-253.15,253.15-139.54,0-252.92-113.38-252.92-253.15C36.79,138.58,150.17,25.2,289.71,25.2Z" transform="translate(-36.08 19.09)"/><g class="cls-3"><polygon class="cls-4" points="329.14 550.37 3.23 361.94 12.41 345.88 338.55 534.31 329.14 550.37"/><polygon class="cls-5" points="333.73 542.34 7.82 353.91 17 337.84 343.14 526.27 333.73 542.34"/><polygon class="cls-6" points="338.55 534.31 12.41 345.88 21.59 329.81 347.73 518.01 338.55 534.31"/><polygon class="cls-7" points="343.14 526.27 17 337.84 26.41 321.78 352.32 509.98 343.14 526.27"/><polygon class="cls-8" points="347.73 518.01 21.59 329.81 31 313.74 357.14 501.94 347.73 518.01"/><polygon class="cls-9" points="352.32 509.98 26.41 321.78 35.59 305.71 361.73 493.91 352.32 509.98"/><polygon class="cls-10" points="357.14 501.94 31 313.74 40.18 297.68 366.32 485.88 357.14 501.94"/><polygon class="cls-11" points="361.73 493.91 35.59 305.71 45 289.64 370.91 477.85 361.73 493.91"/><polygon class="cls-12" points="366.32 485.88 40.18 297.68 49.59 281.61 375.73 469.81 366.32 485.88"/><polygon class="cls-13" points="370.91 477.85 45 289.64 54.19 273.58 380.32 461.78 370.91 477.85"/><polygon class="cls-14" points="375.73 469.81 49.59 281.61 58.77 265.55 384.91 453.75 375.73 469.81"/><polygon class="cls-15" points="380.32 461.78 54.19 273.58 63.59 257.51 389.5 445.71 380.32 461.78"/><polygon class="cls-16" points="384.91 453.75 58.77 265.55 68.19 249.48 394.09 437.68 384.91 453.75"/><polygon class="cls-17" points="389.5 445.71 63.59 257.51 72.78 241.45 398.91 429.65 389.5 445.71"/><polygon class="cls-18" points="394.09 437.68 68.19 249.48 77.36 233.41 403.5 421.62 394.09 437.68"/><polygon class="cls-19" points="398.91 429.65 72.78 241.45 82.19 225.38 408.09 413.58 398.91 429.65"/><polygon class="cls-20" points="403.5 421.62 77.36 233.41 86.78 217.35 412.68 405.55 403.5 421.62"/><polygon class="cls-21" points="408.09 413.58 82.19 225.38 91.36 209.32 417.5 397.52 408.09 413.58"/><polygon class="cls-22" points="412.68 405.55 86.78 217.35 95.95 201.05 422.09 389.48 412.68 405.55"/><polygon class="cls-23" points="417.5 397.52 91.36 209.32 100.55 193.02 426.68 381.45 417.5 397.52"/><polygon class="cls-24" points="422.09 389.48 95.95 201.05 105.36 184.99 431.27 373.42 422.09 389.48"/><polygon class="cls-25" points="426.68 381.45 100.55 193.02 109.96 176.95 436.09 365.38 426.68 381.45"/><polygon class="cls-26" points="431.27 373.42 105.36 184.99 114.55 168.92 440.68 357.35 431.27 373.42"/><polygon class="cls-27" points="436.09 365.38 109.96 176.95 119.14 160.89 445.27 349.09 436.09 365.38"/><polygon class="cls-28" points="440.68 357.35 114.55 168.92 123.96 152.86 449.86 341.06 440.68 357.35"/><polygon class="cls-29" points="445.27 349.09 119.14 160.89 128.55 144.82 454.68 333.02 445.27 349.09"/><polygon class="cls-30" points="449.86 341.06 123.96 152.86 133.14 136.79 459.27 324.99 449.86 341.06"/><polygon class="cls-31" points="454.68 333.02 128.55 144.82 137.73 128.76 463.86 316.96 454.68 333.02"/><polygon class="cls-32" points="459.27 324.99 133.14 136.79 142.55 120.72 468.45 308.92 459.27 324.99"/><polygon class="cls-33" points="463.86 316.96 137.73 128.76 147.14 112.69 473.04 300.89 463.86 316.96"/><polygon class="cls-34" points="468.45 308.92 142.55 120.72 151.73 104.66 477.86 292.86 468.45 308.92"/><polygon class="cls-35" points="473.04 300.89 147.14 112.69 156.32 96.63 482.45 284.83 473.04 300.89"/><polygon class="cls-36" points="477.86 292.86 151.73 104.66 161.14 88.59 487.04 276.79 477.86 292.86"/><polygon class="cls-37" points="482.45 284.83 156.32 96.63 165.73 80.56 491.63 268.76 482.45 284.83"/><polygon class="cls-38" points="487.04 276.79 161.14 88.59 170.32 72.53 496.45 260.73 487.04 276.79"/><polygon class="cls-39" points="491.63 268.76 165.73 80.56 174.91 64.49 501.04 252.69 491.63 268.76"/><polygon class="cls-40" points="496.45 260.73 170.32 72.53 179.5 56.46 505.63 244.66 496.45 260.73"/><polygon class="cls-41" points="501.04 252.69 174.91 64.49 184.32 48.43 510.22 236.63 501.04 252.69"/><polygon class="cls-42" points="505.63 244.66 179.5 56.46 188.91 40.39 515.04 228.59 505.63 244.66"/><polygon class="cls-43" points="510.22 236.63 184.32 48.43 193.5 32.13 519.63 220.56 510.22 236.63"/><polygon class="cls-44" points="515.04 228.59 188.91 40.39 198.09 24.1 524.22 212.53 515.04 228.59"/><polygon class="cls-45" points="519.63 220.56 193.5 32.13 202.91 16.07 528.81 204.5 519.63 220.56"/><polygon class="cls-46" points="524.22 212.53 198.09 24.1 207.5 8.03 533.63 196.46 524.22 212.53"/><polygon class="cls-47" points="528.81 204.5 202.91 16.07 212.09 0 538.22 188.43 528.81 204.5"/></g><path class="cls-48" d="M404.92,120.45c-.23-3.67,0-23,.46-31-197.84,2.75-275.64,96.62-275.64,196.46-.46,98.69,85.15,148.72,160.2,149.41,74.82-.69,160-50.72,160-149.87,0-102.36-106-134.27-137.71-126.69,12.16-11.93,62.43-33.28,92.72-38.33Z" transform="translate(-36.08 19.09)"/><path class="cls-49" d="M168.76,344.92s3.67-93.87,3.67-97.54c11.93,0,28.69,6,47.51,49.8,18.36-43.84,48.66-49.8,48.66-49.8l4.59,97.54H254.36s6.89-31.21,6.89-81.94c-.69,0-15.61-3.67-41.54,54.85-22-59-38.33-54.85-39-55.08,0,52.1,6.2,82.17,6.2,82.17Z" transform="translate(-36.08 19.09)"/><path class="cls-49" d="M303.25,344.92s25.25-82.17,53.93-98c29.61,15.84,53.71,98,53.71,98H394.13s-4.13-64-37-87.44c-31.21,23.41-35.12,87.44-35.12,87.44Z" transform="translate(-36.08 19.09)"/><path class="cls-49" d="M223.84,344.69c12.62-56.23,56-110.63,141.38-155.15-4.59,4.59-9.41,17.9-11.48,22.72C315,228.78,249.31,269.41,242.2,344.69Z" transform="translate(-36.08 19.09)"/><path class="cls-49" d="M352.82,344.92c-12.62-57.15-56-112.46-141.38-157.68,4.59,4.59,9.41,18.13,11.25,23,39,16.75,104.66,58.07,111.77,134.72Z" transform="translate(-36.08 19.09)"/><path class="cls-50" d="M138.69,155.34l4.13-.23a2.5,2.5,0,0,0,1.15-.23l1.38-.69a5.84,5.84,0,0,1,1.61-.46c.69-.23.92-.23,1.15,0l.69.69c0,.23,0,.23-.23.46a1.19,1.19,0,0,1-.46.92c-.23.46-.69.92-1.15,1.61a11.5,11.5,0,0,1-1.84,1.61c-.69.46-1.38,1.15-1.84,1.38a13.16,13.16,0,0,1-1.61.92l-37-6.66a1.19,1.19,0,0,0-.46.92,3.66,3.66,0,0,0,.69,1.84,12.3,12.3,0,0,0,1.15,2.52l1.38,2.75c.69.92,1.15,1.84,1.61,2.52a21.17,21.17,0,0,1,1.15,1.84L124,191.6c-1.15,1.38-1.84,2.3-2.3,2.75-.69.46-1.15.46-1.61,0a151.3,151.3,0,0,0-23.64-12.16c-7.34-3.21-11.93-4.36-14-3.44l-.46-.23c-.23,0-.23-.23-.23-.92,0-.46.23-1.15.23-1.84.23-.69.46-1.61.69-2.3a9,9,0,0,0,.46-1.38h.46v-.23c.23-.46.92-.23,2.3.23a41,41,0,0,1,5.28,2.07c2.07.92,4.36,2.07,6.89,3.21,2.52,1.38,5,2.52,7.57,3.9,2.52,1.15,5,2.3,7.34,3.44a36.74,36.74,0,0,0,5.74,2.52c-.46-.69-.92-1.61-1.84-3.21-.69-1.38-1.61-3.21-2.75-5a55.85,55.85,0,0,0-3.44-6c-1.15-2.07-2.3-4.13-3.21-6-1.15-2.07-2.07-3.67-3-5.28-.92-1.38-1.38-2.52-1.84-3.21A60.46,60.46,0,0,1,99.9,153a7.21,7.21,0,0,1-.92-2.75v-.23c0-.46.69-.46,2.07-.46s3,.23,5,.46c2.3.23,4.59.69,7.11,1.15,2.75.46,5.28.92,7.8,1.38,3.21.46,6,.92,8.49,1.38q3.79.34,6.2.69c-.92-.92-2.07-2.3-3.9-3.9-1.61-1.84-3.67-3.67-5.74-5.74s-4.13-4.36-6.2-6.66c-2.3-2.3-4.13-4.59-6-6.66q-2.41-3.44-4.13-6.2c-.92-1.84-1.38-3.44-1.15-4.59l.23-.69a6.28,6.28,0,0,1,1.15-.92c.46-.23,1.15-.23,1.84-.46a6.35,6.35,0,0,1,2.07-.23,1.94,1.94,0,0,1,1.38.46l.23.46-.46.69a2.83,2.83,0,0,0-.46,2.52c.46,1.15.92,2.52,1.61,3.9a36,36,0,0,0,2.75,4.82c1.15,1.61,2.3,3.21,3.67,5,1.38,1.61,2.75,3.21,3.9,4.82,1.38,1.61,2.75,3,3.9,4.36l4.13,4.82,4.13,4.82ZM82.92,212.49a11.49,11.49,0,0,0,5.74-2.07,13.67,13.67,0,0,0,3.21-4.82,10.72,10.72,0,0,0,.69-3.9,7.54,7.54,0,0,0-.23-3.9,6.12,6.12,0,0,0-1.61-3.21,6.53,6.53,0,0,0-3.21-2.07,8.92,8.92,0,0,0-3.44-.46,10.82,10.82,0,0,0-3.44,1.38,7.66,7.66,0,0,0-3,2.52,12.16,12.16,0,0,0-1.84,3.44c-.23.46-.23.92-.46,1.38,0,.69-.23,1.15-.23,1.84a6.55,6.55,0,0,0,0,3,12.94,12.94,0,0,0,.92,2.75,5.42,5.42,0,0,0,1.84,2.07A9.48,9.48,0,0,0,80.39,212a8.25,8.25,0,0,0,2.52.46Zm11.25-4.59A20,20,0,0,1,90,215q-3.79,4.13-8.26,2.75a9.35,9.35,0,0,1-2.52-1.38,26.19,26.19,0,0,1-2.52-2.52c-.69-1.15-1.38-2.3-2.07-3.67a11.3,11.3,0,0,1-1.38-3.9,25.29,25.29,0,0,1-.46-4.13,9.51,9.51,0,0,1,.69-3.67l.92-3.21a17.22,17.22,0,0,1,1.84-4.13,11.2,11.2,0,0,1,2.3-3,6.73,6.73,0,0,1,7.34-1.61A13.35,13.35,0,0,1,93,192.29c3,4.13,3.21,9.41,1.15,15.61Zm-17.9,14.23c2.75,1.38,5.28,4.59,7.34,9.41a24.13,24.13,0,0,1,2.3,14c-.23.92-.46,1.61-.69,2.3a5,5,0,0,1-1.15,1.84A3.09,3.09,0,0,1,82.46,251a3.91,3.91,0,0,1-1.61.23,1.19,1.19,0,0,1-.92-.46.84.84,0,0,1-.23-.69l.23-.46a2.29,2.29,0,0,0,.92-1.15,13.63,13.63,0,0,0,.92-1.84l.69-2.07c.23-.69.46-1.61.69-2.3.46-3.67.23-6.89-.92-9.41-1.38-3.44-4.13-5.51-8-6.2H73.05a6.11,6.11,0,0,0-2.75.69,9.33,9.33,0,0,0-2.3,2.07,12.16,12.16,0,0,0-1.84,3.44A24.21,24.21,0,0,0,65,237.27a19.06,19.06,0,0,0-.23,5,13.42,13.42,0,0,0,.92,4.36,18.12,18.12,0,0,1,.69,3,4,4,0,0,1,.23,1.38c-.23.23-.23.46-.46.46l-.23.23a2.68,2.68,0,0,1-1.38-1.38c-.46-.92-.69-1.84-1.15-3-.23-1.15-.23-2.52-.46-4.13v-4.36a27.62,27.62,0,0,1,0-4.36c.23-1.38.23-2.52.46-3.44a22.32,22.32,0,0,1,1.15-4.59,14.63,14.63,0,0,1,1.84-3.21c1.61-2.07,3.9-2.75,6.66-2.3a.84.84,0,0,1,.69.23h.46c.23.23.46.23.92.46a3.88,3.88,0,0,1,1.15.46Zm26.62,42.46L68,261.6a18.77,18.77,0,0,0,2.3,5.51A19.92,19.92,0,0,0,74,272.39c1.61,1.84,3.21,3.67,5,5.51,1.61,1.61,3.44,3.44,5,5.28a.71.71,0,0,1-.23.46c-.23.23-.69.23-.92.46a2.91,2.91,0,0,1-1.38.23,2.5,2.5,0,0,1-1.15.23,3.69,3.69,0,0,1-2.52-1.15,15.8,15.8,0,0,1-2.52-3,34.55,34.55,0,0,1-2.3-3.9c-.69-1.38-1.38-2.75-2.07-3.9a16.9,16.9,0,0,0-1.38,1.15l-2.07,2.07a20.69,20.69,0,0,1-2.07,2.3l-1.61,1.61a10,10,0,0,0-1.38,1.61,3.57,3.57,0,0,0-1.38,1.84A6.87,6.87,0,0,0,60.2,285a2.76,2.76,0,0,0-.46,1.84v.92h-.46a1.48,1.48,0,0,1-1.15-.46,4.8,4.8,0,0,1-1.38-.92A6.09,6.09,0,0,1,55.61,285c-.23-.46-.46-.92-.23-1.15v-.69a11.48,11.48,0,0,1,1.15-1.61,25.26,25.26,0,0,1,2.52-3.21c.92-.92,1.84-2.3,3-3.44.92-1.15,2.07-2.3,3-3.44.92-.92,1.61-1.84,2.3-2.52a5.1,5.1,0,0,0,.92-1.15l-2.52-6.2H63.64a7.81,7.81,0,0,1-2.3.23H59.51c-.46-.23-.69-.46-.69-.92.23-.69.23-1.38.69-1.84.23-.69.69-.92,1.38-1.15l21.34,1.15c3.21,0,5.74.23,8.26.23h6.2a37.24,37.24,0,0,0,5.28-.23,27.77,27.77,0,0,0,4.36-.23l.69.23h.23v.23l.23.23v.23a4.76,4.76,0,0,1-.46,1.38,3.7,3.7,0,0,1-.92,1.61,6.09,6.09,0,0,1-1.15,1.38,3.26,3.26,0,0,1-1.38.46ZM76.26,317.83a8.42,8.42,0,0,0,4.13-4.36,9.39,9.39,0,0,0,.92-5.51,19.44,19.44,0,0,0-.92-3.9,8.64,8.64,0,0,0-2.07-3.44,9.18,9.18,0,0,0-2.75-2.3,7.08,7.08,0,0,0-3.9-.46,8,8,0,0,0-3.21,1.38,6.67,6.67,0,0,0-2.52,2.52,9.47,9.47,0,0,0-1.61,3.44,12.54,12.54,0,0,0-.23,4.13c0,.46.23.69.23,1.38a11.19,11.19,0,0,0,.69,1.61,5.24,5.24,0,0,0,1.38,2.75,4.5,4.5,0,0,0,2.07,2.07A8.48,8.48,0,0,0,71,318.29a5.65,5.65,0,0,0,2.75.23,4.63,4.63,0,0,0,2.52-.69Zm8.26-9a23.36,23.36,0,0,1-.69,8q-1.72,5.51-6.2,6.2a6.53,6.53,0,0,1-3,0,12.26,12.26,0,0,1-3.21-1.38,15,15,0,0,1-3.44-2.3,19.82,19.82,0,0,1-3.21-3A17.12,17.12,0,0,1,62.72,313a6.73,6.73,0,0,1-.92-3.67l-.69-3.21a32.32,32.32,0,0,1-.23-4.59,17.19,17.19,0,0,1,.92-3.67c.92-2.75,2.75-4.13,6-4.59a13.18,13.18,0,0,1,8.72,1.84c4.59,2.75,7.11,7.34,8,13.77Zm3.9,30.75A24.82,24.82,0,0,1,91,343.77a19.48,19.48,0,0,1,1.84,3.9,10.93,10.93,0,0,1,.46,6,5.25,5.25,0,0,1-3.67,3.9l-.46.23a11.39,11.39,0,0,1-6.2.23,23.51,23.51,0,0,1-6.2-2.52,29.92,29.92,0,0,1-5-4.36,14.71,14.71,0,0,1-3.9-10.56A24.21,24.21,0,0,1,69.15,335a5,5,0,0,1-1.61-1.38c-.46-.23-.69-.46-.92-.46l-.92-.92-.46-.46,7.57-2.75A80.55,80.55,0,0,1,85,325.87a42.91,42.91,0,0,1,9-.46c6.43.69,11.25,3.9,14.46,9.87l.23.69a3.6,3.6,0,0,1-.69,3.67,9.33,9.33,0,0,1-4.13,2.75,10.39,10.39,0,0,1-3.67.69,24.94,24.94,0,0,1-4.13-.23,19.39,19.39,0,0,1-3.9-1.15,19,19,0,0,1-3.67-2.07Zm-1.61-2.52a33.84,33.84,0,0,0,7.57,3.21,13,13,0,0,0,5.28-.23,4.44,4.44,0,0,0,2.07-1.15,3.57,3.57,0,0,0,1.38-1.84,3.7,3.7,0,0,0,.69-2.07,3.24,3.24,0,0,0-.23-2.07,4.44,4.44,0,0,0-1.15-2.07,6.19,6.19,0,0,0-1.84-1.61,9.59,9.59,0,0,0-2.3-.92,11.17,11.17,0,0,0-2.75-.23c-.92,0-1.84.23-3.21.23a17.84,17.84,0,0,1-3.67.46c-1.15.23-2.3.69-3.44.92a23.81,23.81,0,0,0-2.75.69l-2.3.92c.92.69,2.07,1.61,3.21,2.52a44.06,44.06,0,0,1,3.44,3.21Zm-10.1-4.36-4.36,1.38A2.07,2.07,0,0,0,71,335.51a4.89,4.89,0,0,0-.69,2.75,9.86,9.86,0,0,0,0,3.67,31.3,31.3,0,0,0,.92,3.9,23.51,23.51,0,0,0,2.3,4.82,7.41,7.41,0,0,0,3,3c2.75,1.38,5.28,1.84,7.34,1.15a5.94,5.94,0,0,0,2.52-1.61,5.47,5.47,0,0,0,1.38-2.52,8.38,8.38,0,0,0,.69-3.44,9.21,9.21,0,0,0-.69-3.44l-.46-1.61a12.9,12.9,0,0,0-1.61-3,22.86,22.86,0,0,1-2.3-2.52,15.42,15.42,0,0,0-6.66-3.9Zm9.64,31c3-.46,6.89.46,11.48,3,4.82,2.75,8.26,6,10.33,10.1l.69,2.07a8.61,8.61,0,0,1,.23,2.3,4.32,4.32,0,0,1-.46,1.84c-.23.69-.69.92-1.38,1.38h-.69c-.46,0-.69,0-.69-.46V382.1a5.4,5.4,0,0,0-.46-1.84c-.23-.69-.46-1.61-.69-2.3a15.82,15.82,0,0,0-.92-2.3,15.28,15.28,0,0,0-6.2-6.89,9.94,9.94,0,0,0-10.1,0l-.92.46a5.83,5.83,0,0,0-1.84,2.3,6.35,6.35,0,0,0-.69,3,11.66,11.66,0,0,0,.69,3.9,20.48,20.48,0,0,0,1.61,4.36c.92,1.38,1.84,2.75,2.75,3.9a13.32,13.32,0,0,0,3.44,3,10.34,10.34,0,0,1,2.3,2.07A5.17,5.17,0,0,1,96,392.88v.46a.22.22,0,0,0-.23.23,2.32,2.32,0,0,1-2.07-.23,13.63,13.63,0,0,1-2.52-1.84,15.58,15.58,0,0,1-2.75-2.75c-.92-1.15-1.84-2.3-2.75-3.67a32.84,32.84,0,0,1-2.52-3.44c-.69-1.15-1.38-2.07-1.84-3a20.48,20.48,0,0,1-1.61-4.36,11.41,11.41,0,0,1-.69-3.67,6.93,6.93,0,0,1,3.9-5.74.84.84,0,0,1,.69-.23c.23-.23.23-.23.69-.23a.84.84,0,0,1,.69-.23,9.57,9.57,0,0,1,1.38-.46Zm47.74,17.9-29.61,18.59a26.64,26.64,0,0,0,5,3,24.58,24.58,0,0,0,6.2,2.07c2.52.46,4.82.92,7.34,1.38,2.3.23,4.82.69,7.34.92v.69c-.23.23-.23.69-.46.92-.23.46-.69.69-.92,1.15-.23.23-.69.46-.92.69a4.89,4.89,0,0,1-2.75.69,21.49,21.49,0,0,1-3.67-.92c-1.38-.46-2.75-1.15-4.36-1.84a29.88,29.88,0,0,1-3.9-1.84,12.36,12.36,0,0,0-.23,1.84c-.23.92-.23,1.84-.46,3,0,.92-.23,2.07-.23,3a14.63,14.63,0,0,1-.46,2.07c0,.69-.23,1.61-.23,2.3v2.3c.23.69.23,1.38.46,2.07s.46,1.15.69,1.84l.69.69-.23.23a9.57,9.57,0,0,1-1.38.46h-1.61a14.63,14.63,0,0,1-1.61-.46,1.62,1.62,0,0,1-1.15-.92l-.23-.46a12.69,12.69,0,0,1-.23-2.07,25,25,0,0,1,.23-3.9,32.32,32.32,0,0,1,.23-4.59,32.32,32.32,0,0,0,.23-4.59c.23-1.38.23-2.52.46-3.44,0-.92,0-1.38.23-1.38l-6-3.67L101.05,403c-.46.46-1.15.92-1.61,1.38a13.17,13.17,0,0,1-1.61.92c-.46.23-.69.23-1.15-.23-.23-.69-.46-1.15-.69-1.84a2.48,2.48,0,0,1,.69-1.61l17.67-11.93c2.52-1.84,4.82-3.44,6.66-4.82a48.32,48.32,0,0,0,5-3.9c1.61-1.15,2.75-2.07,4.13-3.21l3.44-2.75.46-.23.23-.23h0l.23.23h.23V375a3.74,3.74,0,0,1,.69,1.38,7.46,7.46,0,0,1,0,3.67,2.29,2.29,0,0,1-.92,1.15Zm-7.8,40.62a8.28,8.28,0,0,1,1.15-.92c.69-.69,1.61-1.38,2.75-2.3l.69-.69c.46-.23.69-.69,1.15-.92a5,5,0,0,0,1.15-.69c.46-.23.69,0,.92.23.23,0,.46.46.69.92a3.26,3.26,0,0,1,.46,1.38,2.91,2.91,0,0,1,.23,1.38v.92c-.69.46-1.61.69-2.52,1.38a19.14,19.14,0,0,0-2.75,1.84,19.14,19.14,0,0,0-2.75,1.84,13.12,13.12,0,0,0-1.84,1.61,6.18,6.18,0,0,0-1.84,3c-.23.92.23,1.61.92,2.52,1.84,1.61,5,2.3,9.64,1.61,4.13-.46,7.8-1.38,10.56-3.21a1.84,1.84,0,0,1,1.84.23,5.42,5.42,0,0,1,2.07,1.38l-1.61,1.61c-.46.23-.69.69-1.38,1.38a24.39,24.39,0,0,0-2.07,2.52,33.58,33.58,0,0,0-2.07,3,21.53,21.53,0,0,0-2.07,2.75,22.37,22.37,0,0,0-1.15,2.52,1.74,1.74,0,0,0,.23,1.61,3.55,3.55,0,0,1,.69,1.38c0,.23-.46.46-.92.46a10.1,10.1,0,0,1-2.3-.46,31.93,31.93,0,0,1-3-1.38,5.13,5.13,0,0,1,.69-2.3,17.12,17.12,0,0,1,1.61-2.75,19.14,19.14,0,0,1,1.84-2.75,15.44,15.44,0,0,0,1.61-2.52c.69-.69.92-1.38,1.38-1.84a2.29,2.29,0,0,0,.23-.92,30.42,30.42,0,0,1-10.33,1.15c-4.59-.23-7.8-1.15-9.41-2.75a4.05,4.05,0,0,1-1.61-3.9,10.07,10.07,0,0,1,2.52-4.13c.23-.46.69-.69,1.15-1.15s.92-.69,1.38-1.15l1.15-1.15c.46-.46.69-.69.92-.69Zm24.33,23.41,1.15-1.15a23,23,0,0,1,2.52-2.75,2.84,2.84,0,0,0,.46-.69c.46-.23.69-.69.92-.92.46-.46.92-.69,1.15-.92.46-.23.69-.23.92,0s.69.46.92.92a1.75,1.75,0,0,1,.46,1.15,3.26,3.26,0,0,1,.46,1.38c.23.46.23.69,0,.92-.46.46-1.38,1.15-2.07,1.84l-2.75,2.07-2.3,2.3c-.69.69-1.15,1.38-1.61,1.84a5.47,5.47,0,0,0-1.38,3.21,2.79,2.79,0,0,0,1.38,2.3c2.07,1.38,5.28,1.61,9.64.46,4.13-1.15,7.57-2.52,10.1-4.59.46-.46.92-.46,1.84-.23a4.28,4.28,0,0,1,2.3,1.15l-1.61,1.84a7.38,7.38,0,0,0-.92,1.61,24,24,0,0,0-1.84,2.52c-.46,1.15-1.15,2.07-1.61,3.21-.69,1.15-1.15,2.3-1.61,3.21a6,6,0,0,0-.69,2.52c-.23.92,0,1.38.23,1.61.69.69.92,1.15.92,1.38s-.23.46-.92.46a7.91,7.91,0,0,1-2.07-.23,16.08,16.08,0,0,1-3.21-.69,5,5,0,0,1,.23-2.52c.46-.92.69-1.84,1.15-2.75.46-1.15.92-2.07,1.38-3a15.09,15.09,0,0,0,1.38-2.75c.46-.92.92-1.61,1.15-2.07,0-.69.23-.92,0-1.15a32.54,32.54,0,0,1-10.1,2.75c-4.36.46-7.8,0-9.64-1.38a4.72,4.72,0,0,1-2.07-3.67,9.69,9.69,0,0,1,1.84-4.59,5,5,0,0,0,.92-1.15l1.38-1.38c.23-.46.69-.92.92-1.38a1.71,1.71,0,0,0,.69-.69ZM177,444.29c-.92-.46-1.84-.92-3-1.61a25.08,25.08,0,0,1-3.44-1.84c-1.15-.69-2.3-1.38-3.21-2.07-1.15-.69-2.07-1.38-3-1.84l-.69-.23a2.07,2.07,0,0,1-1.38-1.38,5.13,5.13,0,0,1-.69-2.3v-2.52a15.81,15.81,0,0,1,.69-1.84l.46-.23h.46c.23,0,.23.23.46.23.69.92,1.38,1.84,2.3,3a40,40,0,0,0,2.75,3.21l3.44,3.44a23.83,23.83,0,0,0,3.9,2.75l5,3.21c.23.46.46.46.23.69a9.94,9.94,0,0,1-1.15.23c-.69,0-1.15-.23-1.84-.23l-1.38-.69Z" transform="translate(-36.08 19.09)"/><path class="cls-50" d="M183.44,489.28,217,471.61l-8-20.2a13.12,13.12,0,0,0-2.52-3.67,41,41,0,0,0-3-3.21l.92-.69,3.44.92a11.81,11.81,0,0,1,5.74,3.67,22,22,0,0,1,3.67,6.89c.69,2.3,1.38,4.59,2.07,7.11a64.41,64.41,0,0,1,1.84,7.11c1.15-.69,2.3-1.15,3.44-1.84s2.3-1.15,3.44-1.84c1.61-.92,3.44-1.61,5-2.52a45.87,45.87,0,0,1,4.82-2.3q5.51-2.41,8.26-3.44l.69.23a4.8,4.8,0,0,1,1.38.92c.23.69.69,1.15.92,1.84a15.82,15.82,0,0,0,.69,1.84v1.38c-.23.46-.23.46-.69.23-.23,0-.46-.23-.92-.46a5.51,5.51,0,0,0-2.75,0,25.87,25.87,0,0,0-4.13.69c-1.61.46-3.21.92-5,1.61-1.61.46-3.21,1.15-5,1.84l-4.82,2.07a36.4,36.4,0,0,0-4.13,1.84c.69,2.52,1.38,5.28,2.3,8,.92,3,1.84,5.74,3,8.72,3.21,7.8,5.74,12.16,7.8,12.85.46.23.69.23.46.46a5.48,5.48,0,0,1-1.61.69c-.69,0-1.61.23-2.52.23a8.25,8.25,0,0,1-2.52-.46l-.92-.46a9.13,9.13,0,0,1-1.61-2.07c-.46-.92-.92-2.3-1.61-3.67-.69-1.61-1.15-3.21-1.84-5.28-.69-1.84-1.38-3.67-2.07-5.74s-1.15-3.9-1.84-6-1.15-3.9-1.84-5.51c-3.44,1.84-6.66,3.9-9.87,5.74-3,2.07-6,3.9-9,6-.46.46-1.15.92-1.84,1.61a10.79,10.79,0,0,0-2.75,2.07c-1.15.69-2.07,1.61-3.21,2.3-1.15.92-2.07,1.61-3,2.3s-1.61,1.15-2.3,1.61a9,9,0,0,1-1.38.46c0-.23-.23-.46-.46-.92s-.23-1.15-.46-1.84c0-.46-.23-1.15-.23-1.84s0-1.15.23-1.38Zm61.28,2.3c.23-.23.23-.69.46-1.61s.46-2.07.92-3.44c0-.23.23-.46.23-.92a66631046.21,66631046.21,0,0,0,.92-2.75,1.19,1.19,0,0,1,.92-.46c.23.23.69.23.92.46a4.8,4.8,0,0,1,1.38.92l.92.92c.23.46.46.69.46.92a26.92,26.92,0,0,0-1.15,2.52c-.46.92-.92,2.07-1.38,3-.23,1.15-.69,2.07-.92,3.21a14.26,14.26,0,0,1-.69,2.3c0,1.61,0,2.75.46,3.44.23.92,1.15,1.38,2.3,1.61,2.3.23,5.28-1.15,8.72-4.13a32.28,32.28,0,0,0,6.66-9,1.55,1.55,0,0,1,1.38-.92,8.61,8.61,0,0,1,2.52-.23l-.23,2.52c-.23.23-.23.92-.23,1.84a13.13,13.13,0,0,0-.23,3.21v3.44a19.59,19.59,0,0,0,0,3.67c.23.92.46,1.84.69,2.52s.46,1.15.92,1.15c.92.23,1.38.69,1.38.92.23.23,0,.46-.46.92a10.67,10.67,0,0,1-2.07.69,13.16,13.16,0,0,1-3.21.92,3.88,3.88,0,0,1-.69-2.3,13.55,13.55,0,0,1-.46-3.21c0-.92-.23-2.07-.23-3.21v-3a6.4,6.4,0,0,0-.23-2.3c0-.69,0-.92-.23-.92a45.32,45.32,0,0,1-7.57,7.11c-3.9,2.52-6.89,3.44-9.41,3.21a4.71,4.71,0,0,1-3.44-2.3,8.32,8.32,0,0,1-.46-4.82c0-.46.23-.92.23-1.61.23-.46.23-1.15.46-1.84a4.25,4.25,0,0,1,.46-1.61v-.92Zm65.64-5-6,20.43-.46.23c0,.23-.46-.46-1.15-1.38-.69-1.15-1.38-2.3-2.3-3.9s-1.84-3.21-2.75-5-1.84-3.44-2.52-5c-.69-1.38-1.15-2.52-1.61-3.21-.23-.92-.46-.92-.23-.46l-3.44,10.56a34.89,34.89,0,0,1-2.07,6,28.13,28.13,0,0,1-1.15,3c-1.61,3.67-3,5.51-4.13,5.74a2.91,2.91,0,0,1-1.38-.23,4,4,0,0,1-1.15-.92,5,5,0,0,1-.69-1.15,2.5,2.5,0,0,1-.23-1.15c-.23-.46,0-.69.23-.92l.92.23c.46.23,1.15-.23,1.84-.92s1.38-1.61,2.3-2.52c.69-1.15,1.61-2.3,2.3-3.67s1.15-2.52,1.61-3.67a5,5,0,0,0,.69-1.84c.23-1.15.69-2.3.92-3.67a17.2,17.2,0,0,0,1.15-3.67c.46-1.15.92-2.07,1.15-2.75l-.69-.69a4,4,0,0,0-1.15-.92,3.17,3.17,0,0,0-.69-.92s0-.23.46-.23a2.91,2.91,0,0,0,1.38-.23h3a1.72,1.72,0,0,1,1.15.23,11.92,11.92,0,0,0,.69,1.15,14.73,14.73,0,0,0,1.38,2.3c.46.92,1.15,1.84,1.61,3a25.08,25.08,0,0,1,1.84,3.44c.69,1.15,1.38,2.3,1.84,3.21a21.23,21.23,0,0,1,1.15,2.3,12.25,12.25,0,0,0,.92-2.52c.23-1.15.92-3,1.61-5.51a13.15,13.15,0,0,0,.92-3.21,7.74,7.74,0,0,1,.92-2.75,4.44,4.44,0,0,1,1.15-2.07,2.24,2.24,0,0,1,2.07-.92h.69s.23.46.92,1.61c.46.92,1.38,2.07,2.3,3.67s1.84,3.21,2.75,5c1.15,1.84,2.07,3.44,3,5,.92,1.38,1.61,2.75,2.3,3.67.69,1.15.92,1.61.92,1.61v.46l-.46.46a3.88,3.88,0,0,0-1.15.46l-1.38.69a3.17,3.17,0,0,0-.92.69l-.46.23c-.23,0-.46-.23-.92-1.15-.46-.69-1.15-1.84-1.84-3a24.48,24.48,0,0,0-2.07-4.36c-.69-1.38-1.38-3-2.07-4.36-.69-1.61-1.38-3-1.84-4.13a20.46,20.46,0,0,0-1.15-2.3ZM328.5,493a4.92,4.92,0,0,0-.23-1.38,31.43,31.43,0,0,0-.46-3.67,1.73,1.73,0,0,0-.23-.92v-1.38a1.46,1.46,0,0,1,0-1.38c0-.46.23-.69.46-.69a1,1,0,0,1,1.15,0,4.48,4.48,0,0,1,1.61.23c.46.23.69.46,1.15.46a3.17,3.17,0,0,1,.92.69,9.46,9.46,0,0,0-.23,2.75v3.44a15.15,15.15,0,0,0,.23,3.21c0,.92.23,1.84.23,2.52a7.26,7.26,0,0,0,1.61,3,2.37,2.37,0,0,0,2.75.46c2.3-.46,4.59-3,6.43-7.11,1.84-3.9,3-7.34,3-10.56a1.73,1.73,0,0,1,.92-1.61,6.87,6.87,0,0,1,2.3-.92l.69,2.3c0,.23.23.92.46,1.84s.69,1.84.92,3c.46,1.15.92,2.07,1.38,3.44.46,1.15.92,2.07,1.38,3a6.55,6.55,0,0,0,1.61,2.3q.69,1,1.38.69c.69,0,1.38,0,1.61.23a2.5,2.5,0,0,1-.23,1.15,10.36,10.36,0,0,1-1.61,1.61c-.69.46-1.61,1.15-2.75,1.84a6.34,6.34,0,0,1-1.38-1.84,17.12,17.12,0,0,1-1.61-2.75c-.46-.92-.92-2.07-1.38-3-.46-1.15-.92-2.07-1.15-2.75a8.26,8.26,0,0,0-1.15-2.07q-.34-1-.69-.69a26.49,26.49,0,0,1-4.36,9.41c-2.52,3.67-5,5.74-7.34,6.43a3.89,3.89,0,0,1-4.13-.92,10.91,10.91,0,0,1-2.3-4.36,4,4,0,0,0-.23-1.38c0-.69-.23-1.15-.23-1.84a4.48,4.48,0,0,1-.23-1.61,2.5,2.5,0,0,1-.23-1.15Zm46.82-21.8c.23-.92,1.38-1.61,2.75-2.3l.69,2.3c.23.23.46.92.92,1.61a7.76,7.76,0,0,0,1.38,2.75,14.63,14.63,0,0,0,1.84,3.21,34,34,0,0,0,1.84,3,18.76,18.76,0,0,0,1.84,2.07,3.55,3.55,0,0,0,1.38.69c.92-.23,1.38-.23,1.61,0,.23,0,.23.46,0,.92a7.52,7.52,0,0,1-1.38,1.84l-2.3,2.3a5.12,5.12,0,0,1-1.61-1.61,24,24,0,0,1-2.3-3.21q-5.85-8.61-6.2-8.26a51.05,51.05,0,0,1-3.21,7.11,13,13,0,0,1-2.52,3.21,4.69,4.69,0,0,1-2.3,1.61,3.8,3.8,0,0,1-4.13-.46,7.47,7.47,0,0,1-3-3.9c-.23-.46-.23-.92-.46-1.38a15.81,15.81,0,0,0-.69-1.84,3.32,3.32,0,0,0-.46-1.61,2.37,2.37,0,0,0-.23-.92c-.23-.46-.23-.92-.46-1.38a9.94,9.94,0,0,1-.23-1.15c0-.23.23-.69.23-.92.23-.23.23-.46.69-.69h.69a3.86,3.86,0,0,1,3,.92,5.84,5.84,0,0,0,.46,1.61c0,.46.23,1.15.23,1.84a5.05,5.05,0,0,1,.23,1.84c.23.46.23.69.46.92a5.24,5.24,0,0,0,1.84,2.75c.69.69,1.61.69,2.75.23a8.06,8.06,0,0,0,2.3-1.84,13,13,0,0,0,1.84-3,19.85,19.85,0,0,0,1.61-3.9c.23-1.38.69-3,.92-4.36Zm20,.69,5.51-4.82c1.84-1.38,3.44-3,5.28-4.59a4.24,4.24,0,0,0,1.61-2.07,2.44,2.44,0,0,0-.23-1.84l-.46-.92a3.5,3.5,0,0,0-2.75-1.61,6.6,6.6,0,0,0-4.36,1.15,9.78,9.78,0,0,0-2.52,2.75,18.3,18.3,0,0,0-1.84,3.67l-.69,4.13a22.74,22.74,0,0,0,.46,4.13Zm-3.44-.92a44.72,44.72,0,0,1,.46-5.74,21.79,21.79,0,0,1,2.07-4.82c0-.23.46-.69.92-1.15a11.5,11.5,0,0,1,1.61-1.84l2.07-2.07c.69-.46,1.61-1.15,2.3-1.61a8.42,8.42,0,0,1,4.59-1.84,3.12,3.12,0,0,1,3.44,1.38,6.08,6.08,0,0,0,1.15,1.38l1.15,1.15c.46.46.92.69,1.15,1.15a1.73,1.73,0,0,1,.23.92L396.2,473.44a9.88,9.88,0,0,0,6.2,3,13.57,13.57,0,0,0,7.11-2.3,20.75,20.75,0,0,0,2.52-2.3,42.42,42.42,0,0,0,3.21-3.21,42.42,42.42,0,0,1,3.21-3.21c1.15-1.15,2.07-1.84,2.75-2.52a2.07,2.07,0,0,1,1.15-.23q.69.34,0,1.38a16.74,16.74,0,0,1-2.07,2.52c-.92.92-2.07,2.07-3.21,3.44-1.38,1.15-2.75,2.3-3.9,3.21a39.9,39.9,0,0,1-3.44,3c-.92.69-1.61,1.38-2.07,1.61a37.13,37.13,0,0,1-4.13,2.3,13.61,13.61,0,0,1-3.9.92c-2.75.23-4.59-.46-6-2.52-1.15-1.61-1.61-4.13-1.84-7.57Zm31.44-17.44c-1.38-2.75-1.38-6.66,0-11.93a24,24,0,0,1,7.34-12.39,5,5,0,0,1,1.84-1.15,8.15,8.15,0,0,1,2.07-.92h2.07A4.8,4.8,0,0,1,438,428c.23.23.23.46.46.92,0,.23,0,.69-.23.69l-.69.23a4,4,0,0,0-1.38.23,5.75,5.75,0,0,0-1.61.92,9.3,9.3,0,0,0-2.07,1.15,11.5,11.5,0,0,0-1.84,1.61,14.82,14.82,0,0,0-5.28,7.57,10.41,10.41,0,0,0,2.3,9.87l.92.69a5.47,5.47,0,0,0,2.52,1.38,16.26,16.26,0,0,0,3.21-.23,11.63,11.63,0,0,0,3.44-1.61,37.38,37.38,0,0,0,3.9-2.52,46,46,0,0,0,3.21-3.67,21.73,21.73,0,0,0,2.07-3.9,20.5,20.5,0,0,1,1.15-3c.46-.69.69-1.15.92-1.15.23-.23.23-.23.46-.23h.23a2.06,2.06,0,0,1,.46,2.07,25.74,25.74,0,0,1-1.15,3l-2.07,3.44c-.92,1.15-1.84,2.52-2.75,3.67s-1.84,2.07-2.75,3.21a20.66,20.66,0,0,1-2.75,2.3,19.16,19.16,0,0,1-3.67,2.75,10.82,10.82,0,0,1-3.44,1.38,6.82,6.82,0,0,1-6.66-2.3.8.8,0,0,0-.23-.46c-.23-.23-.23-.46-.46-.69a3.3,3.3,0,0,0-.46-.69,3.88,3.88,0,0,0-.46-1.15Zm4.13-48.2,26.62,23a23.31,23.31,0,0,0,1.38-5.74,62.31,62.31,0,0,0,.23-6.66c-.23-2.3-.69-4.82-.92-7.11-.46-2.52-.92-5-1.15-7.34,0-.23.23-.23.69-.23a1.73,1.73,0,0,1,.92.23,1.75,1.75,0,0,1,1.15.46,5,5,0,0,1,1.15.69,3.3,3.3,0,0,1,1.38,2.3,21,21,0,0,1,.23,3.9,34.5,34.5,0,0,1-.46,4.59c-.23,1.38-.46,3-.69,4.36.46,0,.92-.23,1.84-.23a11.63,11.63,0,0,1,3-.46c.92-.23,2.07-.46,3-.69a7.91,7.91,0,0,1,2.07-.23c.69-.23,1.61-.23,2.3-.46l2.07-.69c.69-.23,1.38-.69,2.07-.92l1.38-1.38.46-.92.23.46a1.79,1.79,0,0,1,.92.92,5.84,5.84,0,0,1,.46,1.61,4.94,4.94,0,0,1,0,1.84,1.75,1.75,0,0,1-.46,1.15l-.46.46a5,5,0,0,1-1.84.69c-1.15.46-2.3.69-3.67,1.15-1.38.23-3,.69-4.59.92-1.61.46-3,.69-4.36,1.15q-2.07.34-3.44.69a6.42,6.42,0,0,1-1.38.23l-1.84,6.66c.69.46,1.15.69,1.84,1.15s1.38.69,2.07,1.15c.46.46.92.69,1.38,1.15a1,1,0,0,1,0,1.15,4.12,4.12,0,0,1-1.61,1.15,2,2,0,0,1-1.61,0L441,421.8c-2.52-1.84-4.59-3.44-6.43-4.82s-3.67-2.75-5.28-3.9l-4.13-2.75c-1.38-.92-2.52-1.61-3.67-2.52l-.46-.46h-.23v-.46l.23-.23h0c.23-.46.69-.69,1.15-1.15.46-.23,1.15-.46,1.61-.69a5.05,5.05,0,0,1,1.84-.23,1.41,1.41,0,0,1,1.38.23Zm42.69-4.13a8.28,8.28,0,0,0-1.15-.92c-.69-.46-1.84-1.15-3-2.07-.23-.23-.46-.23-.69-.46-.46-.23-.92-.69-1.38-.92l-.92-.92c-.23-.46-.23-.69,0-.92,0-.23.46-.69.69-.92.46-.23.69-.46,1.15-.69l1.38-.69c.46,0,.69-.23.92-.23a8.76,8.76,0,0,0,2.07,2.07,21.64,21.64,0,0,0,2.3,2.3,24.4,24.4,0,0,1,2.52,2.07,15.57,15.57,0,0,0,2.07,1.38,8.58,8.58,0,0,0,3.44,1.15,2.92,2.92,0,0,0,2.07-1.61c1.15-2.3.92-5.51-.69-9.87-1.61-3.9-3.44-7.11-6-9.41a2.67,2.67,0,0,1-.46-1.61,17.44,17.44,0,0,1,.92-2.52l2.07,1.38c.46,0,.92.46,1.84.69A15.28,15.28,0,0,0,482,379.8l3.44,1.38a27.84,27.84,0,0,0,3.21,1.15,17,17,0,0,0,2.75.46,1.39,1.39,0,0,0,1.38-.69c.46-.46.92-.92,1.15-.92.46,0,.69.23.69.92a5.09,5.09,0,0,1,.23,2.07c-.23.92-.23,2.07-.46,3.44a10.29,10.29,0,0,1-2.52-.23c-.92-.23-1.84-.46-3-.69-.92-.46-2.07-.69-3.21-1.15-.92-.23-1.84-.69-2.75-.92a5.13,5.13,0,0,0-2.3-.69c-.46-.23-.69-.23-.92,0a30.34,30.34,0,0,1,3.9,9.64c.92,4.36.92,7.57-.23,9.87a4.32,4.32,0,0,1-3.44,2.3,7.21,7.21,0,0,1-4.59-1.15,4.8,4.8,0,0,1-1.38-.92c-.46-.23-1.15-.69-1.61-.92a4.8,4.8,0,0,0-1.38-.92c-.46-.46-.69-.46-.92-.69Zm16.52-29.84q0-.34-1.38-.69c-.69-.46-1.84-.92-3.21-1.84a2.31,2.31,0,0,0-.69-.23l-1.38-.69c-.46-.23-.69-.69-1.15-.92-.23-.23-.23-.46-.23-.92a3.17,3.17,0,0,0,.69-.92,5,5,0,0,1,1.15-.92c.46-.23.69-.46,1.15-.69s.69-.46.92-.46a20.07,20.07,0,0,0,2.3,1.84,8.25,8.25,0,0,0,2.75,1.84,24,24,0,0,1,2.52,1.84c.92.46,1.84.69,2.3.92a5.14,5.14,0,0,0,3.44.69,3.09,3.09,0,0,0,2.07-2.07c.92-2.3.23-5.28-2.07-9.41a33.92,33.92,0,0,0-7.11-8.49,1.79,1.79,0,0,1-.69-1.61,5.38,5.38,0,0,1,.46-2.52l2.07.92a9.45,9.45,0,0,1,1.84.69,14.84,14.84,0,0,1,3,.92,28.55,28.55,0,0,1,3.67.92,17.72,17.72,0,0,0,3.44.46,12.13,12.13,0,0,0,2.75.23,2.11,2.11,0,0,0,1.38-.92c.23-.69.69-1.15.92-1.15.46,0,.69.23.92.69,0,.69.23,1.38.23,2.3a7.56,7.56,0,0,1,0,3.21,3.56,3.56,0,0,1-2.3.23,13.09,13.09,0,0,1-3-.23l-3.44-.69c-.92-.23-2.07-.46-3-.69-.92,0-1.61-.23-2.3-.23-.46,0-.92,0-.92.23a28,28,0,0,1,5.28,9c1.61,4.13,1.84,7.34.92,9.87a4.48,4.48,0,0,1-3,2.75,9.45,9.45,0,0,1-4.82-.69,9,9,0,0,1-1.38-.46,5.75,5.75,0,0,0-1.61-.92,11.19,11.19,0,0,1-1.61-.69c-.46-.23-.69-.46-.92-.46Zm-8-25.25-.69,3.44c-.23,1.15-.69,2.52-.92,3.67a35.4,35.4,0,0,0-1.15,3.9c-.46,1.15-.69,2.3-1.15,3.21V361a2.83,2.83,0,0,1-.92,1.84,9.3,9.3,0,0,1-2.07,1.15,12.26,12.26,0,0,1-4.36.46l-.46-.46v-.69c.69-.92,1.61-2.07,2.3-3a35,35,0,0,0,2.52-3.67,37.14,37.14,0,0,0,2.3-4.13,38.27,38.27,0,0,0,1.84-4.59l1.84-5.74c0-.46.23-.46.46-.23s.23.46.46,1.15c0,.46.23.92.23,1.61s0,1.15-.23,1.38Z" transform="translate(-36.08 19.09)"/><path class="cls-50" d="M483,289.14l18.13,12.16a47.69,47.69,0,0,1,4.59,3.44c1.38,1.15,3,2.52,4.59,3.9a42.23,42.23,0,0,1,5.74,4.82,38.09,38.09,0,0,1,4.36,4.13c3,3,4.36,5.51,4.36,6.89v.46a13.16,13.16,0,0,1-.92,1.61,10,10,0,0,1-1.61,1.38,5.75,5.75,0,0,1-1.61.92,5.84,5.84,0,0,1-1.61.46c-.46-.23-.46-.23-.46-.69a1.66,1.66,0,0,1,.92-1.38l.23-.92a5.19,5.19,0,0,0-.46-3,27.52,27.52,0,0,0-2.52-3.9c-1.15-1.38-2.52-3-3.9-4.59l-4.36-4.36c-1.61-1.38-3-2.75-4.36-3.9a29.81,29.81,0,0,0-3.21-2.75l-9.64-6.89a95.15,95.15,0,0,1-9.87-6.89,9.59,9.59,0,0,0-3.44,2.52A13.6,13.6,0,0,0,477,294L476.3,296a13.17,13.17,0,0,0-.92,1.61,2.84,2.84,0,0,1-.46.69c-.69,0-.92-.69-.69-2.52a17.91,17.91,0,0,1,.69-5.51,7,7,0,0,1,1.84-3.67,9.36,9.36,0,0,1,3.67-2.52,54,54,0,0,1,6.66-2.75c3-1.38,6-2.52,9-3.67s6-2.3,9-3.67q10-4.13,11.71-6.2l.69-.69.46-.46a.71.71,0,0,1,.46.23,1.26,1.26,0,0,1,1.15.46,3.53,3.53,0,0,1,.92,1.38,4.08,4.08,0,0,1,.23,2.52,2.24,2.24,0,0,1-.92,2.07,9.64,9.64,0,0,1-2.75,1.61,42.43,42.43,0,0,1-5.28,2.07c-2.07.69-4.82,1.84-8,3-7.11,3-14,6-20.66,9.18Zm24.56-27.54a6.06,6.06,0,0,0-1.61.23h-7.34q-.69-.34-.69-.69a2.07,2.07,0,0,1,.23-1.15,3.26,3.26,0,0,1,.46-1.38l.69-1.38.69-.69a8.56,8.56,0,0,0,2.75.46c1.15.23,2.07.23,3.21.46h5.74a7.28,7.28,0,0,0,3.21-1.15,3.66,3.66,0,0,0,.92-2.75c-.46-2.52-2.52-4.82-6.43-7.11A27,27,0,0,0,499,242.32a1.45,1.45,0,0,1-1.38-1.15,6.87,6.87,0,0,1-.92-2.3l2.52-.46a7.38,7.38,0,0,0,1.84-.23c.92-.23,1.84-.46,3-.69a28.55,28.55,0,0,0,3.67-.92,13.27,13.27,0,0,0,3.21-1.15,26.92,26.92,0,0,0,2.52-1.15,2,2,0,0,0,.69-1.38,2.19,2.19,0,0,1,.46-1.61c.23-.23.46,0,.92.23a6.34,6.34,0,0,1,1.38,1.84,10.85,10.85,0,0,1,1.61,2.75,2.85,2.85,0,0,1-1.84,1.38c-.92.46-1.84.92-3,1.38-.92.23-2.07.69-3.21.92a12.94,12.94,0,0,1-2.75.92,12.37,12.37,0,0,1-2.3.69c-.46.46-.69.46-.69.69a31.53,31.53,0,0,1,9,5.51c3.44,2.75,5.28,5.51,5.74,8a4,4,0,0,1-1.38,3.9,10.65,10.65,0,0,1-4.59,1.84H512.1c-.69,0-1.15.23-1.84.23h-2.75ZM502,201a4,4,0,0,0-1.38-.23,7.1,7.1,0,0,0-1.84-.46,1.72,1.72,0,0,1-1.15-.23q-1-.69-.69-.69c.23-.23.92-.23,1.61-.23a15.23,15.23,0,0,1,3,.23c.92,0,2.07.23,3.21.23,1.15.23,2.07.23,3,.46.92,0,1.61.23,2.07.23,4.59.92,7.34,2.07,7.57,3,.23.46,0,.69,0,1.15a111886.5,111886.5,0,0,1-1.84,2.3,3.17,3.17,0,0,0-.92.69l-.69-.23.23-.23v-.46a.84.84,0,0,0,.23-.69c0-.23.23-.23,0-.46a4,4,0,0,0-2.07-1.61,17.7,17.7,0,0,0-4.59-1.61c-.23,0-.69.46-1.38.92a25,25,0,0,1-2.52,1.38,24,24,0,0,1-2.52,1.84c-.92.69-1.84,1.15-2.52,1.61a7.52,7.52,0,0,1-1.84,1.38l-.69.69a29.9,29.9,0,0,1,9.87,3.44c3.9,2.07,6.43,4.36,7.11,6.66a4.32,4.32,0,0,1-.23,4.13,9.34,9.34,0,0,1-4.13,2.75,3.26,3.26,0,0,0-1.38.46,5.4,5.4,0,0,0-1.84.46,14.63,14.63,0,0,0-1.61.46,2.37,2.37,0,0,0-.92.23,9.36,9.36,0,0,0-1.61.46c-.92,0-2.07.46-3.67.69a2.31,2.31,0,0,1-.69.23c-.46.23-.92.23-1.38.46h-1.38a1.19,1.19,0,0,1-.92-.46c0-.23-.23-.69,0-1.15V227.4c.23-.46.23-.92.46-1.38s.46-.69.46-.92h3c.92-.23,2.07-.23,3.21-.46s2.07-.23,3.21-.46a14.26,14.26,0,0,0,2.3-.69,5.12,5.12,0,0,0,3-1.84c.69-.69.69-1.61.23-2.75-.92-2.3-3.44-4.13-7.8-5.74a27.34,27.34,0,0,0-10.79-1.84,2.08,2.08,0,0,1-1.61-.69,4.76,4.76,0,0,1-1.38-2.3l2.52-.69c.92-.46,2.07-.92,3.21-1.38,1.15-.69,2.07-1.15,3.21-1.84a21,21,0,0,0,3-1.84A19.85,19.85,0,0,0,502,201Zm-10.33-11.25c-1.38-2.07-2.75-3.9-4.13-6-1.38-1.84-3-3.9-4.36-5.74a3.07,3.07,0,0,0-1.84-1.61,1.39,1.39,0,0,0-1.84,0l-.92.46a3.55,3.55,0,0,0-1.84,2.52c-.46,1.15,0,2.52.92,4.36a8.66,8.66,0,0,0,2.3,2.75,11.64,11.64,0,0,0,3.67,2.07,19.39,19.39,0,0,0,3.9,1.15ZM490.53,193a13.87,13.87,0,0,1-5.51-1.15,15.37,15.37,0,0,1-4.82-2.3c-.23,0-.69-.46-1.15-.92a13.12,13.12,0,0,1-1.61-1.84,20.07,20.07,0,0,1-1.84-2.3c-.46-.69-.92-1.61-1.38-2.3a16.87,16.87,0,0,1-1.61-4.82,3.41,3.41,0,0,1,1.84-3.21,163596.65,163596.65,0,0,0,2.75-2.3,5,5,0,0,0,1.15-.92c.46-.23.69-.23.92,0l14.23,17.9a8.62,8.62,0,0,0,3.21-5.74,10.67,10.67,0,0,0-1.61-7.57,11.19,11.19,0,0,0-1.84-2.75,41,41,0,0,1-3-3.21c-1.15-1.38-2.07-2.52-3-3.67s-1.61-2.07-2.3-3V162c.23-.46.46-.46,1.15,0a10.78,10.78,0,0,1,2.52,2.3,28.85,28.85,0,0,1,3,3.67,44.13,44.13,0,0,1,3,3.9,26.56,26.56,0,0,1,2.52,3.67,14.48,14.48,0,0,1,1.61,2.3c.69,1.61,1.38,3,1.84,4.36a12.73,12.73,0,0,1,.69,3.9c0,2.75-.92,4.59-3,5.74a15.14,15.14,0,0,1-7.8,1.15Zm-16.75-31-1.38.69c-.69.46-1.84.92-3.21,1.84a2.84,2.84,0,0,1-.69.46c-.46.23-.69.46-1.15.69s-.92.23-1.38.46c-.46,0-.69,0-.92-.23-.23-.46-.23-.69-.46-1.15,0-.46-.23-.92-.23-1.38V162a2.29,2.29,0,0,0,.23-.92c.92-.23,1.84-.69,2.75-.92,1.15-.46,2.07-.92,3.21-1.38l2.75-1.38a20.18,20.18,0,0,0,2.3-1.38,6,6,0,0,0,2.3-2.52,2.73,2.73,0,0,0-.69-2.52q-2.07-3.1-9-3.44a26.85,26.85,0,0,0-11,1.38,3.09,3.09,0,0,1-1.84-.46,6.93,6.93,0,0,1-1.84-1.84l2.07-1.38a16.91,16.91,0,0,0,1.38-1.15,16.74,16.74,0,0,0,2.52-2.07c.92-.69,1.61-1.61,2.52-2.3a27.51,27.51,0,0,0,2.52-2.75,12.61,12.61,0,0,0,1.61-2.07,1.94,1.94,0,0,0,0-1.61,2.83,2.83,0,0,1-.46-1.61c.23-.23.46-.23,1.15-.23.46.23,1.15.46,2.07.92.69.46,1.61,1.15,2.75,1.84a4.69,4.69,0,0,1-1.15,2.07,16.74,16.74,0,0,1-2.07,2.52,21.64,21.64,0,0,1-2.3,2.3,20.69,20.69,0,0,1-2.07,2.3,10.6,10.6,0,0,0-1.61,1.61c-.23.46-.46.69-.23.92a31.81,31.81,0,0,1,10.33.46c4.36.92,7.34,2.52,8.72,4.59a3.18,3.18,0,0,1,.69,3.9,7.8,7.8,0,0,1-3,3.9c-.46,0-.69.46-1.38.69a3.7,3.7,0,0,1-1.61.92,4.8,4.8,0,0,1-1.38.92,3.17,3.17,0,0,0-.92.69Zm-25.48-7.11,2.52,2.52c.69.92,1.61,1.84,2.52,3a15.8,15.8,0,0,1,2.52,3c.92.92,1.61,1.84,2.3,2.52l.46.46a2.09,2.09,0,0,1,.92,1.84,3.91,3.91,0,0,1,0,2.3,6.87,6.87,0,0,1-.92,2.3,4.12,4.12,0,0,1-1.15,1.61h-.92c0-.23-.23-.23-.23-.46a26.71,26.71,0,0,1-1.38-3.44,30.65,30.65,0,0,0-1.61-4.13,37.13,37.13,0,0,0-2.3-4.13,15.08,15.08,0,0,0-2.75-3.9l-3.67-4.59q-.69-.69,0-.69a3.07,3.07,0,0,1,1.15.23l1.38.69a6.28,6.28,0,0,1,1.15.92Z" transform="translate(-36.08 19.09)"/><path class="cls-51" d="M209.15,400.69V364h3.67v36.72Zm35.34-34.2H223.84v-2.3h23.41a13.89,13.89,0,0,1,5.51.92,10.88,10.88,0,0,1,4.13,2.75,5.63,5.63,0,0,1,1.38,3.67c0,3.21-1.84,5.28-6,6.66a17.69,17.69,0,0,1,6.66,4.36,9.39,9.39,0,0,1,2.52,6,9.19,9.19,0,0,1-2.52,6c-1.38,2.07-3.67,3.44-6.2,4.59a22,22,0,0,1-8.72,1.84h-20.2v-2.3h19.74a19,19,0,0,0,7.34-1.38,12.83,12.83,0,0,0,5.28-3.67,8.53,8.53,0,0,0,1.84-5,7.53,7.53,0,0,0-2.07-5,14,14,0,0,0-5-3.44,20.59,20.59,0,0,0-7.8-1.38h-19v-2.07h21.57c6.2,0,9.18-1.61,9.41-5,0-1.84-1.15-3-3.21-3.9a17.66,17.66,0,0,0-7.34-1.15Zm56.46-3A36.85,36.85,0,0,1,315.41,366a24.09,24.09,0,0,1,10.33,6.89,12.84,12.84,0,0,1,3.9,9.41,13.2,13.2,0,0,1-3.9,9.41,24.09,24.09,0,0,1-10.33,6.89,42,42,0,0,1-28.69,0,24.91,24.91,0,0,1-10.56-6.89c-2.52-3-3.9-6-3.9-9.41a13.8,13.8,0,0,1,3.9-9.41A24.91,24.91,0,0,1,286.72,366,36.46,36.46,0,0,1,301,363.51Zm0,2.07a37.38,37.38,0,0,0-12.62,2.3,24.88,24.88,0,0,0-9.18,6.2,12.59,12.59,0,0,0-3.44,8.49,12.05,12.05,0,0,0,3.44,8.26,24.88,24.88,0,0,0,9.18,6.2,35.86,35.86,0,0,0,25.25,0,24.88,24.88,0,0,0,9.18-6.2,12.05,12.05,0,0,0,3.44-8.26,12.59,12.59,0,0,0-3.44-8.49,24.88,24.88,0,0,0-9.18-6.2,37.38,37.38,0,0,0-12.62-2.3Zm60.36.92H340.66v-2.3h23.41a13.89,13.89,0,0,1,5.51.92,9.34,9.34,0,0,1,4.13,2.75,5.91,5.91,0,0,1,1.61,3.67c0,3.21-2.07,5.28-6.2,6.66a17.69,17.69,0,0,1,6.66,4.36,9.39,9.39,0,0,1,2.52,6,10.21,10.21,0,0,1-2.3,6,15,15,0,0,1-6.43,4.59,22,22,0,0,1-8.72,1.84h-20v-2.3H360.4a18.23,18.23,0,0,0,7.34-1.38,12.83,12.83,0,0,0,5.28-3.67,7.86,7.86,0,0,0,0-10.1,15.05,15.05,0,0,0-5.28-3.44,20.59,20.59,0,0,0-7.8-1.38h-19v-2.07h21.8c6,0,9.18-1.61,9.18-5,0-1.84-.92-3-3-3.9a18.81,18.81,0,0,0-7.57-1.15Z" transform="translate(-36.08 19.09)"/></svg>