<?xml version="1.0" encoding="iso-8859-1"?>
<!-- Generator: Adobe Illustrator 19.0.0, SVG Export Plug-In . SVG Version: 6.00 Build 0)  -->
<svg version="1.1" id="Layer_1" xmlns="http://www.w3.org/2000/svg" xmlns:xlink="http://www.w3.org/1999/xlink" x="0px" y="0px"
	 viewBox="0 0 511.999 511.999" style="enable-background:new 0 0 511.999 511.999;" xml:space="preserve">
<path style="fill:#89BBE4;" d="M457.174,427.118L326.97,253.319V68.294h-141.94v185.025l-130.205,173.8
	c-18.703,24.964-0.89,60.566,30.303,60.566h341.744C458.064,487.684,475.877,452.083,457.174,427.118z"/>
<path style="fill:#FB7686;" d="M457.174,427.118L326.97,253.319v-39.045h-141.94v39.045L54.825,427.118
	c-18.703,24.964-0.89,60.566,30.303,60.566h341.744C458.064,487.685,475.877,452.083,457.174,427.118z"/>
<g>
	<circle style="fill:#FFFFFF;" cx="191.176" cy="315.491" r="9.021"/>
	<circle style="fill:#FFFFFF;" cx="305.922" cy="281.9" r="9.022"/>
	<circle style="fill:#FFFFFF;" cx="268.447" cy="335.947" r="9.021"/>
	<circle style="fill:#FFFFFF;" cx="312.33" cy="447.575" r="9.022"/>
	<circle style="fill:#FFFFFF;" cx="211.622" cy="429.535" r="9.021"/>
	<path style="opacity:0.1;fill:#FFFFFF;enable-background:new    ;" d="M326.97,253.319v-23.109L71.838,485.342
		c4.064,1.501,8.519,2.343,13.289,2.343h138.325l159.559-159.56L326.97,253.319z"/>
</g>
<g>
	<path style="fill:#145587;" d="M342.944,24.314c12.144,0,21.989,9.845,21.989,21.989c0,12.145-9.845,21.99-21.989,21.99H169.054
		c-12.144,0-21.989-9.845-21.989-21.99c0-12.144,9.845-21.989,21.989-21.989C169.054,24.314,342.944,24.314,342.944,24.314z"/>
	<rect x="185.024" y="68.298" style="opacity:0.3;fill:#145587;enable-background:new    ;" width="141.94" height="27.607"/>
</g>
<path d="M465.419,301.732c-2.156-1.614-4.385-3.228-6.676-4.843c40.751-28.721,58.659-55.533,51.841-77.836
	c-12.27-40.13-97.048-41.035-175.633-28.1V76.276h7.993c16.526,0,29.972-13.446,29.972-29.973c0-16.526-13.446-29.972-29.972-29.972
	H169.054c-16.526,0-29.972,13.446-29.972,29.972c0,16.527,13.446,29.973,29.972,29.973h7.993v114.677
	c-78.583-12.935-163.362-12.031-175.632,28.1c-6.818,22.302,11.089,49.114,51.841,77.835c-2.289,1.615-4.518,3.229-6.674,4.843
	c-35.93,26.881-51.547,52.12-45.166,72.991c5.381,17.599,25.095,28.915,57.661,33.41l-10.638,14.2
	c-10.477,13.983-12.128,32.377-4.311,48.003c7.819,15.626,23.528,25.332,41,25.332h341.744c17.472,0,33.183-9.707,41-25.332
	c7.818-15.626,6.167-34.018-4.311-48.003l-10.639-14.201c32.563-4.496,52.281-15.811,57.662-33.409
	C516.965,353.85,501.348,328.612,465.419,301.732z M445.847,200.873c28.37,3.183,45.939,11.297,49.47,22.847
	c4.678,15.303-14.008,38.682-50.872,63.621c-29.666-18.823-67.522-37.262-109.494-53.225v-26.972
	C378.39,199.774,416.625,197.596,445.847,200.873z M335.543,251.451c37.674,14.675,69.196,30.256,94.051,45.415
	c-12.644,7.708-26.917,15.484-42.689,23.144L335.543,251.451z M422.62,394.307c-35.887,0.612-82.953-4.817-136.686-17.722
	c34.262-10.699,66.772-23.117,96.009-36.575L422.62,394.307z M169.054,60.311c-7.724,0-14.007-6.284-14.007-14.008
	c0-7.723,6.283-14.007,14.007-14.007h173.891c7.724,0,14.007,6.284,14.007,14.007c0,7.724-6.283,14.008-14.007,14.008H169.054z
	 M191.418,258.105c1.036-1.38,1.594-3.06,1.594-4.786V76.276h125.974v34.611h-47.35c-4.41,0-7.983,3.574-7.983,7.983
	c0,4.408,3.573,7.983,7.983,7.983h47.35v36.548h-47.35c-4.41,0-7.983,3.574-7.983,7.983c0,4.408,3.573,7.983,7.983,7.983h47.35
	v73.952c0,1.726,0.559,3.405,1.594,4.786l51.568,68.835c-28.112,12.775-60.333,25.058-95.97,35.953
	c-6.805,2.081-13.532,4.047-20.18,5.906c-6.648-1.859-13.374-3.826-20.18-5.906c-35.636-10.896-67.858-23.178-95.97-35.953
	L191.418,258.105z M130.056,340.011c29.236,13.458,61.747,25.876,96.009,36.574c-53.732,12.904-100.798,18.334-136.686,17.722
	L130.056,340.011z M125.092,320.01c-15.77-7.66-30.044-15.436-42.688-23.144c24.857-15.16,56.377-30.74,94.051-45.415
	L125.092,320.01z M16.681,223.721c3.531-11.55,21.101-19.665,49.47-22.847c29.222-3.278,67.459-1.101,110.894,6.27v26.972
	c-41.972,15.964-79.828,34.404-109.494,53.225C30.69,262.403,12.004,239.023,16.681,223.721z M16.681,370.054
	c-4.516-14.772,13.301-38.18,50.841-63.633c14.333,9.112,30.393,18.032,47.825,26.597l-45.171,60.295
	C39.654,390.546,20.444,382.36,16.681,370.054z M453.594,463.191c-5.172,10.338-15.163,16.511-26.722,16.511H85.127
	c-11.56,0-21.551-6.172-26.722-16.511c-5.173-10.338-4.123-22.034,2.809-31.287l16.5-22.028c5.448,0.3,11.152,0.46,17.138,0.46
	c0.826,0,1.664-0.003,2.502-0.009c45.207-0.312,100.773-9.104,158.646-24.964c57.873,15.86,113.439,24.652,158.646,24.964
	c0.841,0.005,1.672,0.009,2.502,0.009c5.986,0,11.689-0.16,17.136-0.46l16.503,22.028
	C457.717,441.157,458.768,452.852,453.594,463.191z M495.318,370.054c-3.762,12.305-22.974,20.492-53.495,23.26l-45.171-60.295
	c17.432-8.565,33.492-17.486,47.825-26.597C482.016,331.874,499.834,355.281,495.318,370.054z"/>
<g>
</g>
<g>
</g>
<g>
</g>
<g>
</g>
<g>
</g>
<g>
</g>
<g>
</g>
<g>
</g>
<g>
</g>
<g>
</g>
<g>
</g>
<g>
</g>
<g>
</g>
<g>
</g>
<g>
</g>
</svg>
