<?xml version="1.0" encoding="utf-8"?>
<!-- Generator: Adobe Illustrator 19.0.0, SVG Export Plug-In . SVG Version: 6.00 Build 0)  -->
<svg version="1.1" id="Layer_1" xmlns="http://www.w3.org/2000/svg" xmlns:xlink="http://www.w3.org/1999/xlink" x="0px" y="0px"
	 viewBox="0 0 195.6 195.6" style="enable-background:new 0 0 195.6 195.6;" xml:space="preserve">
<style type="text/css">
	.st0{fill:#EDF0F1;stroke:#2C3E50;stroke-width:1.4173;stroke-miterlimit:10;}
	.st1{clip-path:url(#XMLID_166_);fill:#E13F2D;}
	.st2{clip-path:url(#XMLID_167_);fill:#E14132;}
	.st3{clip-path:url(#XMLID_168_);fill:#E14536;}
	.st4{clip-path:url(#XMLID_169_);fill:#E14A3B;}
	.st5{clip-path:url(#XMLID_170_);fill:#E24E40;}
	.st6{clip-path:url(#XMLID_171_);fill:#E35244;}
	.st7{clip-path:url(#XMLID_172_);fill:#E35549;}
	.st8{clip-path:url(#XMLID_173_);fill:#E35B4F;}
	.st9{clip-path:url(#XMLID_174_);fill:#E45F53;}
	.st10{clip-path:url(#XMLID_175_);fill:#E76458;}
	.st11{clip-path:url(#XMLID_176_);fill:#E8675D;}
	.st12{clip-path:url(#XMLID_177_);fill:#E96B61;}
	.st13{clip-path:url(#XMLID_178_);fill:#E86F65;}
	.st14{clip-path:url(#XMLID_179_);fill:#E97369;}
	.st15{clip-path:url(#XMLID_180_);fill:#E9776E;}
	.st16{clip-path:url(#XMLID_181_);fill:#E97C73;}
	.st17{clip-path:url(#XMLID_182_);fill:#E98077;}
	.st18{clip-path:url(#XMLID_183_);fill:#EA847C;}
	.st19{clip-path:url(#XMLID_184_);fill:#EB8980;}
	.st20{fill:#E14535;}
	.st21{clip-path:url(#XMLID_187_);fill:#E14535;}
	.st22{clip-path:url(#XMLID_188_);fill:#ED938C;}
	.st23{clip-path:url(#XMLID_191_);fill:#ED9690;}
	.st24{clip-path:url(#XMLID_192_);fill:#EE9A95;}
	.st25{clip-path:url(#XMLID_196_);fill:#EF9E9A;}
	.st26{clip-path:url(#XMLID_197_);fill:#EFA39E;}
	.st27{clip-path:url(#XMLID_201_);fill:#E14535;}
	.st28{clip-path:url(#XMLID_202_);fill:#F1ABA6;}
	.st29{clip-path:url(#XMLID_205_);fill:#F1B0AA;}
	.st30{clip-path:url(#XMLID_206_);fill:#F2B4AF;}
	.st31{clip-path:url(#XMLID_209_);fill:#F1B7B3;}
	.st32{clip-path:url(#XMLID_210_);fill:#F1BBB8;}
	.st33{clip-path:url(#XMLID_213_);fill:#F4C1BD;}
	.st34{clip-path:url(#XMLID_214_);fill:#E14535;}
	.st35{clip-path:url(#XMLID_217_);fill:#F3CBC7;}
	.st36{clip-path:url(#XMLID_218_);fill:#F6CFCC;}
	.st37{clip-path:url(#XMLID_221_);fill:#F5D2D0;}
	.st38{clip-path:url(#XMLID_222_);fill:#F5D7D3;}
	.st39{clip-path:url(#XMLID_225_);fill:#F7DBD8;}
	.st40{clip-path:url(#XMLID_226_);fill:#F7DFDC;}
	.st41{clip-path:url(#XMLID_229_);fill:#F7E3E0;}
	.st42{clip-path:url(#XMLID_230_);fill:#F7E6E4;}
	.st43{clip-path:url(#XMLID_233_);fill:#E14535;}
	.st44{fill:#2D3F50;}
	.st45{clip-path:url(#XMLID_234_);fill:#2D3F50;}
	.st46{clip-path:url(#XMLID_238_);fill:#FFF6F5;}
	.st47{fill:none;stroke:#2C3E50;stroke-width:1.4173;stroke-miterlimit:10;}
	.st48{fill:#EDF0F1;stroke:#FFFFFF;stroke-width:0.5669;stroke-miterlimit:10;}
	.st49{fill:#171818;}
	.st50{fill:#EDF0F1;stroke:#FFFFFF;stroke-width:0.1984;stroke-miterlimit:10;}
</style>
<g id="XMLID_1_">
	<path id="XMLID_135_" class="st0" d="M97.8,0c54,0,97.9,43.8,97.9,97.8c0,54-43.8,97.9-97.9,97.9C43.8,195.6,0,151.8,0,97.8
		C0,43.8,43.8,0,97.8,0L97.8,0z"/>
	<g id="XMLID_362_">
		<g id="XMLID_363_">
			<defs>
				<path id="XMLID_134_" d="M143.8,36.8c-0.1-1.4,0-8.9,0.2-12c-76.5,1.1-106.6,37.4-106.6,76c-0.2,38.2,32.9,57.5,61.9,57.8
					c28.9-0.3,61.8-19.6,61.8-57.9c0-39.6-41-51.9-53.2-49C112.7,47,132.1,38.8,143.8,36.8L143.8,36.8z"/>
			</defs>
			<clipPath id="XMLID_166_">
				<use xlink:href="#XMLID_134_"  style="overflow:visible;"/>
			</clipPath>
			<polygon id="XMLID_133_" class="st1" points="128.5,195.6 2.5,122.8 6,116.6 132.1,189.4 			"/>
		</g>
	</g>
	<g id="XMLID_358_">
		<g id="XMLID_359_">
			<defs>
				<path id="XMLID_132_" d="M143.8,36.8c-0.1-1.4,0-8.9,0.2-12c-76.5,1.1-106.6,37.4-106.6,76c-0.2,38.2,32.9,57.5,61.9,57.8
					c28.9-0.3,61.8-19.6,61.8-57.9c0-39.6-41-51.9-53.2-49C112.7,47,132.1,38.8,143.8,36.8L143.8,36.8z"/>
			</defs>
			<clipPath id="XMLID_167_">
				<use xlink:href="#XMLID_132_"  style="overflow:visible;"/>
			</clipPath>
			<polygon id="XMLID_131_" class="st2" points="130.3,192.5 4.3,119.7 7.8,113.5 133.9,186.3 			"/>
		</g>
	</g>
	<g id="XMLID_354_">
		<g id="XMLID_355_">
			<defs>
				<path id="XMLID_130_" d="M143.8,36.8c-0.1-1.4,0-8.9,0.2-12c-76.5,1.1-106.6,37.4-106.6,76c-0.2,38.2,32.9,57.5,61.9,57.8
					c28.9-0.3,61.8-19.6,61.8-57.9c0-39.6-41-51.9-53.2-49C112.7,47,132.1,38.8,143.8,36.8L143.8,36.8z"/>
			</defs>
			<clipPath id="XMLID_168_">
				<use xlink:href="#XMLID_130_"  style="overflow:visible;"/>
			</clipPath>
			<polygon id="XMLID_129_" class="st3" points="132.1,189.4 6,116.6 9.6,110.4 135.7,183.1 			"/>
		</g>
	</g>
	<g id="XMLID_350_">
		<g id="XMLID_351_">
			<defs>
				<path id="XMLID_128_" d="M143.8,36.8c-0.1-1.4,0-8.9,0.2-12c-76.5,1.1-106.6,37.4-106.6,76c-0.2,38.2,32.9,57.5,61.9,57.8
					c28.9-0.3,61.8-19.6,61.8-57.9c0-39.6-41-51.9-53.2-49C112.7,47,132.1,38.8,143.8,36.8L143.8,36.8z"/>
			</defs>
			<clipPath id="XMLID_169_">
				<use xlink:href="#XMLID_128_"  style="overflow:visible;"/>
			</clipPath>
			<polygon id="XMLID_127_" class="st4" points="133.9,186.3 7.8,113.5 11.4,107.3 137.4,180 			"/>
		</g>
	</g>
	<g id="XMLID_346_">
		<g id="XMLID_347_">
			<defs>
				<path id="XMLID_126_" d="M143.8,36.8c-0.1-1.4,0-8.9,0.2-12c-76.5,1.1-106.6,37.4-106.6,76c-0.2,38.2,32.9,57.5,61.9,57.8
					c28.9-0.3,61.8-19.6,61.8-57.9c0-39.6-41-51.9-53.2-49C112.7,47,132.1,38.8,143.8,36.8L143.8,36.8z"/>
			</defs>
			<clipPath id="XMLID_170_">
				<use xlink:href="#XMLID_126_"  style="overflow:visible;"/>
			</clipPath>
			<polygon id="XMLID_125_" class="st5" points="135.7,183.1 9.6,110.4 13.2,104.2 139.3,176.9 			"/>
		</g>
	</g>
	<g id="XMLID_342_">
		<g id="XMLID_343_">
			<defs>
				<path id="XMLID_124_" d="M143.8,36.8c-0.1-1.4,0-8.9,0.2-12c-76.5,1.1-106.6,37.4-106.6,76c-0.2,38.2,32.9,57.5,61.9,57.8
					c28.9-0.3,61.8-19.6,61.8-57.9c0-39.6-41-51.9-53.2-49C112.7,47,132.1,38.8,143.8,36.8L143.8,36.8z"/>
			</defs>
			<clipPath id="XMLID_171_">
				<use xlink:href="#XMLID_124_"  style="overflow:visible;"/>
			</clipPath>
			<polygon id="XMLID_123_" class="st6" points="137.4,180 11.4,107.3 15,101.1 141.1,173.8 			"/>
		</g>
	</g>
	<g id="XMLID_338_">
		<g id="XMLID_339_">
			<defs>
				<path id="XMLID_122_" d="M143.8,36.8c-0.1-1.4,0-8.9,0.2-12c-76.5,1.1-106.6,37.4-106.6,76c-0.2,38.2,32.9,57.5,61.9,57.8
					c28.9-0.3,61.8-19.6,61.8-57.9c0-39.6-41-51.9-53.2-49C112.7,47,132.1,38.8,143.8,36.8L143.8,36.8z"/>
			</defs>
			<clipPath id="XMLID_172_">
				<use xlink:href="#XMLID_122_"  style="overflow:visible;"/>
			</clipPath>
			<polygon id="XMLID_121_" class="st7" points="139.3,176.9 13.2,104.2 16.8,98 142.9,170.7 			"/>
		</g>
	</g>
	<g id="XMLID_334_">
		<g id="XMLID_335_">
			<defs>
				<path id="XMLID_120_" d="M143.8,36.8c-0.1-1.4,0-8.9,0.2-12c-76.5,1.1-106.6,37.4-106.6,76c-0.2,38.2,32.9,57.5,61.9,57.8
					c28.9-0.3,61.8-19.6,61.8-57.9c0-39.6-41-51.9-53.2-49C112.7,47,132.1,38.8,143.8,36.8L143.8,36.8z"/>
			</defs>
			<clipPath id="XMLID_173_">
				<use xlink:href="#XMLID_120_"  style="overflow:visible;"/>
			</clipPath>
			<polygon id="XMLID_119_" class="st8" points="141.1,173.8 15,101.1 18.6,94.8 144.6,167.6 			"/>
		</g>
	</g>
	<g id="XMLID_330_">
		<g id="XMLID_331_">
			<defs>
				<path id="XMLID_118_" d="M143.8,36.8c-0.1-1.4,0-8.9,0.2-12c-76.5,1.1-106.6,37.4-106.6,76c-0.2,38.2,32.9,57.5,61.9,57.8
					c28.9-0.3,61.8-19.6,61.8-57.9c0-39.6-41-51.9-53.2-49C112.7,47,132.1,38.8,143.8,36.8L143.8,36.8z"/>
			</defs>
			<clipPath id="XMLID_174_">
				<use xlink:href="#XMLID_118_"  style="overflow:visible;"/>
			</clipPath>
			<polygon id="XMLID_117_" class="st9" points="142.9,170.7 16.8,98 20.4,91.7 146.5,164.5 			"/>
		</g>
	</g>
	<g id="XMLID_326_">
		<g id="XMLID_327_">
			<defs>
				<path id="XMLID_116_" d="M143.8,36.8c-0.1-1.4,0-8.9,0.2-12c-76.5,1.1-106.6,37.4-106.6,76c-0.2,38.2,32.9,57.5,61.9,57.8
					c28.9-0.3,61.8-19.6,61.8-57.9c0-39.6-41-51.9-53.2-49C112.7,47,132.1,38.8,143.8,36.8L143.8,36.8z"/>
			</defs>
			<clipPath id="XMLID_175_">
				<use xlink:href="#XMLID_116_"  style="overflow:visible;"/>
			</clipPath>
			<polygon id="XMLID_115_" class="st10" points="144.6,167.6 18.6,94.8 22.2,88.6 148.3,161.4 			"/>
		</g>
	</g>
	<g id="XMLID_322_">
		<g id="XMLID_323_">
			<defs>
				<path id="XMLID_114_" d="M143.8,36.8c-0.1-1.4,0-8.9,0.2-12c-76.5,1.1-106.6,37.4-106.6,76c-0.2,38.2,32.9,57.5,61.9,57.8
					c28.9-0.3,61.8-19.6,61.8-57.9c0-39.6-41-51.9-53.2-49C112.7,47,132.1,38.8,143.8,36.8L143.8,36.8z"/>
			</defs>
			<clipPath id="XMLID_176_">
				<use xlink:href="#XMLID_114_"  style="overflow:visible;"/>
			</clipPath>
			<polygon id="XMLID_113_" class="st11" points="146.5,164.5 20.4,91.7 24,85.5 150,158.3 			"/>
		</g>
	</g>
	<g id="XMLID_318_">
		<g id="XMLID_319_">
			<defs>
				<path id="XMLID_112_" d="M143.8,36.8c-0.1-1.4,0-8.9,0.2-12c-76.5,1.1-106.6,37.4-106.6,76c-0.2,38.2,32.9,57.5,61.9,57.8
					c28.9-0.3,61.8-19.6,61.8-57.9c0-39.6-41-51.9-53.2-49C112.7,47,132.1,38.8,143.8,36.8L143.8,36.8z"/>
			</defs>
			<clipPath id="XMLID_177_">
				<use xlink:href="#XMLID_112_"  style="overflow:visible;"/>
			</clipPath>
			<polygon id="XMLID_111_" class="st12" points="148.3,161.4 22.2,88.6 25.8,82.4 151.8,155.2 			"/>
		</g>
	</g>
	<g id="XMLID_314_">
		<g id="XMLID_315_">
			<defs>
				<path id="XMLID_110_" d="M143.8,36.8c-0.1-1.4,0-8.9,0.2-12c-76.5,1.1-106.6,37.4-106.6,76c-0.2,38.2,32.9,57.5,61.9,57.8
					c28.9-0.3,61.8-19.6,61.8-57.9c0-39.6-41-51.9-53.2-49C112.7,47,132.1,38.8,143.8,36.8L143.8,36.8z"/>
			</defs>
			<clipPath id="XMLID_178_">
				<use xlink:href="#XMLID_110_"  style="overflow:visible;"/>
			</clipPath>
			<polygon id="XMLID_109_" class="st13" points="150,158.3 24,85.5 27.6,79.3 153.6,152.1 			"/>
		</g>
	</g>
	<g id="XMLID_310_">
		<g id="XMLID_311_">
			<defs>
				<path id="XMLID_108_" d="M143.8,36.8c-0.1-1.4,0-8.9,0.2-12c-76.5,1.1-106.6,37.4-106.6,76c-0.2,38.2,32.9,57.5,61.9,57.8
					c28.9-0.3,61.8-19.6,61.8-57.9c0-39.6-41-51.9-53.2-49C112.7,47,132.1,38.8,143.8,36.8L143.8,36.8z"/>
			</defs>
			<clipPath id="XMLID_179_">
				<use xlink:href="#XMLID_108_"  style="overflow:visible;"/>
			</clipPath>
			<polygon id="XMLID_107_" class="st14" points="151.8,155.2 25.8,82.4 29.4,76.2 155.5,149 			"/>
		</g>
	</g>
	<g id="XMLID_306_">
		<g id="XMLID_307_">
			<defs>
				<path id="XMLID_106_" d="M143.8,36.8c-0.1-1.4,0-8.9,0.2-12c-76.5,1.1-106.6,37.4-106.6,76c-0.2,38.2,32.9,57.5,61.9,57.8
					c28.9-0.3,61.8-19.6,61.8-57.9c0-39.6-41-51.9-53.2-49C112.7,47,132.1,38.8,143.8,36.8L143.8,36.8z"/>
			</defs>
			<clipPath id="XMLID_180_">
				<use xlink:href="#XMLID_106_"  style="overflow:visible;"/>
			</clipPath>
			<polygon id="XMLID_105_" class="st15" points="153.6,152.1 27.6,79.3 31.1,73.1 157.2,145.9 			"/>
		</g>
	</g>
	<g id="XMLID_302_">
		<g id="XMLID_303_">
			<defs>
				<path id="XMLID_104_" d="M143.8,36.8c-0.1-1.4,0-8.9,0.2-12c-76.5,1.1-106.6,37.4-106.6,76c-0.2,38.2,32.9,57.5,61.9,57.8
					c28.9-0.3,61.8-19.6,61.8-57.9c0-39.6-41-51.9-53.2-49C112.7,47,132.1,38.8,143.8,36.8L143.8,36.8z"/>
			</defs>
			<clipPath id="XMLID_181_">
				<use xlink:href="#XMLID_104_"  style="overflow:visible;"/>
			</clipPath>
			<polygon id="XMLID_103_" class="st16" points="155.5,149 29.4,76.2 33,70 159,142.8 			"/>
		</g>
	</g>
	<g id="XMLID_298_">
		<g id="XMLID_299_">
			<defs>
				<path id="XMLID_102_" d="M143.8,36.8c-0.1-1.4,0-8.9,0.2-12c-76.5,1.1-106.6,37.4-106.6,76c-0.2,38.2,32.9,57.5,61.9,57.8
					c28.9-0.3,61.8-19.6,61.8-57.9c0-39.6-41-51.9-53.2-49C112.7,47,132.1,38.8,143.8,36.8L143.8,36.8z"/>
			</defs>
			<clipPath id="XMLID_182_">
				<use xlink:href="#XMLID_102_"  style="overflow:visible;"/>
			</clipPath>
			<polygon id="XMLID_101_" class="st17" points="157.2,145.9 31.1,73.1 34.8,66.9 160.8,139.7 			"/>
		</g>
	</g>
	<g id="XMLID_294_">
		<g id="XMLID_295_">
			<defs>
				<path id="XMLID_100_" d="M143.8,36.8c-0.1-1.4,0-8.9,0.2-12c-76.5,1.1-106.6,37.4-106.6,76c-0.2,38.2,32.9,57.5,61.9,57.8
					c28.9-0.3,61.8-19.6,61.8-57.9c0-39.6-41-51.9-53.2-49C112.7,47,132.1,38.8,143.8,36.8L143.8,36.8z"/>
			</defs>
			<clipPath id="XMLID_183_">
				<use xlink:href="#XMLID_100_"  style="overflow:visible;"/>
			</clipPath>
			<polygon id="XMLID_99_" class="st18" points="159,142.8 33,70 36.6,63.8 162.6,136.6 			"/>
		</g>
	</g>
	<g id="XMLID_290_">
		<g id="XMLID_291_">
			<defs>
				<path id="XMLID_98_" d="M143.8,36.8c-0.1-1.4,0-8.9,0.2-12c-76.5,1.1-106.6,37.4-106.6,76c-0.2,38.2,32.9,57.5,61.9,57.8
					c28.9-0.3,61.8-19.6,61.8-57.9c0-39.6-41-51.9-53.2-49C112.7,47,132.1,38.8,143.8,36.8L143.8,36.8z"/>
			</defs>
			<clipPath id="XMLID_184_">
				<use xlink:href="#XMLID_98_"  style="overflow:visible;"/>
			</clipPath>
			<polygon id="XMLID_97_" class="st19" points="160.8,139.7 34.8,66.9 38.3,60.6 164.4,133.5 			"/>
		</g>
	</g>
	<g id="XMLID_285_">
		<g id="XMLID_289_">
			<path id="SVGID_39_" class="st20" d="M143.8,36.8c-0.1-1.4,0-8.9,0.2-12c-76.5,1.1-106.6,37.4-106.6,76
				c-0.2,38.2,32.9,57.5,61.9,57.8c28.9-0.3,61.8-19.6,61.8-57.9c0-39.6-41-51.9-53.2-49C112.7,47,132.1,38.8,143.8,36.8L143.8,36.8
				z"/>
		</g>
		<g id="XMLID_286_">
			<defs>
				<path id="XMLID_96_" d="M143.8,36.8c-0.1-1.4,0-8.9,0.2-12c-76.5,1.1-106.6,37.4-106.6,76c-0.2,38.2,32.9,57.5,61.9,57.8
					c28.9-0.3,61.8-19.6,61.8-57.9c0-39.6-41-51.9-53.2-49C112.7,47,132.1,38.8,143.8,36.8L143.8,36.8z"/>
			</defs>
			<clipPath id="XMLID_187_">
				<use xlink:href="#XMLID_96_"  style="overflow:visible;"/>
			</clipPath>
			<polygon id="XMLID_95_" class="st21" points="162.6,136.6 36.6,63.8 40.1,57.5 166.2,130.3 			"/>
		</g>
	</g>
	<g id="XMLID_281_">
		<g id="XMLID_282_">
			<defs>
				<path id="XMLID_94_" d="M143.8,36.8c-0.1-1.4,0-8.9,0.2-12c-76.5,1.1-106.6,37.4-106.6,76c-0.2,38.2,32.9,57.5,61.9,57.8
					c28.9-0.3,61.8-19.6,61.8-57.9c0-39.6-41-51.9-53.2-49C112.7,47,132.1,38.8,143.8,36.8L143.8,36.8z"/>
			</defs>
			<clipPath id="XMLID_188_">
				<use xlink:href="#XMLID_94_"  style="overflow:visible;"/>
			</clipPath>
			<polygon id="XMLID_93_" class="st22" points="164.4,133.5 38.3,60.6 42,54.4 168,127.2 			"/>
		</g>
	</g>
	<g id="XMLID_277_">
		<g id="XMLID_278_">
			<defs>
				<path id="XMLID_92_" d="M143.8,36.8c-0.1-1.4,0-8.9,0.2-12c-76.5,1.1-106.6,37.4-106.6,76c-0.2,38.2,32.9,57.5,61.9,57.8
					c28.9-0.3,61.8-19.6,61.8-57.9c0-39.6-41-51.9-53.2-49C112.7,47,132.1,38.8,143.8,36.8L143.8,36.8z"/>
			</defs>
			<clipPath id="XMLID_191_">
				<use xlink:href="#XMLID_92_"  style="overflow:visible;"/>
			</clipPath>
			<polygon id="XMLID_91_" class="st23" points="166.2,130.3 40.1,57.5 43.7,51.3 169.8,124.1 			"/>
		</g>
	</g>
	<g id="XMLID_273_">
		<g id="XMLID_274_">
			<defs>
				<path id="XMLID_90_" d="M143.8,36.8c-0.1-1.4,0-8.9,0.2-12c-76.5,1.1-106.6,37.4-106.6,76c-0.2,38.2,32.9,57.5,61.9,57.8
					c28.9-0.3,61.8-19.6,61.8-57.9c0-39.6-41-51.9-53.2-49C112.7,47,132.1,38.8,143.8,36.8L143.8,36.8z"/>
			</defs>
			<clipPath id="XMLID_192_">
				<use xlink:href="#XMLID_90_"  style="overflow:visible;"/>
			</clipPath>
			<polygon id="XMLID_89_" class="st24" points="168,127.2 42,54.4 45.5,48.2 171.6,121 			"/>
		</g>
	</g>
	<g id="XMLID_269_">
		<g id="XMLID_270_">
			<defs>
				<path id="XMLID_88_" d="M143.8,36.8c-0.1-1.4,0-8.9,0.2-12c-76.5,1.1-106.6,37.4-106.6,76c-0.2,38.2,32.9,57.5,61.9,57.8
					c28.9-0.3,61.8-19.6,61.8-57.9c0-39.6-41-51.9-53.2-49C112.7,47,132.1,38.8,143.8,36.8L143.8,36.8z"/>
			</defs>
			<clipPath id="XMLID_196_">
				<use xlink:href="#XMLID_88_"  style="overflow:visible;"/>
			</clipPath>
			<polygon id="XMLID_87_" class="st25" points="169.8,124.1 43.7,51.3 47.3,45.1 173.4,117.8 			"/>
		</g>
	</g>
	<g id="XMLID_265_">
		<g id="XMLID_266_">
			<defs>
				<path id="XMLID_86_" d="M143.8,36.8c-0.1-1.4,0-8.9,0.2-12c-76.5,1.1-106.6,37.4-106.6,76c-0.2,38.2,32.9,57.5,61.9,57.8
					c28.9-0.3,61.8-19.6,61.8-57.9c0-39.6-41-51.9-53.2-49C112.7,47,132.1,38.8,143.8,36.8L143.8,36.8z"/>
			</defs>
			<clipPath id="XMLID_197_">
				<use xlink:href="#XMLID_86_"  style="overflow:visible;"/>
			</clipPath>
			<polygon id="XMLID_85_" class="st26" points="171.6,121 45.5,48.2 49.2,42 175.2,114.7 			"/>
		</g>
	</g>
	<g id="XMLID_260_">
		<g id="XMLID_264_">
			<path id="SVGID_51_" class="st20" d="M143.8,36.8c-0.1-1.4,0-8.9,0.2-12c-76.5,1.1-106.6,37.4-106.6,76
				c-0.2,38.2,32.9,57.5,61.9,57.8c28.9-0.3,61.8-19.6,61.8-57.9c0-39.6-41-51.9-53.2-49C112.7,47,132.1,38.8,143.8,36.8L143.8,36.8
				z"/>
		</g>
		<g id="XMLID_261_">
			<defs>
				<path id="XMLID_84_" d="M143.8,36.8c-0.1-1.4,0-8.9,0.2-12c-76.5,1.1-106.6,37.4-106.6,76c-0.2,38.2,32.9,57.5,61.9,57.8
					c28.9-0.3,61.8-19.6,61.8-57.9c0-39.6-41-51.9-53.2-49C112.7,47,132.1,38.8,143.8,36.8L143.8,36.8z"/>
			</defs>
			<clipPath id="XMLID_201_">
				<use xlink:href="#XMLID_84_"  style="overflow:visible;"/>
			</clipPath>
			<polygon id="XMLID_83_" class="st27" points="173.4,117.8 47.3,45.1 50.9,38.9 177,111.6 			"/>
		</g>
	</g>
	<g id="XMLID_256_">
		<g id="XMLID_257_">
			<defs>
				<path id="XMLID_82_" d="M143.8,36.8c-0.1-1.4,0-8.9,0.2-12c-76.5,1.1-106.6,37.4-106.6,76c-0.2,38.2,32.9,57.5,61.9,57.8
					c28.9-0.3,61.8-19.6,61.8-57.9c0-39.6-41-51.9-53.2-49C112.7,47,132.1,38.8,143.8,36.8L143.8,36.8z"/>
			</defs>
			<clipPath id="XMLID_202_">
				<use xlink:href="#XMLID_82_"  style="overflow:visible;"/>
			</clipPath>
			<polygon id="XMLID_81_" class="st28" points="175.2,114.7 49.2,42 52.7,35.8 178.8,108.5 			"/>
		</g>
	</g>
	<g id="XMLID_252_">
		<g id="XMLID_253_">
			<defs>
				<path id="XMLID_80_" d="M143.8,36.8c-0.1-1.4,0-8.9,0.2-12c-76.5,1.1-106.6,37.4-106.6,76c-0.2,38.2,32.9,57.5,61.9,57.8
					c28.9-0.3,61.8-19.6,61.8-57.9c0-39.6-41-51.9-53.2-49C112.7,47,132.1,38.8,143.8,36.8L143.8,36.8z"/>
			</defs>
			<clipPath id="XMLID_205_">
				<use xlink:href="#XMLID_80_"  style="overflow:visible;"/>
			</clipPath>
			<polygon id="XMLID_79_" class="st29" points="177,111.6 50.9,38.9 54.5,32.7 180.6,105.4 			"/>
		</g>
	</g>
	<g id="XMLID_248_">
		<g id="XMLID_249_">
			<defs>
				<path id="XMLID_78_" d="M143.8,36.8c-0.1-1.4,0-8.9,0.2-12c-76.5,1.1-106.6,37.4-106.6,76c-0.2,38.2,32.9,57.5,61.9,57.8
					c28.9-0.3,61.8-19.6,61.8-57.9c0-39.6-41-51.9-53.2-49C112.7,47,132.1,38.8,143.8,36.8L143.8,36.8z"/>
			</defs>
			<clipPath id="XMLID_206_">
				<use xlink:href="#XMLID_78_"  style="overflow:visible;"/>
			</clipPath>
			<polygon id="XMLID_77_" class="st30" points="178.8,108.5 52.7,35.8 56.3,29.5 182.3,102.3 			"/>
		</g>
	</g>
	<g id="XMLID_244_">
		<g id="XMLID_245_">
			<defs>
				<path id="XMLID_76_" d="M143.8,36.8c-0.1-1.4,0-8.9,0.2-12c-76.5,1.1-106.6,37.4-106.6,76c-0.2,38.2,32.9,57.5,61.9,57.8
					c28.9-0.3,61.8-19.6,61.8-57.9c0-39.6-41-51.9-53.2-49C112.7,47,132.1,38.8,143.8,36.8L143.8,36.8z"/>
			</defs>
			<clipPath id="XMLID_209_">
				<use xlink:href="#XMLID_76_"  style="overflow:visible;"/>
			</clipPath>
			<polygon id="XMLID_75_" class="st31" points="180.6,105.4 54.5,32.7 58.1,26.4 184.1,99.2 			"/>
		</g>
	</g>
	<g id="XMLID_240_">
		<g id="XMLID_241_">
			<defs>
				<path id="XMLID_74_" d="M143.8,36.8c-0.1-1.4,0-8.9,0.2-12c-76.5,1.1-106.6,37.4-106.6,76c-0.2,38.2,32.9,57.5,61.9,57.8
					c28.9-0.3,61.8-19.6,61.8-57.9c0-39.6-41-51.9-53.2-49C112.7,47,132.1,38.8,143.8,36.8L143.8,36.8z"/>
			</defs>
			<clipPath id="XMLID_210_">
				<use xlink:href="#XMLID_74_"  style="overflow:visible;"/>
			</clipPath>
			<polygon id="XMLID_73_" class="st32" points="182.3,102.3 56.3,29.5 59.9,23.3 186,96.1 			"/>
		</g>
	</g>
	<g id="XMLID_236_">
		<g id="XMLID_237_">
			<defs>
				<path id="XMLID_72_" d="M143.8,36.8c-0.1-1.4,0-8.9,0.2-12c-76.5,1.1-106.6,37.4-106.6,76c-0.2,38.2,32.9,57.5,61.9,57.8
					c28.9-0.3,61.8-19.6,61.8-57.9c0-39.6-41-51.9-53.2-49C112.7,47,132.1,38.8,143.8,36.8L143.8,36.8z"/>
			</defs>
			<clipPath id="XMLID_213_">
				<use xlink:href="#XMLID_72_"  style="overflow:visible;"/>
			</clipPath>
			<polygon id="XMLID_71_" class="st33" points="184.1,99.2 58.1,26.4 61.7,20.2 187.8,93 			"/>
		</g>
	</g>
	<g id="XMLID_231_">
		<g id="XMLID_235_">
			<path id="SVGID_65_" class="st20" d="M143.8,36.8c-0.1-1.4,0-8.9,0.2-12c-76.5,1.1-106.6,37.4-106.6,76
				c-0.2,38.2,32.9,57.5,61.9,57.8c28.9-0.3,61.8-19.6,61.8-57.9c0-39.6-41-51.9-53.2-49C112.7,47,132.1,38.8,143.8,36.8L143.8,36.8
				z"/>
		</g>
		<g id="XMLID_232_">
			<defs>
				<path id="XMLID_70_" d="M143.8,36.8c-0.1-1.4,0-8.9,0.2-12c-76.5,1.1-106.6,37.4-106.6,76c-0.2,38.2,32.9,57.5,61.9,57.8
					c28.9-0.3,61.8-19.6,61.8-57.9c0-39.6-41-51.9-53.2-49C112.7,47,132.1,38.8,143.8,36.8L143.8,36.8z"/>
			</defs>
			<clipPath id="XMLID_214_">
				<use xlink:href="#XMLID_70_"  style="overflow:visible;"/>
			</clipPath>
			<polygon id="XMLID_69_" class="st34" points="186,96.1 59.9,23.3 63.5,17.1 189.5,89.9 			"/>
		</g>
	</g>
	<g id="XMLID_227_">
		<g id="XMLID_228_">
			<defs>
				<path id="XMLID_68_" d="M143.8,36.8c-0.1-1.4,0-8.9,0.2-12c-76.5,1.1-106.6,37.4-106.6,76c-0.2,38.2,32.9,57.5,61.9,57.8
					c28.9-0.3,61.8-19.6,61.8-57.9c0-39.6-41-51.9-53.2-49C112.7,47,132.1,38.8,143.8,36.8L143.8,36.8z"/>
			</defs>
			<clipPath id="XMLID_217_">
				<use xlink:href="#XMLID_68_"  style="overflow:visible;"/>
			</clipPath>
			<polygon id="XMLID_67_" class="st35" points="187.8,93 61.7,20.2 65.3,14 191.3,86.8 			"/>
		</g>
	</g>
	<g id="XMLID_223_">
		<g id="XMLID_224_">
			<defs>
				<path id="XMLID_66_" d="M143.8,36.8c-0.1-1.4,0-8.9,0.2-12c-76.5,1.1-106.6,37.4-106.6,76c-0.2,38.2,32.9,57.5,61.9,57.8
					c28.9-0.3,61.8-19.6,61.8-57.9c0-39.6-41-51.9-53.2-49C112.7,47,132.1,38.8,143.8,36.8L143.8,36.8z"/>
			</defs>
			<clipPath id="XMLID_218_">
				<use xlink:href="#XMLID_66_"  style="overflow:visible;"/>
			</clipPath>
			<polygon id="XMLID_65_" class="st36" points="189.5,89.9 63.5,17.1 67.1,10.9 193.2,83.7 			"/>
		</g>
	</g>
	<g id="XMLID_219_">
		<g id="XMLID_220_">
			<defs>
				<path id="XMLID_64_" d="M143.8,36.8c-0.1-1.4,0-8.9,0.2-12c-76.5,1.1-106.6,37.4-106.6,76c-0.2,38.2,32.9,57.5,61.9,57.8
					c28.9-0.3,61.8-19.6,61.8-57.9c0-39.6-41-51.9-53.2-49C112.7,47,132.1,38.8,143.8,36.8L143.8,36.8z"/>
			</defs>
			<clipPath id="XMLID_221_">
				<use xlink:href="#XMLID_64_"  style="overflow:visible;"/>
			</clipPath>
			<polygon id="XMLID_63_" class="st37" points="191.3,86.8 65.3,14 68.9,7.8 194.9,80.6 			"/>
		</g>
	</g>
	<g id="XMLID_215_">
		<g id="XMLID_216_">
			<defs>
				<path id="XMLID_62_" d="M143.8,36.8c-0.1-1.4,0-8.9,0.2-12c-76.5,1.1-106.6,37.4-106.6,76c-0.2,38.2,32.9,57.5,61.9,57.8
					c28.9-0.3,61.8-19.6,61.8-57.9c0-39.6-41-51.9-53.2-49C112.7,47,132.1,38.8,143.8,36.8L143.8,36.8z"/>
			</defs>
			<clipPath id="XMLID_222_">
				<use xlink:href="#XMLID_62_"  style="overflow:visible;"/>
			</clipPath>
			<polygon id="XMLID_61_" class="st38" points="193.2,83.7 67.1,10.9 70.6,4.7 196.7,77.5 			"/>
		</g>
	</g>
	<g id="XMLID_211_">
		<g id="XMLID_212_">
			<defs>
				<path id="XMLID_60_" d="M143.8,36.8c-0.1-1.4,0-8.9,0.2-12c-76.5,1.1-106.6,37.4-106.6,76c-0.2,38.2,32.9,57.5,61.9,57.8
					c28.9-0.3,61.8-19.6,61.8-57.9c0-39.6-41-51.9-53.2-49C112.7,47,132.1,38.8,143.8,36.8L143.8,36.8z"/>
			</defs>
			<clipPath id="XMLID_225_">
				<use xlink:href="#XMLID_60_"  style="overflow:visible;"/>
			</clipPath>
			<polygon id="XMLID_59_" class="st39" points="194.9,80.6 68.9,7.8 72.5,1.6 198.5,74.4 			"/>
		</g>
	</g>
	<g id="XMLID_207_">
		<g id="XMLID_208_">
			<defs>
				<path id="XMLID_58_" d="M143.8,36.8c-0.1-1.4,0-8.9,0.2-12c-76.5,1.1-106.6,37.4-106.6,76c-0.2,38.2,32.9,57.5,61.9,57.8
					c28.9-0.3,61.8-19.6,61.8-57.9c0-39.6-41-51.9-53.2-49C112.7,47,132.1,38.8,143.8,36.8L143.8,36.8z"/>
			</defs>
			<clipPath id="XMLID_226_">
				<use xlink:href="#XMLID_58_"  style="overflow:visible;"/>
			</clipPath>
			<polygon id="XMLID_57_" class="st40" points="196.7,77.5 70.6,4.7 74.3,-1.5 200.4,71.2 			"/>
		</g>
	</g>
	<g id="XMLID_203_">
		<g id="XMLID_204_">
			<defs>
				<path id="XMLID_56_" d="M143.8,36.8c-0.1-1.4,0-8.9,0.2-12c-76.5,1.1-106.6,37.4-106.6,76c-0.2,38.2,32.9,57.5,61.9,57.8
					c28.9-0.3,61.8-19.6,61.8-57.9c0-39.6-41-51.9-53.2-49C112.7,47,132.1,38.8,143.8,36.8L143.8,36.8z"/>
			</defs>
			<clipPath id="XMLID_229_">
				<use xlink:href="#XMLID_56_"  style="overflow:visible;"/>
			</clipPath>
			<polygon id="XMLID_55_" class="st41" points="198.5,74.4 72.5,1.6 76,-4.7 202.1,68.1 			"/>
		</g>
	</g>
	<g id="XMLID_199_">
		<g id="XMLID_200_">
			<defs>
				<path id="XMLID_54_" d="M143.8,36.8c-0.1-1.4,0-8.9,0.2-12c-76.5,1.1-106.6,37.4-106.6,76c-0.2,38.2,32.9,57.5,61.9,57.8
					c28.9-0.3,61.8-19.6,61.8-57.9c0-39.6-41-51.9-53.2-49C112.7,47,132.1,38.8,143.8,36.8L143.8,36.8z"/>
			</defs>
			<clipPath id="XMLID_230_">
				<use xlink:href="#XMLID_54_"  style="overflow:visible;"/>
			</clipPath>
			<polygon id="XMLID_53_" class="st42" points="200.4,71.2 74.3,-1.5 77.8,-7.8 203.9,65 			"/>
		</g>
	</g>
	<g id="XMLID_194_">
		<g id="XMLID_198_">
			<path id="SVGID_83_" class="st20" d="M143.8,36.8c-0.1-1.4,0-8.9,0.2-12c-76.5,1.1-106.6,37.4-106.6,76
				c-0.2,38.2,32.9,57.5,61.9,57.8c28.9-0.3,61.8-19.6,61.8-57.9c0-39.6-41-51.9-53.2-49C112.7,47,132.1,38.8,143.8,36.8L143.8,36.8
				z"/>
		</g>
		<g id="XMLID_195_">
			<defs>
				<path id="XMLID_52_" d="M143.8,36.8c-0.1-1.4,0-8.9,0.2-12c-76.5,1.1-106.6,37.4-106.6,76c-0.2,38.2,32.9,57.5,61.9,57.8
					c28.9-0.3,61.8-19.6,61.8-57.9c0-39.6-41-51.9-53.2-49C112.7,47,132.1,38.8,143.8,36.8L143.8,36.8z"/>
			</defs>
			<clipPath id="XMLID_233_">
				<use xlink:href="#XMLID_52_"  style="overflow:visible;"/>
			</clipPath>
			<polygon id="XMLID_51_" class="st43" points="202.1,68.1 76,-4.7 79.7,-10.9 205.7,61.9 			"/>
		</g>
	</g>
	<g id="XMLID_189_">
		<g id="XMLID_193_">
			<path id="SVGID_85_" class="st44" d="M143.8,36.8c-0.1-1.4,0-8.9,0.2-12c-76.5,1.1-106.6,37.4-106.6,76
				c-0.2,38.2,32.9,57.5,61.9,57.8c28.9-0.3,61.8-19.6,61.8-57.9c0-39.6-41-51.9-53.2-49C112.7,47,132.1,38.8,143.8,36.8L143.8,36.8
				z"/>
		</g>
		<g id="XMLID_190_">
			<defs>
				<path id="XMLID_50_" d="M143.8,36.8c-0.1-1.4,0-8.9,0.2-12c-76.5,1.1-106.6,37.4-106.6,76c-0.2,38.2,32.9,57.5,61.9,57.8
					c28.9-0.3,61.8-19.6,61.8-57.9c0-39.6-41-51.9-53.2-49C112.7,47,132.1,38.8,143.8,36.8L143.8,36.8z"/>
			</defs>
			<use xlink:href="#XMLID_50_"  style="overflow:visible;fill:#2D3F50;"/>
			<clipPath id="XMLID_234_">
				<use xlink:href="#XMLID_50_"  style="overflow:visible;"/>
			</clipPath>
			<polygon id="XMLID_49_" class="st45" points="203.9,65 77.8,-7.8 81.5,-14 207.5,58.8 			"/>
		</g>
	</g>
	<g id="XMLID_185_">
		<g id="XMLID_186_">
			<defs>
				<path id="XMLID_48_" d="M143.8,36.8c-0.1-1.4,0-8.9,0.2-12c-76.5,1.1-106.6,37.4-106.6,76c-0.2,38.2,32.9,57.5,61.9,57.8
					c28.9-0.3,61.8-19.6,61.8-57.9c0-39.6-41-51.9-53.2-49C112.7,47,132.1,38.8,143.8,36.8L143.8,36.8z"/>
			</defs>
			<clipPath id="XMLID_238_">
				<use xlink:href="#XMLID_48_"  style="overflow:visible;"/>
			</clipPath>
			<polygon id="XMLID_47_" class="st46" points="205.7,61.9 79.7,-10.9 83.2,-17.1 209.3,55.7 			"/>
		</g>
	</g>
	<path id="XMLID_46_" class="st47" d="M143.3,36.8c-0.1-1.4,0-8.9,0.2-12C67,25.9,36.9,62.2,36.9,100.8
		c-0.2,38.2,32.9,57.5,61.9,57.8c28.9-0.3,61.8-19.6,61.8-57.9c0-39.6-41-51.9-53.2-49C112.2,47,131.6,38.8,143.3,36.8L143.3,36.8z"
		/>
	<path id="XMLID_45_" class="st48" d="M51,123.6c0,0,1.4-36.3,1.4-37.7c4.6,0,11.1,2.3,18.4,19.3c7.1-16.9,18.8-19.3,18.8-19.3
		l1.8,37.7h-7.3c0,0,2.7-12.1,2.7-31.7c-0.3,0-6-1.4-16.1,21.2c-8.5-22.8-14.8-21.2-15.1-21.3c0,20.1,2.4,31.8,2.4,31.8L51,123.6
		L51,123.6z"/>
	<path id="XMLID_44_" class="st48" d="M103,123.6c0,0,9.8-31.8,20.8-37.9c11.5,6.1,20.8,37.9,20.8,37.9h-6.5c0,0-1.6-24.8-14.3-33.8
		c-12.1,9-13.6,33.8-13.6,33.8H103z"/>
	<path id="XMLID_43_" class="st48" d="M72.3,123.5c4.9-21.7,21.7-42.8,54.7-60c-1.8,1.8-3.6,6.9-4.4,8.8
		c-15,6.4-40.4,22.1-43.1,51.2C78.8,123.5,72.6,123.5,72.3,123.5L72.3,123.5z"/>
	<path id="XMLID_42_" class="st48" d="M122.2,123.6c-4.9-22.1-21.7-43.5-54.7-61c1.8,1.8,3.6,7,4.3,8.9C87,78,112.3,94,115.1,123.6
		C115.7,123.6,121.9,123.6,122.2,123.6L122.2,123.6z"/>
	<path id="XMLID_164_" class="st49" d="M39.4,50.3l1.6-0.1c0.1,0,0.3,0,0.4-0.1c0.2-0.1,0.4-0.2,0.5-0.3c0.3-0.1,0.4-0.2,0.6-0.2
		c0.3-0.1,0.4-0.1,0.4,0l0.3,0.3c0,0.1,0,0.1-0.1,0.2c0,0.2-0.1,0.3-0.2,0.4c-0.1,0.2-0.3,0.4-0.4,0.6c-0.3,0.3-0.4,0.4-0.7,0.6
		c-0.3,0.2-0.5,0.4-0.7,0.5c-0.3,0.2-0.4,0.3-0.6,0.4L26.3,50c-0.1,0.1-0.2,0.2-0.2,0.4c0,0.2,0.1,0.4,0.3,0.7
		c0.1,0.4,0.3,0.6,0.4,1s0.4,0.7,0.5,1.1c0.3,0.4,0.4,0.7,0.6,1c0.2,0.3,0.4,0.5,0.4,0.7l5.3,9.5c-0.4,0.5-0.7,0.9-0.9,1.1
		c-0.3,0.2-0.4,0.2-0.6,0c-2.7-1.7-5.7-3.3-9.1-4.7c-2.8-1.2-4.6-1.7-5.4-1.3l-0.2-0.1c-0.1,0-0.1-0.1-0.1-0.4
		c0-0.2,0.1-0.4,0.1-0.7c0.1-0.3,0.2-0.6,0.3-0.9c0.1-0.3,0.2-0.4,0.2-0.5h0.2v-0.1c0.1-0.2,0.4-0.1,0.9,0.1c0.6,0.2,1.2,0.4,2,0.8
		c0.8,0.4,1.7,0.8,2.7,1.2c1,0.5,2,1,2.9,1.5c1,0.4,2,0.9,2.8,1.3c0.9,0.4,1.6,0.8,2.2,1c-0.2-0.3-0.4-0.6-0.7-1.2
		c-0.3-0.5-0.6-1.2-1.1-2c-0.4-0.7-0.8-1.5-1.3-2.3c-0.4-0.8-0.9-1.6-1.2-2.3c-0.4-0.8-0.8-1.4-1.2-2c-0.4-0.5-0.5-1-0.7-1.2
		c-0.4-0.9-0.9-1.6-1.1-2.1c-0.3-0.5-0.4-0.9-0.4-1.1v-0.1c0-0.2,0.3-0.2,0.8-0.2c0.5,0,1.2,0.1,2,0.2c0.9,0.1,1.8,0.3,2.8,0.4
		c1.1,0.2,2,0.4,3,0.5c1.2,0.2,2.3,0.4,3.3,0.5c1,0.1,1.8,0.2,2.4,0.3c-0.4-0.4-0.8-0.9-1.5-1.5c-0.6-0.7-1.4-1.4-2.2-2.2
		c-0.8-0.8-1.6-1.7-2.4-2.6c-0.9-0.9-1.6-1.8-2.3-2.6c-0.6-0.9-1.2-1.7-1.6-2.4c-0.4-0.7-0.5-1.3-0.4-1.8l0.1-0.3
		c0.1-0.1,0.2-0.2,0.4-0.4c0.2-0.1,0.4-0.1,0.7-0.2c0.3-0.1,0.5-0.1,0.8-0.1s0.4,0.1,0.5,0.2l0.1,0.2l-0.2,0.3
		c-0.2,0.2-0.3,0.5-0.2,1c0.2,0.4,0.4,1,0.6,1.5c0.3,0.6,0.6,1.2,1.1,1.9c0.4,0.6,0.9,1.2,1.4,2c0.5,0.6,1.1,1.2,1.5,1.9
		c0.5,0.6,1.1,1.2,1.5,1.7c0.5,0.6,1.1,1.2,1.6,1.9C38.3,49.1,38.9,49.7,39.4,50.3L39.4,50.3z M17.8,72.4c0.9-0.1,1.6-0.4,2.2-0.8
		c0.5-0.5,1-1.2,1.2-1.9c0.2-0.4,0.3-1,0.3-1.5c0.1-0.5,0.1-1-0.1-1.5c-0.1-0.4-0.3-0.9-0.6-1.2c-0.3-0.4-0.7-0.6-1.2-0.8
		c-0.4-0.2-0.9-0.2-1.3-0.2c-0.4,0.1-0.9,0.3-1.3,0.5c-0.4,0.2-0.8,0.5-1.2,1c-0.3,0.4-0.5,0.8-0.7,1.3c-0.1,0.2-0.1,0.4-0.2,0.5
		c0,0.3-0.1,0.4-0.1,0.7c-0.1,0.4-0.1,0.8,0,1.2s0.2,0.7,0.4,1.1c0.2,0.4,0.4,0.6,0.7,0.8c0.3,0.3,0.6,0.4,1,0.6
		C17.1,72.3,17.5,72.4,17.8,72.4L17.8,72.4z M22.2,70.6c-0.4,1.1-0.9,2-1.6,2.7c-1,1.1-2,1.4-3.2,1.1c-0.3-0.1-0.6-0.3-1-0.5
		c-0.4-0.3-0.6-0.6-1-1c-0.3-0.4-0.5-0.9-0.8-1.4c-0.3-0.4-0.4-1-0.5-1.5c-0.1-0.5-0.2-1.1-0.2-1.6c0-0.5,0.1-1,0.3-1.4l0.4-1.2
		c0.2-0.6,0.4-1.2,0.7-1.6c0.3-0.5,0.6-0.9,0.9-1.2c0.8-0.8,1.8-1,2.8-0.6c1.2,0.4,2,1.2,2.8,2.2C22.9,66.2,23,68.2,22.2,70.6
		L22.2,70.6z M15.3,76.1c1.1,0.5,2,1.8,2.8,3.6c0.9,2,1.2,3.7,0.9,5.4c-0.1,0.4-0.2,0.6-0.3,0.9c-0.1,0.3-0.3,0.5-0.4,0.7
		c-0.2,0.3-0.4,0.4-0.6,0.5c-0.2,0.1-0.4,0.1-0.6,0.1c-0.2,0-0.3-0.1-0.4-0.2c-0.1-0.1-0.1-0.2-0.1-0.3l0.1-0.2
		c0.2-0.1,0.3-0.3,0.4-0.4s0.3-0.4,0.4-0.7c0.1-0.3,0.2-0.5,0.3-0.8s0.2-0.6,0.3-0.9c0.2-1.4,0.1-2.7-0.4-3.6
		C17,79,16,78.2,14.5,77.9H14c-0.4,0-0.7,0.1-1.1,0.3c-0.3,0.2-0.6,0.4-0.9,0.8c-0.3,0.4-0.5,0.8-0.7,1.3c-0.2,0.5-0.4,1.1-0.4,1.7
		c-0.1,0.7-0.2,1.3-0.1,2c0,0.6,0.2,1.2,0.4,1.7c0.1,0.4,0.3,0.8,0.3,1.2c0.1,0.3,0.1,0.4,0.1,0.5c-0.1,0.1-0.1,0.2-0.2,0.2
		l-0.1,0.1c-0.2-0.1-0.4-0.3-0.5-0.5c-0.2-0.4-0.3-0.7-0.4-1.2c-0.1-0.4-0.1-1-0.2-1.6c0-0.5,0-1.2,0-1.7c-0.1-0.6,0-1.2,0-1.7
		c0.1-0.5,0.1-1,0.2-1.3c0.1-0.7,0.3-1.2,0.4-1.8c0.2-0.4,0.4-0.9,0.7-1.2c0.6-0.8,1.5-1.1,2.6-0.9c0.1,0,0.2,0,0.3,0.1
		c0,0,0.1,0,0.2,0c0.1,0.1,0.2,0.1,0.4,0.2C14.9,76,15.1,76,15.3,76.1L15.3,76.1z M25.6,92.5l-13.5-1.2c0.2,0.7,0.4,1.4,0.9,2.1
		c0.4,0.7,0.8,1.4,1.4,2c0.6,0.7,1.2,1.4,2,2.1c0.6,0.6,1.3,1.3,2,2c0,0,0,0.1-0.1,0.2c-0.1,0.1-0.3,0.1-0.4,0.2
		c-0.2,0.1-0.4,0.1-0.5,0.1c-0.2,0.1-0.4,0.1-0.4,0.1c-0.4,0-0.7-0.2-1-0.4c-0.4-0.4-0.7-0.7-1-1.2c-0.4-0.5-0.6-1-0.9-1.5
		c-0.3-0.5-0.5-1.1-0.8-1.5c-0.1,0.1-0.3,0.2-0.5,0.4c-0.3,0.3-0.5,0.5-0.8,0.8c-0.3,0.4-0.5,0.6-0.8,0.9c-0.3,0.3-0.4,0.4-0.6,0.6
		c-0.2,0.2-0.4,0.4-0.5,0.6c-0.3,0.2-0.4,0.5-0.5,0.7c-0.2,0.3-0.3,0.4-0.4,0.7c-0.2,0.3-0.2,0.4-0.2,0.7v0.4H8.7
		c-0.1,0-0.3,0-0.4-0.2c-0.2-0.1-0.4-0.2-0.5-0.4c-0.2-0.2-0.4-0.4-0.4-0.5c-0.1-0.2-0.2-0.4-0.1-0.4v-0.3c0.1-0.1,0.2-0.4,0.4-0.6
		c0.3-0.4,0.5-0.8,1-1.2C9,97.5,9.3,97,9.8,96.5c0.4-0.4,0.8-0.9,1.2-1.3c0.4-0.4,0.6-0.7,0.9-1c0.3-0.3,0.4-0.4,0.4-0.4l-1-2.4
		c-0.2,0-0.4,0-0.8,0c-0.3,0.1-0.6,0.1-0.9,0.1c-0.3,0-0.4,0-0.7,0c-0.2-0.1-0.3-0.2-0.3-0.4c0.1-0.3,0.1-0.5,0.3-0.7
		c0.1-0.3,0.3-0.4,0.5-0.4l8.3,0.4c1.2,0,2.2,0.1,3.2,0.1c0.9,0,1.7,0,2.4,0c0.8,0,1.4,0,2-0.1c0.5,0,1.2,0,1.7-0.1l0.3,0.1h0.1
		c0-0.1,0,0,0,0v0.1c0.1,0.1,0.1,0.1,0.1,0.1c0,0.1,0,0.1,0,0.1c0,0.1-0.1,0.4-0.2,0.5c-0.1,0.3-0.2,0.4-0.4,0.6
		c-0.1,0.2-0.3,0.4-0.4,0.5c-0.2,0.1-0.4,0.2-0.5,0.2H25.6z M15.3,113.1c0.8-0.4,1.3-1,1.6-1.7c0.4-0.7,0.4-1.4,0.4-2.1
		c-0.1-0.5-0.2-1.1-0.4-1.5c-0.2-0.5-0.4-1-0.8-1.3c-0.3-0.4-0.6-0.6-1.1-0.9c-0.4-0.2-0.9-0.3-1.5-0.2c-0.4,0.1-0.9,0.3-1.2,0.5
		c-0.4,0.3-0.7,0.5-1,1c-0.3,0.4-0.5,0.9-0.6,1.3c-0.1,0.5-0.2,1.1-0.1,1.6c0,0.2,0.1,0.3,0.1,0.5c0.1,0.3,0.2,0.4,0.3,0.6
		c0.1,0.4,0.3,0.8,0.5,1.1c0.2,0.4,0.4,0.6,0.8,0.8c0.3,0.2,0.6,0.4,1,0.4c0.4,0.1,0.7,0.2,1.1,0.1C14.6,113.4,15,113.3,15.3,113.1
		L15.3,113.1z M18.5,109.7c0.1,1.1,0,2.1-0.3,3.1c-0.4,1.4-1.2,2.2-2.4,2.4c-0.4,0.1-0.7,0.1-1.2,0c-0.4-0.1-0.8-0.3-1.2-0.5
		c-0.4-0.2-0.9-0.5-1.3-0.9c-0.4-0.4-0.9-0.7-1.2-1.2c-0.3-0.4-0.6-0.9-0.8-1.3c-0.3-0.4-0.4-0.9-0.4-1.4l-0.3-1.2
		c-0.1-0.6-0.1-1.2-0.1-1.8c0.1-0.5,0.2-1,0.4-1.4c0.4-1.1,1.1-1.6,2.3-1.8c1.2-0.2,2.3,0.1,3.4,0.7
		C17.1,105.4,18.1,107.2,18.5,109.7L18.5,109.7z M20,121.6c0.4,0.5,0.7,1,1,1.6c0.4,0.5,0.5,1.1,0.7,1.5c0.3,0.9,0.4,1.6,0.2,2.3
		s-0.6,1.2-1.4,1.5l-0.2,0.1c-0.8,0.3-1.6,0.3-2.4,0.1c-0.8-0.2-1.6-0.5-2.4-1c-0.7-0.4-1.3-1.1-2-1.7c-0.5-0.7-1-1.3-1.2-2.1
		c-0.2-0.6-0.3-1.3-0.3-2c0.1-0.7,0.3-1.4,0.5-2.1c-0.3-0.2-0.5-0.4-0.6-0.5c-0.2-0.1-0.3-0.2-0.4-0.2c-0.2-0.2-0.3-0.3-0.4-0.4
		c-0.1-0.1-0.2-0.2-0.2-0.2l2.9-1.1c1.8-0.6,3.3-1,4.7-1.2c1.4-0.2,2.6-0.3,3.5-0.2c2.5,0.3,4.3,1.5,5.6,3.8l0.1,0.3
		c0.2,0.5,0.1,1-0.3,1.4c-0.4,0.4-0.9,0.8-1.6,1.1c-0.4,0.2-1,0.3-1.4,0.3c-0.5,0-1.1,0-1.6-0.1c-0.5-0.1-1.1-0.3-1.5-0.5
		C20.9,122.1,20.4,121.9,20,121.6L20,121.6z M19.3,120.6c1.1,0.6,2,1,2.9,1.2c0.8,0.1,1.5,0.1,2-0.1c0.4-0.1,0.6-0.3,0.8-0.5
		c0.3-0.2,0.4-0.4,0.5-0.7c0.2-0.3,0.3-0.5,0.3-0.8c0.1-0.3,0-0.5-0.1-0.8c-0.1-0.4-0.3-0.6-0.4-0.8c-0.2-0.3-0.4-0.4-0.7-0.6
		c-0.3-0.2-0.6-0.3-0.9-0.4c-0.4-0.1-0.7-0.1-1.1-0.1s-0.7,0.1-1.2,0.1c-0.4,0.1-0.9,0.2-1.4,0.2c-0.4,0.1-0.9,0.3-1.3,0.4
		c-0.4,0.1-0.8,0.2-1.1,0.3l-0.9,0.4c0.4,0.3,0.8,0.6,1.2,1C18.5,119.7,18.9,120.1,19.3,120.6L19.3,120.6z M15.4,118.9l-1.7,0.5
		c-0.3,0.1-0.4,0.3-0.5,0.5c-0.2,0.3-0.3,0.6-0.3,1.1c-0.1,0.4-0.1,0.9,0,1.4c0.1,0.4,0.2,1,0.4,1.5c0.3,0.7,0.5,1.3,0.9,1.9
		c0.4,0.5,0.7,1,1.2,1.2c1.1,0.5,2,0.7,2.8,0.5c0.4-0.1,0.7-0.4,1-0.6c0.3-0.3,0.4-0.6,0.5-1c0.2-0.4,0.3-0.8,0.3-1.3
		c0-0.4-0.1-0.9-0.3-1.3l-0.2-0.6c-0.1-0.4-0.4-0.7-0.6-1.1c-0.4-0.4-0.6-0.6-0.9-1C17.2,119.6,16.3,119.2,15.4,118.9L15.4,118.9z
		 M19.2,130.9c1.2-0.2,2.7,0.2,4.4,1.1c1.9,1.1,3.2,2.3,4,3.9c0.1,0.3,0.2,0.5,0.3,0.8c0.1,0.4,0.1,0.6,0.1,0.9
		c0,0.3-0.1,0.5-0.2,0.7c-0.1,0.3-0.3,0.4-0.5,0.5c-0.1,0-0.2,0-0.3,0c-0.2,0-0.3,0-0.3-0.2v-0.2c0-0.1,0-0.3,0-0.5
		c0-0.3-0.1-0.4-0.2-0.7c-0.1-0.3-0.2-0.6-0.3-0.9c-0.1-0.3-0.2-0.5-0.4-0.9c-0.6-1.2-1.4-2.1-2.4-2.7c-1.2-0.7-2.6-0.7-3.9,0
		l-0.4,0.2c-0.4,0.3-0.5,0.5-0.7,0.9c-0.2,0.4-0.3,0.7-0.3,1.2c0,0.5,0.1,1,0.3,1.5c0.1,0.5,0.4,1.1,0.6,1.7
		c0.4,0.5,0.7,1.1,1.1,1.5c0.4,0.5,0.9,0.9,1.3,1.2c0.4,0.3,0.7,0.5,0.9,0.8c0.3,0.2,0.4,0.4,0.4,0.5c0,0,0,0.1,0,0.2
		c-0.1,0-0.1,0.1-0.1,0.1c-0.2,0.1-0.4,0.1-0.8-0.1c-0.3-0.2-0.6-0.4-1-0.7c-0.4-0.3-0.7-0.6-1.1-1.1c-0.4-0.5-0.7-0.9-1.1-1.4
		c-0.4-0.4-0.7-0.9-1-1.3c-0.3-0.5-0.5-0.8-0.7-1.2c-0.3-0.6-0.5-1.2-0.6-1.7c-0.2-0.5-0.3-1-0.3-1.4c0.1-1,0.6-1.8,1.5-2.2
		c0.1-0.1,0.2-0.1,0.3-0.1c0.1-0.1,0.1-0.1,0.3-0.1c0.1-0.1,0.2-0.1,0.3-0.1C18.8,131,18.9,131,19.2,130.9L19.2,130.9z M37.6,137.8
		L26.2,145c0.5,0.4,1.2,0.8,2,1.2c0.7,0.4,1.5,0.6,2.4,0.8c1,0.2,1.9,0.4,2.8,0.5c0.9,0.1,1.9,0.3,2.8,0.4c0,0.1,0,0.2,0,0.3
		c-0.1,0.1-0.1,0.3-0.2,0.4c-0.1,0.2-0.3,0.3-0.4,0.5c-0.1,0.1-0.3,0.2-0.4,0.3c-0.3,0.2-0.6,0.3-1.1,0.3c-0.4-0.1-1-0.2-1.4-0.4
		c-0.5-0.2-1.1-0.4-1.7-0.7c-0.5-0.2-1-0.5-1.5-0.7c0,0.1-0.1,0.4-0.1,0.7c-0.1,0.4-0.1,0.7-0.2,1.1c0,0.4-0.1,0.8-0.1,1.2
		c-0.1,0.4-0.1,0.6-0.2,0.8c0,0.3-0.1,0.6-0.1,0.9c0,0.3,0,0.6,0,0.9c0.1,0.3,0.1,0.5,0.2,0.8c0.1,0.3,0.2,0.4,0.3,0.7l0.3,0.3
		l-0.1,0.1c-0.2,0.1-0.3,0.1-0.5,0.2c-0.2,0-0.4,0-0.6,0c-0.3-0.1-0.4-0.1-0.6-0.2c-0.3-0.1-0.4-0.2-0.4-0.4l-0.1-0.2
		c0-0.1-0.1-0.4-0.1-0.8c0-0.4,0-0.9,0.1-1.5c0-0.5,0-1.1,0.1-1.8c0.1-0.6,0.1-1.2,0.1-1.8c0.1-0.5,0.1-1,0.2-1.3
		c0-0.4,0-0.5,0.1-0.5l-2.3-1.4c-0.2,0.2-0.4,0.4-0.6,0.6c-0.2,0.2-0.4,0.4-0.6,0.5c-0.3,0.2-0.4,0.3-0.6,0.4
		c-0.2,0.1-0.3,0.1-0.4-0.1c-0.1-0.3-0.2-0.4-0.3-0.7c0-0.2,0.1-0.5,0.3-0.6l6.8-4.6c1-0.7,1.9-1.3,2.6-1.9c0.7-0.5,1.4-1,2-1.5
		c0.6-0.4,1.1-0.8,1.6-1.2c0.4-0.4,0.9-0.7,1.3-1.1l0.2-0.1l0.1-0.1l0,0l0.1,0.1h0.1c0,0.1,0,0.1,0,0.1c0.1,0.1,0.2,0.3,0.3,0.5
		c0.1,0.3,0.1,0.4,0.1,0.7c0,0.3,0,0.5-0.1,0.7c-0.1,0.2-0.2,0.4-0.4,0.4L37.6,137.8z M34.6,153.5c0,0,0.2-0.2,0.4-0.4
		c0.3-0.3,0.6-0.5,1.1-0.9c0.1-0.1,0.2-0.2,0.3-0.3c0.2-0.1,0.3-0.3,0.4-0.4c0.2-0.1,0.4-0.2,0.4-0.3c0.2-0.1,0.3,0,0.4,0.1
		c0.1,0,0.2,0.2,0.3,0.4c0.1,0.2,0.2,0.4,0.2,0.5c0.1,0.2,0.1,0.4,0.1,0.5s0,0.3,0,0.4c-0.3,0.2-0.6,0.3-1,0.5
		c-0.4,0.2-0.7,0.4-1.1,0.7c-0.4,0.2-0.7,0.5-1.1,0.7c-0.3,0.2-0.5,0.4-0.7,0.6c-0.4,0.4-0.6,0.8-0.7,1.2c-0.1,0.4,0.1,0.6,0.4,1
		c0.7,0.6,2,0.9,3.7,0.6c1.6-0.2,3-0.5,4.1-1.2c0.2-0.1,0.4-0.1,0.7,0.1c0.3,0.1,0.5,0.3,0.8,0.5l-0.6,0.6c-0.2,0.1-0.3,0.3-0.5,0.5
		c-0.3,0.3-0.5,0.6-0.8,1c-0.3,0.4-0.5,0.7-0.8,1.1c-0.4,0.4-0.5,0.7-0.8,1.1c-0.2,0.4-0.4,0.7-0.4,1c-0.1,0.3,0,0.5,0.1,0.6
		c0.2,0.3,0.3,0.4,0.3,0.5c0,0.1-0.2,0.2-0.4,0.2c-0.3,0-0.5-0.1-0.9-0.2c-0.4-0.2-0.7-0.3-1.2-0.5c0-0.3,0.1-0.5,0.3-0.9
		c0.2-0.4,0.4-0.7,0.6-1.1c0.2-0.4,0.4-0.7,0.7-1.1c0.3-0.4,0.4-0.6,0.6-1c0.3-0.3,0.4-0.5,0.5-0.7c0.1-0.2,0.1-0.4,0.1-0.4
		c-1.2,0.4-2.6,0.5-4,0.4c-1.8-0.1-3-0.4-3.6-1.1c-0.5-0.5-0.7-1-0.6-1.5c0.2-0.5,0.4-1.1,1-1.6c0.1-0.2,0.3-0.3,0.4-0.4
		c0.2-0.2,0.4-0.3,0.5-0.4c0.2-0.2,0.4-0.4,0.4-0.4C34.4,153.6,34.5,153.5,34.6,153.5L34.6,153.5z M44,162.6
		c0.1-0.1,0.2-0.2,0.4-0.4c0.2-0.3,0.5-0.6,1-1.1c0,0,0.1-0.1,0.2-0.3c0.2-0.1,0.3-0.3,0.4-0.4c0.2-0.2,0.4-0.3,0.4-0.4
		c0.2-0.1,0.3-0.1,0.4,0c0.1,0.1,0.3,0.2,0.4,0.4c0.1,0.1,0.2,0.3,0.2,0.4c0.1,0.2,0.2,0.4,0.2,0.5c0.1,0.2,0.1,0.3,0,0.4
		c-0.2,0.2-0.5,0.4-0.8,0.7c-0.4,0.3-0.7,0.5-1.1,0.8c-0.3,0.3-0.6,0.6-0.9,0.9c-0.3,0.3-0.4,0.5-0.6,0.7c-0.4,0.5-0.5,0.9-0.5,1.2
		c0,0.4,0.2,0.6,0.5,0.9c0.8,0.5,2,0.6,3.7,0.2c1.6-0.5,2.9-1,3.9-1.8c0.2-0.2,0.4-0.2,0.7-0.1c0.3,0,0.5,0.2,0.9,0.4l-0.6,0.7
		c-0.1,0.1-0.2,0.3-0.4,0.6c-0.3,0.3-0.4,0.6-0.7,1c-0.2,0.4-0.4,0.8-0.6,1.2c-0.3,0.4-0.4,0.9-0.6,1.2c-0.2,0.4-0.3,0.7-0.3,1
		c-0.1,0.4,0,0.5,0.1,0.6c0.3,0.3,0.4,0.4,0.4,0.5c0,0.1-0.1,0.2-0.4,0.2c-0.2,0-0.4,0-0.8-0.1c-0.4,0-0.8-0.2-1.2-0.3
		c-0.1-0.3,0-0.6,0.1-1c0.2-0.4,0.3-0.7,0.4-1.1c0.2-0.4,0.4-0.8,0.5-1.2c0.3-0.4,0.4-0.8,0.5-1.1c0.2-0.4,0.4-0.6,0.4-0.8
		c0-0.3,0.1-0.4,0-0.4c-1.2,0.5-2.4,0.9-3.9,1.1c-1.7,0.2-3,0-3.7-0.5c-0.5-0.5-0.8-0.9-0.8-1.4c0.1-0.6,0.3-1.1,0.7-1.8
		c0.1-0.1,0.3-0.3,0.4-0.4c0.2-0.2,0.4-0.4,0.5-0.5c0.1-0.2,0.3-0.4,0.4-0.5C43.9,162.7,44,162.6,44,162.6L44,162.6z M54.2,162
		c-0.4-0.2-0.7-0.4-1.2-0.6c-0.4-0.2-0.9-0.4-1.3-0.7c-0.4-0.3-0.9-0.5-1.2-0.8c-0.4-0.3-0.8-0.5-1.2-0.7l-0.3-0.1
		c-0.3-0.1-0.4-0.3-0.5-0.5c-0.2-0.4-0.3-0.6-0.3-0.9c0-0.4,0-0.6,0-1c0.1-0.3,0.2-0.5,0.3-0.7l0.2-0.1c0.1,0,0.1,0,0.2,0
		c0.1,0,0.1,0.1,0.2,0.1c0.3,0.4,0.5,0.7,0.9,1.2c0.4,0.4,0.7,0.9,1.1,1.2c0.4,0.4,0.9,0.9,1.3,1.3c0.4,0.4,1,0.8,1.5,1.1l2,1.2
		c0.1,0.2,0.2,0.2,0.1,0.3c-0.1,0-0.3,0.1-0.4,0.1c-0.3,0-0.4-0.1-0.7-0.1C54.6,162.2,54.4,162.1,54.2,162L54.2,162z"/>
	<path id="XMLID_151_" class="st49" d="M56.7,179.4l13-6.8l-3.1-7.8c-0.3-0.5-0.5-1-1-1.4c-0.4-0.5-0.8-0.9-1.2-1.2l0.4-0.3l1.3,0.4
		c0.9,0.3,1.6,0.7,2.2,1.4c0.6,0.8,1.1,1.6,1.4,2.7c0.3,0.9,0.5,1.8,0.8,2.7c0.3,0.9,0.5,1.8,0.7,2.8c0.4-0.3,0.9-0.4,1.3-0.7
		c0.4-0.3,0.9-0.4,1.3-0.7c0.6-0.4,1.3-0.6,2-1c0.6-0.4,1.2-0.6,1.9-0.9c1.4-0.6,2.5-1.1,3.2-1.3l0.3,0.1c0.2,0.1,0.4,0.2,0.5,0.4
		c0.1,0.3,0.3,0.4,0.4,0.7c0.1,0.3,0.2,0.5,0.3,0.7c0,0.3,0,0.5,0,0.5c-0.1,0.2-0.1,0.2-0.3,0.1c-0.1,0-0.2-0.1-0.4-0.2
		c-0.3-0.1-0.6-0.1-1.1,0c-0.5,0-1.1,0.2-1.6,0.3c-0.6,0.2-1.2,0.4-2,0.6c-0.6,0.2-1.2,0.4-2,0.7c-0.6,0.3-1.2,0.5-1.9,0.8
		c-0.6,0.3-1.2,0.4-1.6,0.7c0.3,1,0.5,2,0.9,3.1c0.4,1.2,0.7,2.2,1.2,3.4c1.2,3,2.2,4.7,3,5c0.2,0.1,0.3,0.1,0.2,0.2
		s-0.4,0.2-0.6,0.3c-0.3,0-0.6,0.1-1,0.1s-0.7-0.1-1-0.2l-0.4-0.2c-0.2-0.2-0.4-0.4-0.6-0.8c-0.2-0.4-0.4-0.9-0.6-1.4
		c-0.3-0.6-0.4-1.2-0.7-2c-0.3-0.7-0.5-1.4-0.8-2.2c-0.3-0.8-0.4-1.5-0.7-2.3c-0.3-0.8-0.4-1.5-0.7-2.1c-1.3,0.7-2.6,1.5-3.8,2.2
		c-1.2,0.8-2.3,1.5-3.5,2.3c-0.2,0.2-0.4,0.4-0.7,0.6c-0.4,0.2-0.7,0.4-1.1,0.8c-0.4,0.3-0.8,0.6-1.2,0.9c-0.4,0.4-0.8,0.6-1.2,0.9
		c-0.4,0.3-0.6,0.4-0.9,0.6c-0.3,0.1-0.4,0.2-0.5,0.2c0-0.1-0.1-0.2-0.2-0.4c-0.1-0.2-0.1-0.4-0.2-0.7c0-0.2-0.1-0.4-0.1-0.7
		C56.5,179.8,56.5,179.6,56.7,179.4L56.7,179.4z M80.4,180.3c0.1-0.1,0.1-0.3,0.2-0.6c0.1-0.4,0.2-0.8,0.4-1.3
		c0-0.1,0.1-0.2,0.1-0.4c0-0.2,0.1-0.4,0.2-0.5c0-0.2,0.1-0.4,0.2-0.5c0.1-0.1,0.2-0.2,0.4-0.2c0.1,0.1,0.3,0.1,0.4,0.2
		c0.2,0.1,0.4,0.2,0.5,0.4c0.1,0.1,0.3,0.3,0.4,0.4c0.1,0.2,0.2,0.3,0.2,0.4c-0.2,0.3-0.3,0.6-0.4,1c-0.2,0.4-0.4,0.8-0.5,1.2
		c-0.1,0.4-0.3,0.8-0.4,1.2c-0.1,0.4-0.2,0.7-0.3,0.9c0,0.6,0,1.1,0.2,1.3c0.1,0.4,0.4,0.5,0.9,0.6c0.9,0.1,2-0.4,3.4-1.6
		c1.2-1.2,2-2.3,2.6-3.5c0.1-0.2,0.3-0.4,0.5-0.4c0.3-0.1,0.6-0.1,1-0.1l-0.1,1c-0.1,0.1-0.1,0.4-0.1,0.7c-0.1,0.4-0.1,0.7-0.1,1.2
		c0,0.5,0,0.9,0,1.3c-0.1,0.5,0,1,0,1.4c0.1,0.4,0.2,0.7,0.3,1c0.1,0.3,0.2,0.4,0.4,0.4c0.4,0.1,0.5,0.3,0.5,0.4
		c0.1,0.1,0,0.2-0.2,0.4c-0.2,0.1-0.4,0.2-0.8,0.3c-0.4,0.2-0.8,0.3-1.2,0.4c-0.2-0.3-0.3-0.5-0.3-0.9c-0.1-0.4-0.2-0.8-0.2-1.2
		c0-0.4-0.1-0.8-0.1-1.2c0-0.4,0-0.8,0-1.2c0-0.4,0-0.7-0.1-0.9c0-0.3,0-0.4-0.1-0.4c-0.8,1-1.8,1.9-2.9,2.8c-1.5,1-2.7,1.3-3.6,1.2
		c-0.6-0.1-1.1-0.4-1.3-0.9c-0.3-0.5-0.3-1.2-0.2-1.9c0-0.2,0.1-0.4,0.1-0.6c0.1-0.2,0.1-0.4,0.2-0.7c0-0.2,0.1-0.4,0.2-0.6
		C80.4,180.5,80.4,180.3,80.4,180.3L80.4,180.3z M105.8,178.3l-2.3,7.9l-0.2,0.1c0,0.1-0.2-0.2-0.4-0.5c-0.3-0.4-0.5-0.9-0.9-1.5
		c-0.4-0.6-0.7-1.2-1.1-2c-0.4-0.7-0.7-1.3-1-2c-0.3-0.5-0.4-1-0.6-1.2c-0.1-0.4-0.2-0.4-0.1-0.2l-1.3,4.1c-0.3,1-0.5,1.8-0.8,2.3
		c-0.2,0.5-0.4,1-0.4,1.2c-0.6,1.4-1.2,2.1-1.6,2.2c-0.2,0-0.4,0-0.5-0.1c-0.2-0.1-0.3-0.2-0.4-0.4c-0.1-0.1-0.2-0.3-0.3-0.4
		c-0.1-0.2-0.1-0.4-0.1-0.4c-0.1-0.2,0-0.3,0.1-0.4l0.4,0.1c0.2,0.1,0.4-0.1,0.7-0.4c0.3-0.3,0.5-0.6,0.9-1c0.3-0.4,0.6-0.9,0.9-1.4
		c0.3-0.5,0.4-1,0.6-1.4c0.1-0.1,0.2-0.4,0.3-0.7c0.1-0.5,0.3-0.9,0.4-1.4c0.2-0.5,0.4-0.9,0.4-1.4c0.2-0.4,0.4-0.8,0.4-1.1
		c-0.1-0.1-0.2-0.2-0.3-0.3c-0.2-0.2-0.3-0.3-0.4-0.4c-0.1-0.2-0.2-0.3-0.3-0.4c0,0,0-0.1,0.2-0.1c0.2,0,0.4,0,0.5-0.1
		c0.2,0,0.4,0,0.6,0c0.2,0,0.4,0,0.5,0c0.2,0,0.4,0,0.4,0.1c0,0,0.1,0.2,0.3,0.4c0.1,0.2,0.3,0.5,0.5,0.9c0.2,0.4,0.5,0.7,0.6,1.2
		c0.3,0.4,0.5,0.9,0.7,1.3c0.3,0.5,0.5,0.9,0.7,1.2c0.2,0.4,0.4,0.6,0.4,0.9c0.1-0.1,0.2-0.4,0.4-1c0.1-0.5,0.4-1.2,0.6-2.1
		c0.2-0.4,0.3-0.8,0.4-1.2c0.1-0.4,0.2-0.8,0.4-1.1c0.1-0.4,0.3-0.6,0.4-0.8c0.2-0.3,0.4-0.4,0.8-0.4h0.3c0,0,0.1,0.2,0.4,0.6
		c0.2,0.4,0.5,0.8,0.9,1.4c0.4,0.6,0.7,1.2,1.1,2c0.4,0.7,0.8,1.3,1.1,2c0.4,0.5,0.6,1.1,0.9,1.4c0.3,0.5,0.4,0.6,0.4,0.6v0.2
		c0,0-0.1,0.1-0.2,0.2c-0.1,0-0.3,0.1-0.4,0.2c-0.2,0.1-0.4,0.2-0.5,0.3c-0.2,0.1-0.3,0.2-0.4,0.3l-0.2,0.1c-0.1,0-0.2-0.1-0.4-0.4
		c-0.2-0.3-0.4-0.7-0.7-1.2c-0.2-0.5-0.4-1.1-0.8-1.7c-0.3-0.5-0.5-1.1-0.8-1.7c-0.3-0.6-0.5-1.2-0.7-1.6
		C106,178.8,105.9,178.5,105.8,178.3L105.8,178.3z M112.8,180.8c0,0,0-0.3-0.1-0.5c0-0.4-0.1-0.8-0.2-1.4c0-0.1,0-0.2-0.1-0.4
		c0-0.2,0-0.4,0-0.5c-0.1-0.2-0.1-0.4,0-0.5c0-0.2,0.1-0.3,0.2-0.3c0.2-0.1,0.3-0.1,0.4,0c0.2,0,0.4,0,0.6,0.1
		c0.2,0.1,0.3,0.2,0.4,0.2c0.2,0.1,0.3,0.2,0.4,0.3c-0.1,0.3-0.1,0.6-0.1,1.1c0,0.4,0,0.9,0,1.3c0,0.4,0,0.8,0.1,1.2
		c0,0.4,0.1,0.7,0.1,1c0.2,0.5,0.4,0.9,0.6,1.2c0.3,0.3,0.6,0.4,1.1,0.2c0.9-0.2,1.8-1.2,2.5-2.8c0.7-1.5,1.2-2.8,1.2-4.1
		c0-0.3,0.1-0.5,0.4-0.6s0.5-0.3,0.9-0.4l0.3,0.9c0,0.1,0.1,0.4,0.2,0.7c0.1,0.4,0.3,0.7,0.4,1.2c0.2,0.4,0.4,0.8,0.5,1.3
		c0.2,0.4,0.4,0.8,0.5,1.1c0.2,0.4,0.4,0.7,0.6,0.9c0.2,0.3,0.4,0.4,0.5,0.3c0.3,0,0.5,0,0.6,0.1c0,0.1,0,0.3-0.1,0.5
		c-0.1,0.2-0.4,0.4-0.6,0.6c-0.3,0.2-0.6,0.4-1.1,0.7c-0.2-0.2-0.4-0.4-0.5-0.7c-0.3-0.4-0.4-0.7-0.6-1.1c-0.2-0.4-0.4-0.8-0.5-1.1
		c-0.2-0.4-0.4-0.8-0.4-1.1c-0.2-0.4-0.3-0.6-0.4-0.8c-0.1-0.3-0.2-0.4-0.3-0.3c-0.3,1.2-0.8,2.4-1.7,3.6c-1,1.4-2,2.2-2.8,2.5
		c-0.6,0.2-1.2,0.1-1.6-0.4c-0.4-0.4-0.6-0.9-0.9-1.7c0-0.1,0-0.3-0.1-0.5c0-0.3-0.1-0.5-0.1-0.7c-0.1-0.3-0.1-0.4-0.1-0.6
		C112.8,181.1,112.8,180.9,112.8,180.8L112.8,180.8z M130.9,172.4c0.1-0.4,0.5-0.6,1.1-0.9l0.3,0.9c0.1,0.1,0.2,0.4,0.4,0.6
		c0.1,0.4,0.3,0.7,0.5,1.1c0.2,0.4,0.4,0.9,0.7,1.2c0.3,0.4,0.4,0.8,0.7,1.2c0.3,0.4,0.5,0.6,0.7,0.8c0.3,0.2,0.4,0.3,0.5,0.3
		c0.4-0.1,0.5-0.1,0.6,0c0.1,0,0.1,0.2,0,0.4c-0.1,0.2-0.3,0.4-0.5,0.7c-0.3,0.3-0.5,0.5-0.9,0.9c-0.2-0.1-0.4-0.3-0.6-0.6
		c-0.3-0.3-0.5-0.7-0.9-1.2c-1.5-2.2-2.3-3.3-2.4-3.2c-0.4,1-0.8,2-1.2,2.8c-0.4,0.5-0.6,1-1,1.2c-0.3,0.4-0.6,0.5-0.9,0.6
		c-0.6,0.3-1.2,0.2-1.6-0.2c-0.5-0.4-0.9-0.8-1.2-1.5c-0.1-0.2-0.1-0.4-0.2-0.5c-0.1-0.3-0.2-0.5-0.3-0.7c0-0.3-0.1-0.4-0.2-0.6
		c0-0.2-0.1-0.4-0.1-0.4c-0.1-0.2-0.1-0.4-0.2-0.5c0-0.1-0.1-0.3-0.1-0.5c0-0.1,0.1-0.3,0.1-0.4c0.1-0.1,0.1-0.2,0.3-0.3h0.3
		c0.3-0.1,0.5,0,0.7,0.1c0.3,0.1,0.4,0.2,0.4,0.3c0,0.2,0.1,0.4,0.2,0.6c0,0.2,0.1,0.4,0.1,0.7c0.1,0.3,0.1,0.5,0.1,0.7
		c0.1,0.2,0.1,0.3,0.2,0.4c0.2,0.5,0.4,0.9,0.7,1.1c0.3,0.3,0.6,0.3,1.1,0.1c0.3-0.2,0.6-0.4,0.9-0.7c0.3-0.4,0.5-0.7,0.7-1.2
		c0.3-0.4,0.4-1,0.6-1.5C130.6,173.6,130.8,172.9,130.9,172.4L130.9,172.4z M138.6,172.7c0.7-0.6,1.4-1.2,2.1-1.9
		c0.7-0.5,1.3-1.2,2-1.8c0.4-0.3,0.5-0.5,0.6-0.8c0.1-0.3,0-0.5-0.1-0.7l-0.2-0.4c-0.3-0.4-0.6-0.6-1.1-0.6
		c-0.5-0.1-1.1,0.1-1.7,0.4c-0.4,0.3-0.7,0.6-1,1.1c-0.3,0.4-0.5,0.9-0.7,1.4c-0.1,0.5-0.2,1.1-0.3,1.6
		C138.4,171.7,138.5,172.1,138.6,172.7L138.6,172.7z M137.3,172.3c0-0.8,0.1-1.5,0.2-2.2c0.2-0.6,0.4-1.2,0.8-1.9
		c0-0.1,0.2-0.3,0.4-0.4c0.2-0.3,0.4-0.4,0.6-0.7c0.3-0.3,0.5-0.5,0.8-0.8c0.3-0.2,0.6-0.5,0.9-0.6c0.6-0.5,1.2-0.7,1.8-0.7
		c0.6-0.1,1.1,0.1,1.3,0.5c0.1,0.2,0.3,0.4,0.4,0.5c0.2,0.2,0.4,0.4,0.4,0.4c0.2,0.2,0.4,0.3,0.4,0.4c0.1,0.2,0.1,0.3,0.1,0.4
		l-6.5,6c0.7,0.7,1.5,1.1,2.4,1.2c0.8,0,1.8-0.3,2.7-0.9c0.3-0.2,0.6-0.5,1-0.9c0.4-0.4,0.8-0.8,1.2-1.2c0.4-0.4,0.8-0.9,1.2-1.2
		c0.4-0.4,0.8-0.7,1.1-1c0.2-0.1,0.3-0.1,0.4-0.1c0.2,0.1,0.2,0.3,0,0.5c-0.2,0.3-0.4,0.6-0.8,1c-0.4,0.4-0.8,0.8-1.2,1.3
		c-0.5,0.4-1.1,0.9-1.5,1.2c-0.4,0.4-0.9,0.8-1.3,1.1c-0.4,0.3-0.6,0.5-0.8,0.6c-0.5,0.4-1.1,0.6-1.6,0.9c-0.5,0.2-1.1,0.4-1.5,0.4
		c-1.1,0.1-1.8-0.2-2.3-1C137.5,174.6,137.4,173.6,137.3,172.3L137.3,172.3z M149.4,165.6c-0.5-1.1-0.5-2.6,0-4.6
		c0.5-2,1.5-3.6,2.8-4.8c0.2-0.2,0.4-0.4,0.7-0.4c0.3-0.2,0.5-0.3,0.8-0.4c0.3,0,0.5,0,0.8,0c0.2,0.1,0.4,0.2,0.5,0.4
		c0.1,0.1,0.1,0.2,0.2,0.4c0,0.1,0,0.3-0.1,0.3l-0.3,0.1c-0.1,0-0.3,0-0.5,0.1c-0.2,0.1-0.4,0.2-0.6,0.4c-0.3,0.1-0.5,0.3-0.8,0.4
		c-0.3,0.2-0.4,0.4-0.7,0.6c-1.1,0.9-1.8,1.9-2,2.9c-0.4,1.4-0.1,2.7,0.9,3.8l0.4,0.3c0.3,0.3,0.6,0.4,1,0.5c0.4,0,0.8,0,1.2-0.1
		c0.4-0.1,0.9-0.4,1.3-0.6c0.5-0.3,1-0.6,1.5-1c0.4-0.4,0.9-1,1.2-1.4c0.4-0.5,0.6-1.1,0.8-1.5c0.2-0.4,0.3-0.9,0.4-1.1
		c0.2-0.3,0.3-0.4,0.4-0.4c0.1-0.1,0.1-0.1,0.2-0.1s0.1,0,0.1,0c0.2,0.2,0.3,0.5,0.2,0.8c-0.1,0.4-0.3,0.7-0.4,1.2
		c-0.3,0.4-0.5,0.9-0.8,1.3c-0.4,0.5-0.7,1-1.1,1.4c-0.4,0.4-0.7,0.8-1.1,1.2c-0.4,0.4-0.7,0.7-1.1,0.9c-0.4,0.4-1,0.8-1.4,1.1
		c-0.4,0.3-0.9,0.4-1.3,0.5c-1,0.2-1.9-0.1-2.6-0.9c0-0.1-0.1-0.2-0.1-0.2c-0.1-0.1-0.1-0.2-0.2-0.3c0,0-0.1-0.2-0.2-0.3
		C149.6,165.9,149.5,165.7,149.4,165.6L149.4,165.6z M151,146.9l10.3,8.9c0.3-0.7,0.4-1.4,0.5-2.2c0.1-0.8,0.1-1.7,0.1-2.6
		c-0.1-0.9-0.3-1.9-0.4-2.8c-0.2-1-0.4-2-0.4-2.8c0-0.1,0.1-0.1,0.3-0.1c0.1,0,0.2,0,0.4,0.1c0.2,0,0.4,0.1,0.4,0.2
		c0.2,0.1,0.4,0.2,0.4,0.3c0.3,0.2,0.4,0.5,0.5,0.9c0.1,0.4,0.1,1,0.1,1.5c0,0.5-0.1,1.2-0.2,1.8c-0.1,0.5-0.2,1.1-0.3,1.7
		c0.2,0,0.4-0.1,0.7-0.1c0.4-0.1,0.7-0.2,1.1-0.2c0.4-0.1,0.8-0.2,1.2-0.3c0.4-0.1,0.6-0.1,0.8-0.1c0.3-0.1,0.6-0.1,0.9-0.2
		c0.3-0.1,0.5-0.2,0.8-0.3c0.3-0.1,0.5-0.3,0.8-0.4c0.2-0.2,0.4-0.4,0.5-0.5l0.2-0.4l0.1,0.2c0.2,0.1,0.3,0.2,0.4,0.4
		c0.1,0.3,0.2,0.4,0.2,0.6c0,0.3,0.1,0.4,0,0.7c0,0.2-0.1,0.4-0.2,0.4l-0.2,0.2c-0.1,0.1-0.4,0.2-0.7,0.3c-0.4,0.2-0.9,0.3-1.4,0.4
		c-0.5,0.1-1.2,0.3-1.8,0.4c-0.6,0.2-1.1,0.3-1.7,0.4c-0.5,0.1-1,0.2-1.3,0.3c-0.4,0.1-0.5,0.1-0.5,0.1l-0.7,2.6
		c0.3,0.2,0.4,0.3,0.7,0.5c0.3,0.2,0.5,0.3,0.8,0.4c0.2,0.2,0.4,0.3,0.5,0.4c0.1,0.2,0.1,0.3,0,0.4c-0.2,0.2-0.4,0.4-0.6,0.5
		c-0.2,0.1-0.4,0.1-0.6,0l-6.5-5.2c-1-0.7-1.8-1.3-2.5-1.9c-0.7-0.5-1.4-1.1-2-1.5c-0.5-0.4-1.1-0.7-1.6-1.1c-0.5-0.4-1-0.6-1.4-1
		l-0.2-0.2h-0.1c0,0,0,0,0-0.1c0,0,0,0,0-0.1l0.1-0.1l0,0c0.1-0.2,0.3-0.3,0.4-0.4c0.2-0.1,0.4-0.2,0.6-0.3c0.3-0.1,0.4-0.1,0.7-0.1
		c0.2-0.1,0.4,0,0.5,0.1L151,146.9z M167.5,145.3c0,0-0.2-0.2-0.4-0.4c-0.3-0.2-0.7-0.4-1.2-0.8c-0.1-0.1-0.2-0.1-0.3-0.2
		c-0.2-0.1-0.4-0.3-0.5-0.4c-0.1-0.1-0.3-0.3-0.4-0.4c-0.1-0.2-0.1-0.3,0-0.4c0-0.1,0.2-0.3,0.3-0.4c0.2-0.1,0.3-0.2,0.4-0.3
		c0.2-0.1,0.4-0.2,0.5-0.3c0.2,0,0.3-0.1,0.4-0.1c0.2,0.3,0.4,0.5,0.8,0.8c0.3,0.4,0.6,0.6,0.9,0.9c0.4,0.3,0.7,0.5,1,0.8
		c0.4,0.3,0.6,0.4,0.8,0.5c0.5,0.3,1,0.4,1.3,0.4c0.4-0.1,0.6-0.3,0.8-0.6c0.4-0.9,0.4-2.1-0.3-3.8c-0.6-1.5-1.3-2.8-2.3-3.6
		c-0.1-0.1-0.2-0.4-0.2-0.6c0.1-0.3,0.2-0.6,0.4-1l0.8,0.5c0.2,0,0.4,0.2,0.7,0.3c0.3,0.2,0.6,0.4,1.1,0.5c0.4,0.2,0.9,0.4,1.3,0.5
		c0.4,0.2,0.9,0.4,1.2,0.4c0.5,0.1,0.8,0.2,1.1,0.2c0.3,0,0.4-0.1,0.5-0.3c0.2-0.2,0.4-0.4,0.4-0.4c0.2,0,0.3,0.1,0.3,0.4
		c0.1,0.2,0.1,0.4,0.1,0.8c-0.1,0.4-0.1,0.8-0.2,1.3c-0.3,0-0.6,0-1-0.1c-0.4-0.1-0.7-0.2-1.2-0.3c-0.4-0.2-0.8-0.3-1.2-0.5
		c-0.4-0.1-0.7-0.3-1.1-0.4c-0.4-0.2-0.6-0.3-0.9-0.3c-0.2-0.1-0.3-0.1-0.4,0c0.7,1.1,1.2,2.3,1.5,3.7c0.4,1.7,0.4,2.9-0.1,3.8
		c-0.4,0.5-0.8,0.9-1.3,0.9c-0.5,0.1-1.2-0.1-1.8-0.5c-0.2-0.1-0.4-0.2-0.5-0.4c-0.2-0.1-0.4-0.3-0.6-0.4c-0.2-0.2-0.4-0.3-0.5-0.4
		C167.7,145.4,167.6,145.4,167.5,145.3L167.5,145.3z M173.9,133.8c0-0.1-0.2-0.2-0.5-0.3c-0.3-0.2-0.7-0.4-1.2-0.7
		c0,0-0.2-0.1-0.3-0.1c-0.2-0.1-0.4-0.2-0.5-0.3c-0.2-0.1-0.3-0.3-0.4-0.4c-0.1-0.1-0.1-0.2-0.1-0.4c0.1-0.1,0.2-0.2,0.3-0.4
		c0.1-0.1,0.3-0.3,0.4-0.4c0.2-0.1,0.3-0.2,0.5-0.3c0.2-0.1,0.3-0.2,0.4-0.2c0.3,0.3,0.5,0.5,0.9,0.7c0.3,0.3,0.6,0.5,1.1,0.7
		c0.4,0.3,0.7,0.4,1,0.7c0.4,0.2,0.7,0.3,0.9,0.4c0.5,0.3,1,0.4,1.3,0.3c0.4-0.1,0.6-0.4,0.8-0.8c0.4-0.9,0.1-2-0.8-3.6
		c-0.9-1.4-1.8-2.5-2.8-3.3c-0.2-0.1-0.3-0.4-0.3-0.6c0-0.3,0-0.6,0.2-1l0.8,0.4c0.2,0.1,0.4,0.1,0.7,0.3c0.4,0.1,0.8,0.2,1.2,0.4
		c0.4,0.1,0.9,0.2,1.4,0.4c0.4,0.1,0.9,0.2,1.3,0.2c0.4,0.1,0.7,0.1,1.1,0.1c0.3-0.1,0.4-0.2,0.5-0.4c0.1-0.3,0.3-0.4,0.4-0.4
		c0.2,0,0.3,0.1,0.4,0.3c0,0.3,0.1,0.5,0.1,0.9c0.1,0.4,0.1,0.8,0,1.2c-0.2,0.1-0.5,0.2-0.9,0.1c-0.4,0-0.8,0-1.2-0.1
		c-0.4-0.1-0.9-0.2-1.3-0.3c-0.4-0.1-0.8-0.2-1.2-0.3c-0.4,0-0.6-0.1-0.9-0.1c-0.2,0-0.4,0-0.4,0.1c0.8,0.9,1.5,2,2,3.5
		c0.6,1.6,0.7,2.8,0.4,3.8c-0.2,0.5-0.6,0.9-1.2,1.1c-0.5,0.1-1.2,0-1.9-0.3c-0.1,0-0.3-0.1-0.5-0.2c-0.2-0.2-0.4-0.3-0.6-0.4
		c-0.3-0.1-0.4-0.2-0.6-0.3C174.1,133.9,174,133.8,173.9,133.8L173.9,133.8z M170.8,124c-0.1,0.4-0.2,0.9-0.3,1.3
		c-0.1,0.4-0.3,1-0.4,1.4c-0.2,0.5-0.4,1.1-0.4,1.5c-0.2,0.4-0.3,0.9-0.4,1.2v0.3c0,0.3-0.2,0.5-0.4,0.7c-0.3,0.2-0.5,0.4-0.8,0.4
		c-0.4,0.2-0.6,0.2-1,0.2c-0.3,0.1-0.5,0-0.7,0l-0.2-0.2v-0.1c0-0.1,0-0.2,0-0.2c0.3-0.4,0.6-0.8,0.9-1.2c0.4-0.4,0.7-1,1-1.4
		c0.4-0.5,0.6-1.1,0.9-1.6c0.3-0.6,0.5-1.2,0.7-1.8l0.7-2.2c0-0.2,0.1-0.2,0.2-0.1c0.1,0.1,0.1,0.2,0.2,0.4c0,0.2,0.1,0.4,0.1,0.6
		C170.9,123.8,170.9,124,170.8,124L170.8,124z"/>
	<path id="XMLID_143_" class="st49" d="M172.5,102l7,4.7c0.5,0.4,1.2,0.8,1.8,1.3c0.5,0.4,1.2,1,1.8,1.5c0.9,0.6,1.6,1.2,2.2,1.9
		c0.6,0.5,1.2,1.1,1.7,1.6c1.2,1.2,1.7,2.1,1.7,2.7v0.2c-0.1,0.2-0.2,0.4-0.4,0.6c-0.2,0.2-0.4,0.4-0.6,0.5
		c-0.2,0.2-0.4,0.3-0.6,0.4c-0.3,0.1-0.4,0.2-0.6,0.2c-0.2-0.1-0.2-0.1-0.2-0.3c0-0.2,0.1-0.4,0.4-0.5l0.1-0.4
		c0.1-0.3,0-0.6-0.2-1.2c-0.3-0.4-0.5-1-1-1.5c-0.4-0.5-1-1.2-1.5-1.8c-0.5-0.5-1.2-1.1-1.7-1.7c-0.6-0.5-1.2-1.1-1.7-1.5
		c-0.4-0.5-0.9-0.8-1.2-1.1c-1.2-0.9-2.5-1.8-3.7-2.7c-1.3-0.8-2.6-1.7-3.8-2.7c-0.5,0.3-1,0.5-1.3,1c-0.1,0.1-0.2,0.3-0.4,0.5
		c-0.1,0.3-0.2,0.5-0.3,0.8c-0.2,0.3-0.3,0.4-0.4,0.6c-0.1,0.2-0.2,0.3-0.2,0.3c-0.3,0-0.4-0.3-0.3-1c0-0.9,0.1-1.6,0.3-2.1
		c0.1-0.5,0.4-1.1,0.7-1.4c0.3-0.4,0.8-0.7,1.4-1c0.6-0.3,1.4-0.7,2.6-1.1c1.2-0.5,2.3-1,3.5-1.4c1.2-0.4,2.3-0.9,3.5-1.4
		c2.6-1.1,4.1-1.9,4.5-2.4c0.1-0.1,0.2-0.2,0.3-0.3c0,0,0.1-0.1,0.2-0.2c0,0,0.1,0,0.2,0.1c0.2,0,0.3,0,0.4,0.2
		c0.1,0.1,0.3,0.3,0.4,0.5c0.1,0.2,0.2,0.5,0.1,1c0,0.4-0.1,0.6-0.4,0.8c-0.2,0.2-0.6,0.4-1.1,0.6c-0.5,0.3-1.2,0.5-2,0.8
		c-0.8,0.3-1.9,0.7-3.1,1.1C177.7,99.6,175.1,100.8,172.5,102L172.5,102z M182,91.4c-0.1,0-0.3,0-0.6,0.1c-0.4,0-0.8,0-1.4,0
		c0,0-0.2,0-0.4,0s-0.4,0-0.5,0c-0.2,0-0.4,0-0.5,0c-0.2-0.1-0.3-0.2-0.3-0.3c0-0.2,0-0.3,0.1-0.4c0-0.2,0.1-0.4,0.2-0.5
		c0.1-0.2,0.2-0.4,0.3-0.5c0.1-0.1,0.2-0.2,0.3-0.3c0.3,0.1,0.6,0.2,1.1,0.2c0.4,0.1,0.8,0.1,1.2,0.2c0.5,0,0.9,0,1.2,0
		c0.4,0,0.7,0,1,0c0.6-0.1,1-0.3,1.2-0.4c0.3-0.3,0.4-0.6,0.4-1.1c-0.2-1-1-1.9-2.5-2.8c-1.4-0.9-2.8-1.4-4-1.6
		c-0.3,0-0.4-0.2-0.5-0.4c-0.2-0.3-0.3-0.5-0.4-0.9l1-0.2c0.1,0,0.4,0,0.7-0.1c0.4-0.1,0.7-0.2,1.2-0.3c0.4-0.1,0.9-0.2,1.4-0.4
		c0.4-0.1,0.9-0.3,1.2-0.4c0.4-0.2,0.7-0.3,1-0.4c0.2-0.2,0.3-0.4,0.3-0.5c0-0.4,0.1-0.5,0.2-0.6c0.1-0.1,0.2,0,0.4,0.1
		c0.2,0.2,0.4,0.4,0.5,0.7c0.3,0.3,0.4,0.7,0.6,1.1c-0.2,0.3-0.4,0.4-0.7,0.5c-0.4,0.2-0.7,0.4-1.2,0.5c-0.4,0.1-0.8,0.3-1.2,0.4
		c-0.4,0.2-0.7,0.3-1.1,0.4c-0.4,0.1-0.6,0.3-0.9,0.3c-0.2,0.2-0.3,0.2-0.3,0.3c1.2,0.4,2.3,1.2,3.5,2.1c1.3,1.1,2,2.1,2.2,3.1
		c0.1,0.6-0.1,1.2-0.5,1.5c-0.4,0.4-1,0.5-1.8,0.7c-0.1,0-0.3,0-0.5,0c-0.3,0-0.4,0.1-0.7,0.1c-0.3,0-0.4,0-0.7,0
		C182.2,91.4,182.1,91.4,182,91.4L182,91.4z M179.9,68c-0.3-0.1-0.4-0.1-0.5-0.1c-0.3-0.1-0.5-0.2-0.7-0.2c-0.2,0-0.4,0-0.4-0.1
		c-0.3-0.2-0.4-0.3-0.3-0.3c0.1-0.1,0.4-0.1,0.6-0.1c0.3,0,0.7,0,1.2,0.1c0.4,0,0.8,0.1,1.2,0.1c0.4,0.1,0.8,0.1,1.2,0.2
		c0.4,0,0.6,0.1,0.8,0.1c1.8,0.4,2.8,0.8,2.9,1.2c0.1,0.2,0,0.3,0,0.4c-0.1,0.2-0.2,0.4-0.4,0.4c-0.1,0.2-0.2,0.4-0.4,0.4
		c-0.2,0.1-0.3,0.2-0.4,0.3l-0.3-0.1c0,0,0,0,0.1-0.1c0-0.1,0-0.1,0-0.2c0.1-0.1,0.1-0.2,0.1-0.3s0.1-0.1,0-0.2
		c-0.1-0.2-0.4-0.4-0.8-0.6c-0.4-0.3-1.1-0.4-1.8-0.6c-0.1,0-0.3,0.2-0.5,0.4c-0.3,0.2-0.6,0.4-1,0.5c-0.3,0.3-0.6,0.4-1,0.7
		c-0.4,0.3-0.7,0.4-1,0.6c-0.3,0.3-0.5,0.4-0.7,0.5c-0.2,0.2-0.3,0.3-0.3,0.3c1.2,0.2,2.5,0.6,3.8,1.3c1.5,0.8,2.5,1.7,2.8,2.6
		c0.3,0.6,0.2,1.2-0.1,1.6c-0.4,0.4-0.9,0.8-1.6,1.1c-0.2,0-0.4,0.1-0.5,0.2c-0.3,0-0.4,0.1-0.7,0.2c-0.3,0.1-0.4,0.1-0.6,0.2
		c-0.2,0-0.4,0.1-0.4,0.1c-0.1,0-0.4,0.1-0.6,0.2c-0.4,0-0.8,0.2-1.4,0.3c0,0-0.2,0.1-0.3,0.1c-0.2,0.1-0.4,0.1-0.5,0.2
		c-0.3,0-0.4,0-0.5,0c-0.2,0-0.3-0.1-0.4-0.2c0-0.1-0.1-0.3,0-0.4c0-0.2,0-0.4,0-0.5c0.1-0.2,0.1-0.4,0.2-0.5s0.2-0.3,0.2-0.4
		c0.4,0,0.7,0,1.1,0c0.4-0.1,0.8-0.1,1.2-0.2c0.4-0.1,0.8-0.1,1.2-0.2c0.4-0.1,0.7-0.2,0.9-0.3c0.6-0.2,1-0.4,1.2-0.7
		c0.3-0.3,0.3-0.6,0.1-1.1c-0.4-0.9-1.3-1.6-3-2.2c-1.5-0.5-2.9-0.8-4.2-0.7c-0.3,0-0.4-0.1-0.6-0.3c-0.3-0.3-0.4-0.5-0.5-0.9l1-0.3
		c0.4-0.2,0.8-0.4,1.2-0.5c0.4-0.3,0.8-0.4,1.2-0.7c0.4-0.2,0.8-0.4,1.2-0.7C179.3,68.4,179.6,68.1,179.9,68L179.9,68z M175.9,63.6
		c-0.5-0.8-1.1-1.5-1.6-2.3c-0.5-0.7-1.2-1.5-1.7-2.2c-0.2-0.4-0.4-0.5-0.7-0.6c-0.3-0.2-0.5-0.2-0.7,0l-0.4,0.2
		c-0.4,0.2-0.6,0.5-0.7,1c-0.2,0.4,0,1,0.4,1.7c0.2,0.4,0.5,0.8,0.9,1.1c0.5,0.4,0.9,0.6,1.4,0.8c0.4,0.2,1,0.4,1.5,0.4
		C174.9,63.6,175.4,63.6,175.9,63.6L175.9,63.6z M175.4,64.9c-0.8,0-1.5-0.2-2.1-0.4c-0.6-0.2-1.2-0.4-1.9-0.9
		c-0.1,0-0.3-0.2-0.4-0.4c-0.2-0.2-0.4-0.4-0.6-0.7c-0.3-0.3-0.4-0.5-0.7-0.9c-0.2-0.3-0.4-0.6-0.5-0.9c-0.4-0.7-0.5-1.3-0.6-1.9
		c0-0.6,0.3-1,0.7-1.2c0.2-0.1,0.4-0.3,0.5-0.4c0.2-0.1,0.4-0.3,0.5-0.4c0.2-0.1,0.4-0.3,0.4-0.4c0.2-0.1,0.3-0.1,0.4,0l5.5,6.9
		c0.7-0.6,1.2-1.3,1.2-2.2c0.2-0.9,0-1.9-0.6-2.9c-0.1-0.3-0.4-0.6-0.7-1.1c-0.4-0.4-0.8-0.8-1.2-1.2c-0.4-0.5-0.8-1-1.2-1.4
		c-0.4-0.4-0.6-0.8-0.9-1.2c0-0.1,0-0.3,0-0.4c0.1-0.2,0.2-0.2,0.4,0c0.3,0.2,0.6,0.4,1,0.9c0.4,0.4,0.7,0.8,1.2,1.4
		c0.4,0.5,0.8,1,1.1,1.5c0.4,0.5,0.7,1,1,1.4c0.4,0.4,0.5,0.7,0.6,0.9c0.3,0.6,0.5,1.2,0.7,1.7s0.3,1.1,0.3,1.5
		c0,1.1-0.4,1.8-1.2,2.2C177.7,64.8,176.7,64.9,175.4,64.9L175.4,64.9z M168.9,52.9c0,0-0.2,0.1-0.5,0.3c-0.3,0.2-0.7,0.4-1.2,0.7
		c0,0-0.1,0.1-0.3,0.2c-0.2,0.1-0.3,0.2-0.4,0.3c-0.2,0.1-0.4,0.1-0.5,0.2c-0.2,0-0.3,0-0.4-0.1c-0.1-0.2-0.1-0.3-0.2-0.4
		c0-0.2-0.1-0.4-0.1-0.5c0-0.3,0-0.4,0-0.5c0.1-0.2,0.1-0.4,0.1-0.4c0.4-0.1,0.7-0.3,1.1-0.4c0.4-0.2,0.8-0.4,1.2-0.5
		c0.4-0.2,0.7-0.4,1.1-0.5c0.4-0.2,0.6-0.4,0.9-0.5c0.4-0.3,0.7-0.6,0.9-1c0.1-0.4,0-0.6-0.3-1c-0.5-0.8-1.7-1.2-3.5-1.3
		c-1.7-0.1-3.1,0.1-4.3,0.5c-0.2,0-0.4,0-0.7-0.2c-0.3-0.2-0.5-0.4-0.7-0.7l0.8-0.5c0.1-0.1,0.3-0.2,0.5-0.4c0.3-0.2,0.6-0.4,1-0.8
		c0.4-0.3,0.6-0.6,1-0.9c0.4-0.4,0.7-0.7,1-1.1c0.3-0.3,0.4-0.5,0.6-0.8c0.1-0.3,0.1-0.4,0-0.6c-0.2-0.3-0.2-0.5-0.2-0.6
		c0.1-0.1,0.2-0.1,0.4-0.1c0.2,0.1,0.4,0.2,0.8,0.4c0.3,0.2,0.6,0.4,1.1,0.7c-0.1,0.3-0.2,0.5-0.4,0.8c-0.2,0.3-0.4,0.6-0.8,1
		c-0.3,0.3-0.5,0.6-0.9,0.9c-0.3,0.4-0.5,0.6-0.8,0.9c-0.3,0.2-0.4,0.4-0.6,0.6c-0.1,0.2-0.2,0.3-0.1,0.4c1.2-0.2,2.6-0.1,4,0.2
		c1.7,0.4,2.8,1,3.4,1.8c0.4,0.4,0.5,1,0.3,1.5c-0.2,0.5-0.5,1.1-1.2,1.5c-0.2,0-0.3,0.2-0.5,0.3c-0.2,0.2-0.4,0.3-0.6,0.4
		c-0.2,0.2-0.4,0.3-0.5,0.4C169.1,52.7,169,52.8,168.9,52.9L168.9,52.9z M159.1,50.1c0.3,0.3,0.6,0.6,1,1c0.3,0.4,0.6,0.7,1,1.2
		c0.4,0.4,0.7,0.7,1,1.2c0.4,0.4,0.6,0.7,0.9,1l0.2,0.2c0.3,0.2,0.4,0.4,0.4,0.7c0.1,0.3,0.1,0.6,0,0.9c-0.1,0.4-0.2,0.6-0.4,0.9
		c-0.1,0.3-0.3,0.4-0.4,0.6h-0.2c-0.1,0-0.1,0-0.2,0c0-0.1-0.1-0.1-0.1-0.2c-0.2-0.4-0.4-0.8-0.5-1.3c-0.2-0.5-0.4-1.1-0.6-1.6
		c-0.3-0.5-0.5-1.1-0.9-1.6c-0.3-0.5-0.6-1.1-1.1-1.5l-1.4-1.8c-0.2-0.2-0.2-0.3,0-0.3c0.1,0,0.2,0,0.4,0.1c0.2,0.1,0.4,0.2,0.5,0.3
		C158.9,50,159,50,159.1,50.1L159.1,50.1z"/>
	<path id="XMLID_137_" class="st50" d="M66.6,145.2V131h1.4v14.2H66.6z M80.3,131.9h-8v-0.9h9c0.8,0,1.5,0.1,2.1,0.4
		c0.7,0.3,1.2,0.6,1.6,1.1c0.4,0.4,0.5,0.9,0.5,1.4c0,1.2-0.7,2-2.3,2.6c1.1,0.5,2,1,2.6,1.7c0.6,0.6,0.9,1.4,1,2.3
		c0,0.8-0.4,1.6-1,2.3c-0.5,0.8-1.4,1.3-2.4,1.8c-1.1,0.4-2.1,0.7-3.4,0.7h-7.8v-0.9h7.6c1.1,0,2-0.2,2.8-0.5c0.9-0.4,1.5-0.8,2-1.4
		c0.4-0.6,0.7-1.2,0.7-2s-0.3-1.3-0.8-2c-0.4-0.5-1.2-1-2-1.3c-0.9-0.4-1.9-0.5-3-0.5h-7.4v-0.8h8.3c2.4,0,3.5-0.6,3.6-2
		c0-0.7-0.4-1.2-1.2-1.5C82.3,132,81.5,131.9,80.3,131.9L80.3,131.9z M102.1,130.8c2,0,3.9,0.3,5.6,1c1.7,0.6,3,1.5,4,2.7
		c1.1,1.1,1.5,2.3,1.5,3.6c0,1.3-0.4,2.5-1.5,3.6c-1,1.2-2.3,2-4,2.7c-1.7,0.6-3.6,1-5.6,1c-2,0-3.8-0.4-5.5-1
		c-1.7-0.6-3.1-1.5-4.1-2.7c-1-1.1-1.5-2.3-1.5-3.6c0-1.3,0.5-2.6,1.5-3.6c1-1.1,2.4-2,4.1-2.7C98.3,131.1,100.2,130.8,102.1,130.8
		L102.1,130.8z M102.1,131.6c-1.8,0-3.4,0.4-4.9,0.9c-1.5,0.6-2.7,1.4-3.5,2.4c-0.9,1-1.3,2.1-1.3,3.3c0,1.1,0.4,2.2,1.3,3.2
		c0.9,1,2,1.8,3.5,2.4c1.5,0.5,3.1,0.9,4.9,0.9c1.8,0,3.4-0.4,4.9-0.9c1.5-0.6,2.7-1.4,3.6-2.4c0.9-1,1.3-2,1.3-3.2
		c0-1.2-0.4-2.3-1.3-3.3c-0.9-1-2-1.8-3.6-2.4C105.5,131.9,103.9,131.6,102.1,131.6L102.1,131.6z M125.5,131.9h-8v-0.9h9.1
		c0.8,0,1.5,0.1,2.1,0.4c0.7,0.3,1.2,0.6,1.6,1.1c0.4,0.4,0.6,0.9,0.6,1.4c0,1.2-0.8,2-2.4,2.6c1.1,0.5,2,1,2.6,1.7
		c0.6,0.6,0.9,1.4,1,2.3c0,0.8-0.4,1.6-0.9,2.3c-0.6,0.8-1.4,1.3-2.5,1.8c-1.1,0.4-2.1,0.7-3.4,0.7h-7.7v-0.9h7.5
		c1.1,0,2-0.2,2.8-0.5c0.9-0.4,1.5-0.8,2-1.4c0.4-0.6,0.7-1.2,0.7-2s-0.3-1.3-0.7-2c-0.5-0.5-1.2-1-2-1.3c-0.9-0.4-1.9-0.5-3-0.5
		h-7.4v-0.8h8.4c2.3,0,3.5-0.6,3.5-2c0-0.7-0.4-1.2-1.2-1.5C127.6,132,126.6,131.9,125.5,131.9L125.5,131.9z"/>
</g>
</svg>
