<?xml version="1.0" encoding="utf-8"?>
<!-- Generator: Adobe Illustrator 19.0.0, SVG Export Plug-In . SVG Version: 6.00 Build 0)  -->
<svg version="1.1" id="Layer_1" xmlns="http://www.w3.org/2000/svg" xmlns:xlink="http://www.w3.org/1999/xlink" x="0px" y="0px"
	 viewBox="0 0 920 493" style="enable-background:new 0 0 920 493;" xml:space="preserve">
<style type="text/css">
	.st0{fill:#2980BA;}
	.st1{fill:#3C97D3;}
</style>
<polyline id="XMLID_569_" class="st0" points="0,493 0,0 920,0 920,493 "/>
<g id="XMLID_152_">
	<g id="XMLID_153_">
		<g id="XMLID_154_">
			<path id="XMLID_149_" class="st1" d="M81.7,375.6c0.6-0.4,0.7-1.3,0.2-1.8c-0.4-0.6-1.3-0.7-1.8-0.2s-0.7,1.3-0.2,1.8
				C80.3,375.9,81.1,376,81.7,375.6z"/>
			<path id="XMLID_161_" class="st1" d="M75.9,378.9c-1.1,0.9-1.4,2.5-0.5,3.7c0.9,1.1,2.5,1.4,3.7,0.5s1.4-2.5,0.5-3.7
				C78.7,378.2,77.1,378,75.9,378.9z M78.1,381.6c-0.4,0.3-0.9,0.2-1.2-0.2c-0.3-0.4-0.2-0.9,0.2-1.2c0.4-0.3,0.9-0.2,1.2,0.2
				C78.5,380.8,78.5,381.3,78.1,381.6z"/>
			<path id="XMLID_146_" class="st1" d="M60,362.5l6.2-4.8c0.4-0.3,0.5-0.8,0.2-1.2c-0.3-0.4-0.8-0.5-1.2-0.2l-6.2,4.8l-1.1-1.4
				l9.7-7.5l1.1,1.4l-0.7,0.5c-0.4,0.3-0.5,0.8-0.2,1.2l9.6,12.4c1.5,1.9,3.2,2.5,3.2,2.5l10.2,3.2c0.3,0.1,0.6,0,0.8-0.1
				c0.1-0.1,0.2-0.3,0.3-0.4c0.1-0.5-0.1-0.9-0.6-1.1l-10.2-3.2c0,0-1.3-0.5-2.4-1.9l-9-11.8c0.8-0.6,0.9-1.7,0.3-2.4l-1.1-1.4
				c-0.6-0.8-1.7-0.9-2.4-0.3l-9.7,7.5c-0.8,0.6-0.9,1.7-0.3,2.4l1.1,1.4C58.2,362.9,59.3,363.1,60,362.5z"/>
			<path id="XMLID_145_" class="st1" d="M75.3,369.4c-0.6-0.8-1.7-0.9-2.4-0.3c-0.8,0.6-0.9,1.7-0.3,2.4c0.6,0.8,1.7,0.9,2.4,0.3
				C75.7,371.3,75.9,370.2,75.3,369.4z"/>
			<path id="XMLID_144_" class="st1" d="M87.9,358.6c0.6,0.8,1.7,0.9,2.4,0.3c0.8-0.6,0.9-1.7,0.3-2.4c-0.6-0.8-1.7-0.9-2.4-0.3
				C87.5,356.8,87.3,357.9,87.9,358.6z"/>
			<path id="XMLID_142_" class="st1" d="M101.5,383.4l-27,20.8c-0.4,0.3-1.1,0.7-1.7,0.5c-0.5-0.3-0.9-1.1-0.9-2.2l0.1-7.2
				c1.1-0.6,3.8-2,6.6-4.2c1.8-1.4,3.7-3.1,5.3-5.1c4.3-5.4,10.7-8.2,10.7-8.3c0.4-0.2,0.6-0.7,0.5-1.1c-0.2-0.4-0.7-0.6-1.1-0.5
				c-0.3,0.1-6.9,3-11.4,8.8c-3.2,4.1-8.2,7.1-10.5,8.4l0.1-16.3c0-0.1-0.2-1.9-1.6-3.8l-7.5-9.7c-0.3-0.4-0.8-0.5-1.2-0.2
				c-0.4,0.3-0.5,0.8-0.2,1.2l7.5,9.7c1.1,1.4,1.3,2.8,1.3,2.8l-0.2,25.5c0.1,1.8,0.8,3.2,2,3.7c0.6,0.3,1.9,0.6,3.5-0.7l27-20.8
				c0.4-0.3,0.5-0.8,0.2-1.2C102.4,383.2,101.9,383.1,101.5,383.4z"/>
			<path id="XMLID_141_" class="st1" d="M88.4,352.8c0.6-0.4,0.7-1.3,0.2-1.8c-0.4-0.6-1.3-0.7-1.8-0.2s-0.7,1.3-0.2,1.8
				C87,353.1,87.8,353.2,88.4,352.8z"/>
			<path id="XMLID_140_" class="st1" d="M85.3,340.9l-9.7,7.5c-0.8,0.6-0.9,1.7-0.3,2.4l1.1,1.4c0.6,0.8,1.7,0.9,2.4,0.3l6.2-4.8
				c0.4-0.3,0.5-0.8,0.2-1.2c-0.3-0.4-0.8-0.5-1.2-0.2l-6.2,4.8l-1.1-1.4l9.7-7.5l1.1,1.4l-0.7,0.5c-0.4,0.3-0.5,0.8-0.2,1.2
				l21.3,27.6c0,0,0,0,0,0c0,0,0,0.1,0.1,0.1c1.4,1.9,1,4.6-0.8,6c-1.9,1.5-4.6,1.1-6.1-0.8l-10-13c0.8-0.4,1.5-0.9,2.1-1.4
				c1.7-1.3,2.7-2.6,2.8-2.7c0.3-0.4,0.2-0.9-0.1-1.2c-0.4-0.3-0.9-0.2-1.2,0.1c0,0-1.9,2.3-4.6,3.7l-8.1-10.5l-1.4,1.1l19.2,24.9
				c2.1,2.7,5.9,3.2,8.6,1.1c2.6-2,3.1-5.8,1.2-8.4c0-0.1-0.1-0.1-0.1-0.2l-20.8-27c0.8-0.6,0.9-1.7,0.3-2.4l-1.1-1.4
				C87.1,340.4,86,340.3,85.3,340.9z"/>
		</g>
	</g>
</g>
<g id="XMLID_163_">
	<path id="XMLID_160_" class="st1" d="M657.6,65.4L654,53.9c1.1-0.5,1.7-1.7,1.3-2.8c-0.4-1.2-1.7-1.9-2.9-1.5l-10,3.1
		c-1.2,0.4-1.9,1.7-1.5,2.9c0.4,1.2,1.5,1.8,2.7,1.6l3.6,11.5c-2,1.6-3.5,3.6-4.5,6c-0.2,0.4,0,0.9,0.4,1c0.2,0.1,0.4,0.1,0.5,0
		c0.2-0.1,0.4-0.2,0.5-0.4c1-2.3,2.5-4.2,4.5-5.7c0.3-0.2,0.4-0.5,0.3-0.9l-3.7-12l4.2-1.3c0.4-0.1,0.6-0.6,0.5-1
		c-0.1-0.4-0.6-0.6-1-0.5l-5.5,1.7c-0.4,0.1-0.9-0.1-1-0.5c-0.1-0.4,0.1-0.9,0.5-1l10-3.1c0.4-0.1,0.9,0.1,1,0.5s-0.1,0.9-0.5,1
		l-1.5,0.5c-0.4,0.1-0.6,0.6-0.5,1c0.1,0.4,0.6,0.6,1,0.5l0.2-0.1l3.7,12c0.1,0.3,0.4,0.5,0.7,0.5c5.8,0.2,10.8,4,12.5,9.5
		c2.2,7.1-1.8,14.8-8.9,17c-1.7,0.5-3.4,0.7-5.2,0.6c-0.4,0-0.8,0.3-0.8,0.7c0,0.4,0.3,0.8,0.7,0.8c1.9,0.2,3.9,0,5.8-0.6
		c8-2.5,12.4-11,10-18.9C669.1,70,663.8,65.8,657.6,65.4L657.6,65.4z"/>
	<circle id="XMLID_159_" class="st1" cx="662.9" cy="81.4" r="0.8"/>
	<circle id="XMLID_158_" class="st1" cx="660.9" cy="85.3" r="0.8"/>
	<path id="XMLID_157_" class="st1" d="M655.1,90.8c-0.4-0.1-0.8,0.2-0.9,0.7c-0.1,0.4,0.2,0.8,0.7,0.9c1.7,0.2,3.5,0.1,5.2-0.4
		c6.3-2,9.9-8.7,7.9-15c-0.6-2-1.8-3.8-3.3-5.3c-0.2-0.2-0.6-0.3-0.9-0.1l-0.3,0.1c0,0-0.1,0-0.1,0.1c-1,0.7-1.5,1.4-1.9,1.9
		c-0.4,0.6-0.7,1-1.7,1.3c-0.9,0.3-1.4,0.1-2.1-0.2c-0.8-0.3-1.7-0.8-3.2-0.3c-1.4,0.4-2,1.3-2.4,2c-0.4,0.6-0.7,1.1-1.6,1.4
		c-1,0.3-1.5,0.1-2.2-0.1c-0.6-0.2-1.4-0.5-2.6-0.5c0,0-0.1,0-0.1,0l-0.3,0c-0.3,0.1-0.6,0.3-0.6,0.6c0,0,0,0,0,0
		c-0.1,0.4,0.2,0.8,0.6,0.9c0.2,0,0.4,0,0.5-0.1l0,0c0.9,0,1.4,0.2,1.9,0.4c0.8,0.3,1.6,0.6,3.2,0.2c1.4-0.4,2-1.3,2.4-2
		c0.4-0.6,0.7-1.1,1.6-1.4c0.9-0.3,1.4-0.1,2.1,0.2c0.8,0.3,1.7,0.8,3.2,0.3c1.6-0.5,2.1-1.2,2.5-1.9c0.3-0.4,0.6-0.8,1.1-1.3
		c1.1,1.2,2,2.6,2.5,4.2c1.7,5.5-1.4,11.4-6.9,13.1C658.2,90.9,656.7,91.1,655.1,90.8L655.1,90.8z"/>
	<path id="XMLID_156_" class="st1" d="M638.1,71.9L633.5,57c1.1-0.5,1.7-1.7,1.3-2.8c-0.4-1.2-1.7-1.9-2.9-1.5l-10,3.1
		c-1.2,0.4-1.9,1.7-1.5,2.9c0.4,1.2,1.5,1.8,2.7,1.6l3.7,12c0.1,0.4,0.6,0.6,1,0.5c0.4-0.1,0.6-0.6,0.5-1l-3.7-12l4.2-1.3
		c0.4-0.1,0.6-0.6,0.5-1c-0.1-0.4-0.6-0.6-1-0.5l-5.5,1.7c-0.4,0.1-0.9-0.1-1-0.5c-0.1-0.4,0.1-0.9,0.5-1l10-3.1
		c0.4-0.1,0.9,0.1,1,0.5c0.1,0.4-0.1,0.9-0.5,1l-1.5,0.5c-0.4,0.1-0.6,0.6-0.5,1c0.1,0.4,0.6,0.6,1,0.5l0.2-0.1l4.6,15
		c0,0.1,0.1,0.2,0.1,0.2l13.8,18.7c0.8,1.1,1.1,2.3,0.8,3.4c-0.3,1.1-1.3,1.9-2.6,2.3l-15.4,4.8c-1.3,0.4-2.6,0.3-3.5-0.4
		c-0.9-0.7-1.4-1.8-1.3-3.2l0.7-23.3c0-0.4-0.3-0.8-0.8-0.8c-0.4,0-0.8,0.3-0.8,0.8l-0.7,23.3c-0.1,1.9,0.6,3.5,1.9,4.5
		c1.3,1,3,1.2,4.9,0.7l15.4-4.8c1.8-0.6,3.1-1.7,3.6-3.3c0.5-1.6,0.2-3.3-1-4.8L638.1,71.9L638.1,71.9z"/>
	<path id="XMLID_165_" class="st1" d="M631.3,90.9c-0.2-0.1-0.5-0.1-0.7,0.1c-0.2,0.1-0.3,0.4-0.3,0.6l-0.2,6.7
		c0,0.9,0.2,1.6,0.7,1.9s1.2,0.4,2,0.2l15.4-4.8c0.8-0.3,1.4-0.7,1.6-1.3c0.2-0.6,0-1.3-0.5-2l-4-5.4c-0.1-0.2-0.4-0.3-0.6-0.3
		c-0.3,0-0.5,0.1-0.6,0.3c-0.3,0.4-0.6,0.8-1.6,1.1c-0.9,0.3-1.4,0.1-2.1-0.2c-0.8-0.3-1.7-0.8-3.2-0.3c-1.4,0.4-2,1.3-2.4,2
		c-0.4,0.6-0.7,1.1-1.6,1.4C632.3,91.2,631.8,91.1,631.3,90.9L631.3,90.9z M636.1,90.4c0.4-0.6,0.7-1.1,1.6-1.4
		c0.9-0.3,1.4-0.1,2.1,0.2c0.8,0.3,1.7,0.8,3.2,0.3c0.8-0.2,1.3-0.6,1.7-0.9l3.4,4.6c0.2,0.3,0.3,0.5,0.3,0.6
		c-0.1,0.1-0.2,0.2-0.6,0.3L632.3,99c-0.3,0.1-0.5,0.1-0.6,0.1c0-0.1-0.1-0.3-0.1-0.6l0.2-5.7c0.5,0.1,1.1,0,1.9-0.2
		C635.1,92,635.7,91.1,636.1,90.4L636.1,90.4z"/>
</g>
<g id="XMLID_197_">
	<path id="XMLID_205_" class="st1" d="M787.7,296.6c-0.6-0.2-1.2-0.1-1.7,0l-9-15.5c0,0,0-0.1-0.1-0.1c1.3-0.9,2.2-2.3,2.7-3.9
		c0.4-1.6,0.3-3.3-0.4-4.7l10.5-6.1c0.7,0.9,1.7,1.6,2.9,1.9c2.9,0.8,6-1,6.7-3.9c0.8-2.9-1-6-3.9-6.7c-2.9-0.8-6,1-6.7,3.9
		c-0.3,1.2-0.2,2.4,0.2,3.5l-10.5,6.1c-0.9-1.3-2.3-2.2-3.9-2.7c-1.6-0.4-3.3-0.3-4.7,0.4L767,264c0.4-0.4,0.7-0.9,0.9-1.5
		c0.4-1.7-0.6-3.4-2.2-3.8c-1.7-0.4-3.4,0.6-3.8,2.2c-0.4,1.7,0.6,3.4,2.2,3.8c0.6,0.2,1.2,0.1,1.7,0l2.8,4.9
		c-1.3,0.9-2.2,2.3-2.7,3.9c-0.2,0.9-0.3,1.9-0.2,2.8l-10.5,2.5c-0.5-1-1.4-1.8-2.6-2.2c-2.1-0.6-4.2,0.7-4.8,2.8
		c-0.6,2.1,0.7,4.2,2.8,4.8s4.2-0.7,4.8-2.8c0.1-0.4,0.1-0.8,0.1-1.2l10.5-2.5c0.8,2.1,2.5,3.9,4.9,4.5c0.3,0.1,0.5,0.1,0.8,0.2
		l-0.2,4.6c-1.1,0.2-2.1,1.1-2.4,2.3c-0.4,1.7,0.6,3.4,2.2,3.8c1.7,0.4,3.4-0.6,3.8-2.2c0.4-1.6-0.5-3.3-2.2-3.8l0.2-4.6
		c0.9-0.1,1.7-0.3,2.4-0.6c0,0,0,0.1,0,0.1l9,15.5c-0.4,0.4-0.7,0.9-0.9,1.5c-0.4,1.7,0.6,3.4,2.2,3.8s3.4-0.6,3.8-2.2
		C790.4,298.7,789.4,297,787.7,296.6z M751.1,282.8c-1.3-0.3-2.1-1.7-1.7-3c0.3-1.3,1.7-2.1,3-1.7c1.3,0.3,2.1,1.7,1.7,3
		S752.3,283.2,751.1,282.8z M773.8,290.4c-0.2,0.9-1.1,1.4-2,1.2c-0.9-0.2-1.4-1.1-1.2-2c0.2-0.9,1.1-1.4,2-1.2
		C773.5,288.6,774,289.5,773.8,290.4z M795.1,259c2.1,0.6,3.4,2.8,2.9,4.9c-0.6,2.1-2.8,3.4-4.9,2.9c-2.1-0.6-3.4-2.8-2.9-4.9
		S793,258.4,795.1,259z M763.2,261.3c0.2-0.9,1.1-1.4,2-1.2c0.9,0.2,1.4,1.1,1.2,2c-0.2,0.9-1.1,1.4-2,1.2
		C763.5,263.1,763,262.2,763.2,261.3z M771.3,280.8c-3-0.8-4.8-3.9-4-6.9s3.9-4.8,6.9-4c3,0.8,4.8,3.9,4,6.9
		C777.4,279.8,774.3,281.6,771.3,280.8z M786.5,301.2c-0.9-0.2-1.4-1.1-1.2-2c0.2-0.9,1.1-1.4,2-1.2c0.9,0.2,1.4,1.1,1.2,2
		C788.2,300.9,787.4,301.4,786.5,301.2z"/>
	<path id="XMLID_179_" class="st1" d="M773.8,271.5c-0.4-0.1-0.8,0.1-0.9,0.5c-0.1,0.4,0.1,0.8,0.5,0.9c1.3,0.3,2.1,1.7,1.7,3
		c-0.1,0.4,0.1,0.8,0.5,0.9c0.4,0.1,0.8-0.1,0.9-0.5C777.1,274.2,775.8,272.1,773.8,271.5z"/>
	<path id="XMLID_176_" class="st1" d="M794.3,262.1c0.5,0.1,0.7,0.6,0.6,1c-0.1,0.4,0.1,0.8,0.5,0.9c0.4,0.1,0.8-0.1,0.9-0.5
		c0.3-1.2-0.4-2.5-1.7-2.9c-0.4-0.1-0.8,0.1-0.9,0.5C793.7,261.6,793.9,262,794.3,262.1z"/>
</g>
<g id="XMLID_234_">
	<g id="XMLID_238_">
		<g id="XMLID_239_">
			<path id="XMLID_275_" class="st1" d="M795.7,160.2c0,1.6,0.5,3.1,1.4,4.4c2.4,3.2,7,3.9,10.3,1.5s3.9-7,1.5-10.3
				c-0.9-1.3-2.3-2.2-3.8-2.7l-9.4-2.8L795.7,160.2z M807.3,157.1c1.7,2.3,1.2,5.6-1.1,7.3s-5.6,1.2-7.3-1.1c-0.7-0.9-1-2-1-3.1l0-7
				l6.7,2C805.6,155.5,806.6,156.2,807.3,157.1z"/>
			<path id="XMLID_268_" class="st1" d="M781.9,143l-9.4-2.8l0,9.8c0,1.6,0.5,3.1,1.4,4.4c2.4,3.2,7,3.9,10.3,1.5s3.9-7,1.5-10.3
				C784.8,144.4,783.4,143.5,781.9,143z M783,154.3c-2.3,1.7-5.6,1.2-7.3-1.1c-0.7-0.9-1-2-1-3.1l0-7l6.7,2c1.1,0.3,2,1,2.7,1.9
				C785.8,149.2,785.3,152.5,783,154.3z"/>
			<path id="XMLID_254_" class="st1" d="M808.6,132.6c-1.9,1.4-2.2,4-0.9,5.9c0.3,0.4,0.6,0.7,1,0.9l-2,4.8l-13.3,1.5l-8-10.8
				l5.7-13.4l-5.4-7.2l-1.7,1.3l4.6,6.2l-5.2,12.3l-13.3,1.5l-4.6-6.2l-1.7,1.3l4.6,6.2l-5.2,12.3l-7.6,0.6
				c-0.1-0.3-0.3-0.6-0.5-0.9c-1.4-1.9-4-2.2-5.9-0.9s-2.2,4-0.9,5.9s4,2.2,5.9,0.9c1-0.7,1.5-1.8,1.7-2.9l7.5-0.6l8,10.8l-5.5,12.8
				l1.9,0.8l5.5-12.8l6.6-0.7l6.6-0.7l8,10.8l-4.8,11.2c-1.1-0.2-2.3,0-3.3,0.7c-1.9,1.4-2.2,4-0.9,5.9s4,2.2,5.9,0.9
				c1.9-1.4,2.2-4,0.9-5.9c-0.2-0.3-0.4-0.5-0.7-0.7l4.8-11.3l13.3-1.5l2.8,3.7l1.7-1.3l-2.8-3.7l2.3-5.4l2.9-6.9l7.8-0.9l-0.3-2.1
				l-7.8,0.9l-8-10.8l2-4.9c1,0.1,2-0.2,2.9-0.8c1.9-1.4,2.2-4,0.9-5.9S810.5,131.2,808.6,132.6z M753.2,152.9
				c-0.9,0.7-2.2,0.5-2.9-0.4c-0.7-0.9-0.5-2.2,0.4-2.9c0.9-0.7,2.2-0.5,2.9,0.4C754.3,150.9,754.1,152.2,753.2,152.9z M790.6,189.1
				c-0.9,0.7-2.2,0.5-2.9-0.4c-0.7-0.9-0.5-2.2,0.4-2.9c0.9-0.7,2.2-0.5,2.9,0.4C791.7,187.1,791.5,188.4,790.6,189.1z M780,159.9
				l-6.6,0.7l-8-10.8l5.2-12.3l13.3-1.5l8,10.8l-2.6,6.1l-2.6,6.1L780,159.9z M815.1,157.1l-2.9,6.9l-2.3,5.4l-13.3,1.5l-8-10.8
				l2.6-6.1l2.6-6.1l13.3-1.5L815.1,157.1z M812.4,137.6c-0.9,0.7-2.2,0.5-2.9-0.4c-0.7-0.9-0.5-2.2,0.4-2.9
				c0.9-0.7,2.2-0.5,2.9,0.4C813.5,135.6,813.3,136.9,812.4,137.6z"/>
			
				<rect id="XMLID_210_" x="801.1" y="129.8" transform="matrix(-0.8027 0.5964 -0.5964 -0.8027 1524.0415 -242.5029)" class="st1" width="2.1" height="2.1"/>
			
				<rect id="XMLID_209_" x="797.7" y="132.3" transform="matrix(-0.8027 0.5964 -0.5964 -0.8027 1519.4656 -235.9873)" class="st1" width="2.1" height="2.1"/>
			
				<rect id="XMLID_206_" x="794.4" y="134.8" transform="matrix(-0.8027 0.5964 -0.5964 -0.8027 1514.8898 -229.4716)" class="st1" width="2.1" height="2.1"/>
			
				<rect id="XMLID_202_" x="783.9" y="170" transform="matrix(-0.8027 0.5964 -0.5964 -0.8027 1517.0656 -159.8386)" class="st1" width="2.1" height="2.1"/>
			
				<rect id="XMLID_201_" x="780.6" y="172.5" transform="matrix(-0.8027 0.5964 -0.5964 -0.8027 1512.4896 -153.323)" class="st1" width="2.1" height="2.1"/>
			
				<rect id="XMLID_196_" x="777.2" y="175" transform="matrix(-0.8027 0.5964 -0.5964 -0.8027 1507.9137 -146.8073)" class="st1" width="2.1" height="2.1"/>
		</g>
	</g>
</g>
<g id="XMLID_251_">
	<path id="XMLID_262_" class="st1" d="M179,65.3l-19.9-1.3c-0.6,0-1.3,0.2-1.8,0.6c-0.5,0.4-0.8,1-0.8,1.7c0,0.6,0.2,1.3,0.6,1.8
		c0.4,0.4,0.9,0.7,1.4,0.8l-2.6,41.2c-0.4,5.6,3.9,10.5,9.6,10.8c2.7,0.2,5.4-0.7,7.4-2.5c2-1.8,3.3-4.3,3.4-7l2.6-41.2
		c0.5,0,1.1-0.2,1.5-0.6c0.5-0.4,0.8-1,0.8-1.7C181.4,66.6,180.3,65.4,179,65.3L179,65.3z M179.7,67.8c0,0.2-0.1,0.4-0.3,0.6
		c-0.2,0.1-0.4,0.2-0.6,0.2l-0.4,0c-0.1,0-0.1,0-0.2,0s-0.1,0-0.2,0l-12.2-0.8c-0.4,0-0.8,0.3-0.9,0.8c0,0.4,0.3,0.8,0.8,0.9
		l11.5,0.7l-2.6,41.2c-0.1,2.3-1.2,4.4-2.9,5.9c-1.7,1.5-3.9,2.3-6.2,2.1c-4.7-0.3-8.3-4.4-8-9.1l2.6-41.2l2.4,0.1
		c0.4,0,0.8-0.3,0.9-0.8c0-0.4-0.3-0.8-0.8-0.9l-3.1-0.2c-0.1,0-0.1,0-0.2,0c-0.1,0-0.1,0-0.2,0l-0.4,0c-0.2,0-0.4-0.1-0.6-0.3
		c-0.1-0.2-0.2-0.4-0.2-0.6c0-0.2,0.1-0.4,0.3-0.6c0.2-0.1,0.4-0.2,0.6-0.2l19.9,1.3C179.3,67,179.7,67.4,179.7,67.8L179.7,67.8z"/>
	<path id="XMLID_243_" class="st1" d="M173.7,89.5c-1-0.1-1.6,0.3-2,0.6c-0.4,0.2-0.6,0.4-1.1,0.3c-0.5,0-0.7-0.2-1.1-0.5
		c-0.4-0.3-0.9-0.7-2-0.8c-1-0.1-1.6,0.3-2,0.6c-0.4,0.2-0.6,0.4-1.1,0.3c-0.5,0-0.7-0.2-1.1-0.5c-0.4-0.3-0.9-0.7-2-0.8
		c-0.2,0-0.4,0.1-0.6,0.2c-0.2,0.1-0.3,0.3-0.3,0.6l-0.6,8.8c0,0.4,0.3,0.8,0.8,0.9c0.4,0,0.8-0.3,0.9-0.8l0.5-7.8
		c0.1,0.1,0.2,0.1,0.3,0.2c0.4,0.3,0.9,0.7,2,0.8c1,0.1,1.6-0.3,2-0.6c0.4-0.2,0.6-0.4,1.1-0.3c0.5,0,0.7,0.2,1.1,0.5
		c0.4,0.3,0.9,0.7,2,0.8c1,0.1,1.6-0.3,2-0.6c0.1-0.1,0.2-0.1,0.3-0.2l-1.2,19.8c-0.1,1.4-0.7,2.7-1.8,3.7c-1.1,1-2.5,1.4-3.9,1.3
		c-3-0.2-5.2-2.7-5-5.7l0.6-8.8c0-0.4-0.3-0.8-0.8-0.9c-0.4,0-0.8,0.3-0.9,0.8l-0.6,8.8c-0.2,3.8,2.7,7.2,6.5,7.4
		c1.9,0.1,3.7-0.5,5.1-1.7c1.4-1.2,2.2-2.9,2.4-4.8l1.3-20.7C174.5,89.8,174,89.5,173.7,89.5C173.7,89.5,173.7,89.5,173.7,89.5
		L173.7,89.5z"/>
	<path id="XMLID_242_" class="st1" d="M170.6,76.1c0,0.4,0.3,0.8,0.8,0.9c0.4,0,0.8,0.4,0.8,0.9c0,0.2-0.1,0.4-0.3,0.6
		c-0.2,0.1-0.4,0.2-0.6,0.2c-0.4,0-0.8-0.4-0.8-0.9c0-0.4-0.3-0.8-0.8-0.9c-0.4,0-0.8,0.3-0.9,0.8c-0.1,1.3,0.9,2.5,2.3,2.6
		c0.6,0,1.3-0.2,1.8-0.6c0.5-0.4,0.8-1,0.8-1.7c0.1-1.3-0.9-2.5-2.3-2.6C171.1,75.3,170.7,75.7,170.6,76.1L170.6,76.1z"/>
	<path id="XMLID_233_" class="st1" d="M166.4,85.6c0.5-0.4,0.8-1,0.8-1.7c0-0.6-0.2-1.3-0.6-1.8c-0.4-0.5-1-0.8-1.7-0.8
		c-0.4,0-0.8,0.3-0.9,0.8c0,0.4,0.3,0.8,0.8,0.9c0.2,0,0.4,0.1,0.6,0.3c0.1,0.2,0.2,0.4,0.2,0.6c0,0.2-0.1,0.4-0.3,0.6
		c-0.2,0.1-0.4,0.2-0.6,0.2c-0.2,0-0.4-0.1-0.6-0.3c-0.1-0.2-0.2-0.4-0.2-0.6c0-0.4-0.3-0.8-0.8-0.9c-0.4,0-0.8,0.3-0.9,0.8
		c-0.1,1.3,0.9,2.5,2.3,2.6C165.3,86.3,165.9,86.1,166.4,85.6L166.4,85.6z"/>
</g>
<g id="XMLID_305_">
	<path id="XMLID_352_" class="st1" d="M65.4,126.7l9.2-11.5c0.9,0.3,1.9,0,2.5-0.8c0.8-1,0.6-2.5-0.4-3.3l-7-5.6
		c-1-0.8-2.5-0.6-3.3,0.4c-0.6,0.8-0.7,1.8-0.2,2.6L57.1,120c-6.1-2-12.8-0.1-16.8,4.9c-5.3,6.6-4.2,16.3,2.3,21.6
		c6.6,5.3,16.3,4.2,21.6-2.3C68.2,139.1,68.7,132.2,65.4,126.7z M68.7,106.9l7,5.6c0.2,0.2,0.3,0.5,0.1,0.8
		c-0.2,0.2-0.5,0.3-0.8,0.1l-7-5.6c-0.2-0.2-0.3-0.5-0.1-0.8C68.1,106.8,68.4,106.7,68.7,106.9z M57,121.9c0.4,0.1,0.8,0,1-0.3
		l9.5-11.9l5.5,4.4L63.6,126c-0.2,0.3-0.3,0.7,0,1c2.4,3.6,2.9,8,1.5,11.9c-0.4-0.6-1-1.3-1.7-2.1c-1.9-2-4.5-4.4-7.5-6.8
		c-3-2.4-5.9-4.5-8.3-5.9c-0.9-0.5-1.7-1-2.4-1.2C48.6,120.8,53,120.3,57,121.9z M63.8,140.4c-1.6-0.6-5.3-2.7-10.7-7
		c-5.4-4.3-8.3-7.5-9.1-8.9c1.6,0.6,5.3,2.7,10.7,7C60,135.8,62.9,139,63.8,140.4z M43.7,145.1c-5.8-4.7-6.8-13.2-2.1-19
		c0.2-0.3,0.5-0.6,0.7-0.8c0.4,0.7,1.1,1.6,2.1,2.7c1.9,2,4.5,4.4,7.5,6.8c3,2.4,5.9,4.5,8.3,5.9c1.3,0.8,2.3,1.2,3.1,1.5
		c-0.2,0.3-0.4,0.6-0.7,0.9C58.1,148.8,49.5,149.8,43.7,145.1z"/>
	<path id="XMLID_292_" class="st1" d="M49.1,123.6c0,0.2,0.2,0.4,0.3,0.6c0.2,0.2,0.4,0.2,0.7,0.2c1.3-0.2,2.5-0.2,3.8-0.1
		c0.5,0.1,0.9-0.3,1-0.8c0.1-0.5-0.3-0.9-0.8-1c-1.4-0.2-2.9-0.1-4.3,0.1C49.3,122.7,49,123.2,49.1,123.6z"/>
	<path id="XMLID_288_" class="st1" d="M57.1,144.2c-0.2-0.5-0.7-0.7-1.1-0.5c-0.6,0.2-1.2,0.4-1.8,0.5c-0.5,0.1-0.8,0.5-0.7,1
		c0,0.2,0.2,0.4,0.3,0.5c0.2,0.2,0.5,0.2,0.7,0.2c0.7-0.1,1.4-0.3,2.1-0.5C57.1,145.2,57.3,144.7,57.1,144.2z"/>
	<path id="XMLID_287_" class="st1" d="M52,144.3c-2.2,0-4.3-0.7-6.2-1.9c-0.4-0.3-1-0.2-1.2,0.3c-0.3,0.4-0.2,0.9,0.2,1.2
		c0,0,0,0,0.1,0.1c2.1,1.4,4.6,2.1,7.1,2.1c0.5,0,0.9-0.4,0.9-0.9C52.9,144.8,52.5,144.4,52,144.3z"/>
	<path id="XMLID_333_" class="st1" d="M95.8,132.3c0.9-1.1,0.7-2.6-0.4-3.5l-7.8-6.2c-1.1-0.9-2.6-0.7-3.5,0.4
		c-0.7,0.8-0.7,2-0.2,2.9L61.2,154c-2,2.5-1.6,6.2,0.9,8.2c2.5,2,6.2,1.6,8.2-0.9L93,133C94,133.4,95.1,133.1,95.8,132.3z
		 M86.5,123.9l7.8,6.2c0.3,0.2,0.4,0.7,0.1,1c-0.2,0.3-0.7,0.4-1,0.1l-7.8-6.2c-0.3-0.2-0.4-0.7-0.1-1
		C85.7,123.7,86.2,123.7,86.5,123.9z M84.1,134.8c-0.6-0.5-2.1-1.6-3.5-2.1l4.6-5.7l6.3,5.1l-4.6,5.7
		C86.1,136.5,84.7,135.3,84.1,134.8z M85.4,138.7c-0.7-0.3-1.7-0.9-2.9-1.8c-1.2-1-2-1.9-2.4-2.5c0.7,0.3,1.7,0.9,2.9,1.8
		C84.2,137.2,85,138.1,85.4,138.7z M63.2,160.8c-1.7-1.4-2-3.9-0.6-5.7l15.9-19.8c0.8,1.2,2.2,2.4,2.8,2.9c0.6,0.5,2.1,1.6,3.5,2.1
		l-2.7,3.3l-3-2.4c-0.4-0.3-0.9-0.2-1.3,0.1c-0.3,0.4-0.2,0.9,0.1,1.3l3,2.4l-0.5,0.7l-1-0.8c-0.4-0.3-0.9-0.2-1.3,0.1
		c-0.3,0.4-0.2,0.9,0.1,1.3l1,0.8l-0.5,0.7l-3-2.4c-0.4-0.3-0.9-0.2-1.3,0.1c-0.3,0.4-0.2,0.9,0.1,1.3l3,2.4l-0.5,0.7l-1-0.8
		c-0.4-0.3-0.9-0.2-1.3,0.1c-0.3,0.4-0.2,0.9,0.1,1.3l1,0.8l-0.5,0.7l-3-2.4c-0.4-0.3-0.9-0.2-1.3,0.1c-0.3,0.4-0.2,0.9,0.1,1.3
		l3,2.4l-0.5,0.7l-1-0.8c-0.4-0.3-0.9-0.2-1.3,0.1c-0.3,0.4-0.2,0.9,0.1,1.3l1,0.8l-0.5,0.7l-3-2.4c-0.4-0.3-0.9-0.2-1.3,0.1
		c-0.3,0.4-0.2,0.9,0.1,1.3l3,2.4l-2.1,2.7C67.5,161.9,65,162.2,63.2,160.8z"/>
	<g id="XMLID_312_">
		<g id="XMLID_320_">
			<path id="XMLID_328_" class="st1" d="M75.9,100.2c1.2,0.9,2.9,0.8,3.8-0.4c0.9-1.2,0.8-2.9-0.4-3.8c-1.2-0.9-2.9-0.8-3.8,0.4
				C74.5,97.5,74.7,99.2,75.9,100.2z M78.2,97.3c0.4,0.3,0.5,0.9,0.1,1.3c-0.3,0.4-0.9,0.5-1.3,0.1c-0.4-0.3-0.5-0.9-0.1-1.3
				C77.2,97.1,77.8,97,78.2,97.3z"/>
			<path id="XMLID_321_" class="st1" d="M71.6,105.5c1.2,0.9,2.9,0.8,3.8-0.4c0.9-1.2,0.8-2.9-0.4-3.8c-1.2-0.9-2.9-0.8-3.8,0.4
				C70.3,102.8,70.5,104.5,71.6,105.5z M73.9,102.6c0.4,0.3,0.5,0.9,0.1,1.3c-0.3,0.4-0.9,0.5-1.3,0.1c-0.4-0.3-0.5-0.9-0.1-1.3
				C72.9,102.3,73.5,102.3,73.9,102.6z"/>
		</g>
		<path id="XMLID_313_" class="st1" d="M78.5,106.7c1.2,0.9,2.9,0.8,3.8-0.4c0.9-1.2,0.8-2.9-0.4-3.8s-2.9-0.8-3.8,0.4
			S77.4,105.7,78.5,106.7z M80.8,103.8c0.4,0.3,0.5,0.9,0.1,1.3c-0.3,0.4-0.9,0.5-1.3,0.1c-0.4-0.3-0.5-0.9-0.1-1.3
			C79.8,103.5,80.4,103.5,80.8,103.8z"/>
	</g>
	<path id="XMLID_255_" class="st1" d="M65.9,119.7c0.4,0.3,0.9,0.2,1.3-0.1l3.3-4.1c0.3-0.4,0.2-0.9-0.1-1.3
		c-0.4-0.3-0.9-0.2-1.3,0.1l-3.3,4.1C65.5,118.8,65.6,119.4,65.9,119.7z"/>
	<path id="XMLID_250_" class="st1" d="M62.6,123.8c0.4,0.3,0.9,0.2,1.3-0.1l1.4-1.8c0.3-0.4,0.2-0.9-0.1-1.3
		c-0.4-0.3-0.9-0.2-1.3,0.1l-1.4,1.8C62.1,123,62.2,123.5,62.6,123.8z"/>
</g>
<g id="XMLID_204_">
	<path id="XMLID_200_" class="st1" d="M136.3,192.7l-0.4-2.9l0.9-0.6l4.3,10.1l-22.7,14.5l-1.1-1.8l1.9-14.3l-12.8-2.8l-3.4-5.4
		l23.2-14.8l4.9,5.4l-0.8,0.5l-1-0.6l0,0c-1.9-1.2-2.8-1.2-4.6,0l-15.7,10l13.7,3l-1.7,12.8l12.8-8.2
		C136.4,195.9,136.5,194.5,136.3,192.7z"/>
</g>
<polygon id="XMLID_203_" class="st1" points="719.6,447 717.2,449.8 722.3,454 724.6,451.2 745,468.3 749.2,463.3 728.8,446.2 
	736.5,437 756.9,454.1 761.1,449.1 740.7,432 743.1,429.2 738.1,425 735.7,427.8 "/>
<g id="XMLID_325_">
	<path id="XMLID_207_" class="st1" d="M240.1,40.4l5.5,5.3l4-1.4l-5.3,5.5l-8.2-7.9l4.4-4.6c4,1.5,8.8,0.4,12.2-3.1
		c4.4-4.6,4.5-11.4,0.4-15.4c-4.1-4-10.9-3.7-15.4,0.9c-3.4,3.5-4.3,8.4-2.7,12.3l-4.4,4.6l-8.2-7.9l5.3-5.5l-1.3,4l5.5,5.3l0.7-0.7
		c-2.6-5.3-2.1-11.4,1.7-15.4c5.1-5.3,14.1-4.8,20.1,1c6,5.8,6.8,14.8,1.7,20.1c-3.9,4-10,4.7-15.4,2.3L240.1,40.4z"/>
</g>
<g id="XMLID_383_">
	<g id="XMLID_386_">
		<g id="XMLID_389_">
			<path id="XMLID_337_" class="st1" d="M778.5,362.9c0.1,0.2,0.3,0.4,0.6,0.4c0.1,0,0.2,0,0.3-0.1c0,0,3.8-1.9,5.7-2.5
				c0.3-0.1,0.5-0.5,0.4-0.8c-0.1-0.3-0.5-0.5-0.8-0.4c-2,0.6-5.7,2.5-5.9,2.6C778.5,362.2,778.4,362.6,778.5,362.9z"/>
			<path id="XMLID_336_" class="st1" d="M779.1,355.5c0.1,0,0.2,0,0.3-0.1c0,0,3.8-1.9,5.7-2.5c0.3-0.1,0.5-0.5,0.4-0.8
				c-0.1-0.3-0.5-0.5-0.8-0.4c-2,0.6-5.7,2.5-5.9,2.6c-0.3,0.2-0.4,0.5-0.3,0.9C778.6,355.4,778.9,355.5,779.1,355.5z"/>
			<path id="XMLID_335_" class="st1" d="M794.5,354.3c-0.4,0-0.6,0.3-0.6,0.6v25c0,1.1-0.9,1.9-1.9,1.9h-15.4v-1.5
				c0.9-0.3,3.4-1.1,5.8-1.1c5.6,0,9.4,1.2,9.4,1.3c0.2,0.1,0.4,0,0.6-0.1c0.2-0.1,0.3-0.3,0.3-0.5v-28.2c0-0.3-0.2-0.6-0.5-0.6
				c0,0-0.5-0.1-1.4-0.3c-0.3-0.1-0.7,0.2-0.7,0.5c-0.1,0.3,0.2,0.7,0.5,0.7c0.3,0.1,0.6,0.1,0.8,0.2v26.8c-1.5-0.4-4.7-1.1-9-1.1
				c-2.8,0-5.5,0.9-6.4,1.2c-0.8-0.3-3-1.2-5.8-1.2c-4.4,0-8.1,0.7-9.6,1.1v-26.9c1.3-0.3,5.1-1.1,9.6-1.1c2.3,0,4.3,0.7,5.1,1.1
				v25.2c0,0.2,0.1,0.4,0.3,0.6c0.2,0.1,0.4,0.1,0.6,0c0.1,0,6.4-3.8,12.1-5.7c0.3-0.1,0.4-0.3,0.4-0.6v-26.3c0-0.2-0.1-0.4-0.3-0.5
				c-0.2-0.1-0.4-0.1-0.6-0.1c-5.1,1.9-10.3,5.2-10.4,5.2c-0.3,0.2-0.4,0.6-0.2,0.9c0.2,0.3,0.6,0.4,0.9,0.2c0,0,4.6-2.8,9.3-4.7
				v24.9c-4.4,1.5-9,4-10.9,5.1v-24.5c0-0.2-0.1-0.5-0.4-0.6c-0.1-0.1-2.7-1.4-6.1-1.4c-5.8,0-10.3,1.3-10.4,1.3
				c-0.3,0.1-0.5,0.3-0.5,0.6v28.2c0,0.2,0.1,0.4,0.3,0.5c0.1,0.1,0.2,0.1,0.4,0.1c0.1,0,0.1,0,0.2,0c0,0,4.5-1.3,10.1-1.3
				c2.3,0,4.3,0.7,5.1,1.1v1.5h-15.4c-1.1,0-1.9-0.9-1.9-1.9v-25c0-0.4-0.3-0.6-0.6-0.6c-0.4,0-0.6,0.3-0.6,0.6v25
				c0,1.8,1.4,3.2,3.2,3.2h32.1c1.8,0,3.2-1.4,3.2-3.2v-25C795.1,354.5,794.8,354.3,794.5,354.3z"/>
			<path id="XMLID_334_" class="st1" d="M778.5,359c0.1,0.2,0.3,0.4,0.6,0.4c0.1,0,0.2,0,0.3-0.1c0,0,3.8-1.9,5.7-2.5
				c0.3-0.1,0.5-0.5,0.4-0.8c-0.1-0.3-0.5-0.5-0.8-0.4c-2,0.6-5.7,2.5-5.9,2.6C778.5,358.3,778.4,358.7,778.5,359z"/>
			<path id="XMLID_332_" class="st1" d="M778.5,366.7c0.1,0.2,0.3,0.4,0.6,0.4c0.1,0,0.2,0,0.3-0.1c0,0,3.8-1.9,5.7-2.5
				c0.3-0.1,0.5-0.5,0.4-0.8c-0.1-0.3-0.5-0.5-0.8-0.4c-2,0.6-5.7,2.5-5.9,2.6C778.5,366,778.4,366.4,778.5,366.7z"/>
			<path id="XMLID_331_" class="st1" d="M772.2,356.5c-4-0.9-8.5,0.3-8.7,0.3c-0.3,0.1-0.5,0.4-0.5,0.8c0.1,0.3,0.3,0.5,0.6,0.5
				c0.1,0,0.1,0,0.2,0c0,0,4.4-1.2,8-0.3c0.3,0.1,0.7-0.1,0.8-0.5C772.7,357,772.5,356.6,772.2,356.5z"/>
			<path id="XMLID_330_" class="st1" d="M772.2,360.4c-4-0.9-8.5,0.3-8.7,0.3c-0.3,0.1-0.5,0.4-0.5,0.8c0.1,0.3,0.3,0.5,0.6,0.5
				c0.1,0,0.1,0,0.2,0c0,0,4.4-1.2,8-0.3c0.3,0.1,0.7-0.1,0.8-0.5C772.7,360.8,772.5,360.5,772.2,360.4z"/>
			<path id="XMLID_329_" class="st1" d="M778.5,370.6c0.1,0.2,0.3,0.4,0.6,0.4c0.1,0,0.2,0,0.3-0.1c0,0,3.8-1.9,5.7-2.5
				c0.3-0.1,0.5-0.5,0.4-0.8c-0.1-0.3-0.5-0.5-0.8-0.4c-2,0.6-5.7,2.5-5.9,2.6C778.5,369.9,778.4,370.3,778.5,370.6z"/>
			<path id="XMLID_327_" class="st1" d="M772.2,364.2c-4-0.9-8.5,0.3-8.7,0.3c-0.3,0.1-0.5,0.4-0.5,0.8c0.1,0.3,0.3,0.5,0.6,0.5
				c0.1,0,0.1,0,0.2,0c0,0,4.4-1.2,8-0.3c0.3,0.1,0.7-0.1,0.8-0.5C772.7,364.7,772.5,364.3,772.2,364.2z"/>
			<path id="XMLID_326_" class="st1" d="M772.2,371.9c-4-0.9-8.5,0.3-8.7,0.3c-0.3,0.1-0.5,0.4-0.5,0.8c0.1,0.3,0.3,0.5,0.6,0.5
				c0.1,0,0.1,0,0.2,0c0,0,4.4-1.2,8-0.3c0.3,0.1,0.7-0.1,0.8-0.5C772.7,372.4,772.5,372,772.2,371.9z"/>
			<path id="XMLID_324_" class="st1" d="M772.2,368.1c-4-0.9-8.5,0.3-8.7,0.3c-0.3,0.1-0.5,0.4-0.5,0.8c0.1,0.3,0.3,0.5,0.6,0.5
				c0.1,0,0.1,0,0.2,0c0,0,4.4-1.2,8-0.3c0.3,0.1,0.7-0.1,0.8-0.5C772.7,368.5,772.5,368.2,772.2,368.1z"/>
		</g>
	</g>
</g>
<g id="XMLID_376_">
	<g id="eye_on_money">
		<path id="XMLID_377_" class="st1" d="M74.2,288.8l-14.7-22.6c-0.2-0.3-0.5-0.5-0.8-0.5s-0.7,0.2-0.9,0.5l-15.3,22.6
			c-0.2,0.3-0.2,0.7-0.1,1.1c0.2,0.3,0.5,0.5,0.9,0.5h30c0.4,0,0.7-0.2,0.9-0.5C74.4,289.5,74.4,289.1,74.2,288.8z M54.6,280.3
			c-0.1,0.4-0.2,0.8-0.2,1.2c0,2.2,1.8,3.9,3.9,3.9s3.9-1.8,3.9-3.9c0-0.4-0.1-0.7-0.1-1.1c1.4,0.9,2.9,1.9,3.8,2.8
			c-2,1.7-5.2,4.1-7.4,4.1c-2.2,0-5.7-2.4-7.8-4.1C51.5,282.4,53,281.2,54.6,280.3z M58.6,268.6l6.9,10.7c-2-1.7-4.7-3.4-7-3.4
			c-2.2,0-4.9,1.7-7.1,3.3L58.6,268.6z M48.4,283.7c1,0.9,3.9,3.3,6.9,4.6h-10L48.4,283.7z M61.8,288.3c2.9-1.3,5.8-3.9,6.6-4.7
			l3.1,4.7H61.8z"/>
	</g>
</g>
<g id="XMLID_345_">
	<path id="XMLID_349_" class="st1" d="M755.1,73.1c0-5.3-1.6-9.8-4.8-13.9c-2.8-3.6-6.4-6.3-9.9-9.1c-6.7-5.2-13-10-13-19.7
		c0-0.4-0.3-0.7-0.7-0.7h-2.8c-0.4,0-0.7,0.3-0.7,0.7c0,5.3,1.6,9.9,4.8,14c2.2,2.8,4.9,5.2,7.7,7.4c-2.6,2.1-5.5,4.5-7.7,7.4
		c-3.2,4.1-4.8,8.7-4.8,14c0,0.4,0.3,0.7,0.7,0.7h2.8c0.4,0,0.7-0.3,0.7-0.7c0-0.7,0-1.4,0.1-2.1h5c0.4,0,0.7-0.3,0.7-0.7
		c0-0.4-0.3-0.7-0.7-0.7h-4.8c0.3-1.5,0.7-2.9,1.3-4.2h17.4c0.4,0,0.7-0.3,0.7-0.7c0-0.4-0.3-0.7-0.7-0.7h-16.7
		c0.9-1.5,1.9-2.9,3.2-4.2h8.6c0.4,0,0.7-0.3,0.7-0.7c0-0.4-0.3-0.7-0.7-0.7h-7.2c1.4-1.4,3-2.7,4.8-4c6.2,4.8,11.7,9.7,11.7,18.7
		c0,0.4,0.3,0.7,0.7,0.7h2.8C754.8,73.9,755.1,73.6,755.1,73.1C755.1,73.2,755.1,73.2,755.1,73.1L755.1,73.1z M732.2,58.7
		C732.2,58.7,732.1,58.7,732.2,58.7c-0.9,0.9-1.6,1.7-2.2,2.6c-0.8,1-1.4,2.1-1.9,3.1c0,0-0.1,0.1-0.1,0.1c-0.9,1.8-1.4,3.7-1.7,5.7
		c0,0,0,0.1,0,0.1c-0.1,0.7-0.2,1.4-0.2,2.2h-1.4c0.1-4.7,1.6-8.7,4.5-12.4c2.2-2.9,5.2-5.3,7.8-7.4c0.3,0.3,0.7,0.5,1,0.8
		c0,0,0.1,0.1,0.1,0.1C735.9,55.2,734,56.9,732.2,58.7L732.2,58.7z M752.3,72.5c-0.1-4.4-1.5-8.2-4.2-11.6c-2.5-3.2-5.8-5.8-9.3-8.5
		c-3.4-2.7-7-5.4-9.6-8.8c-2.9-3.7-4.3-7.8-4.5-12.4h1.4c0.1,4.4,1.5,8.2,4.2,11.6c2.5,3.2,5.8,5.8,9.3,8.5c3.4,2.7,7,5.4,9.6,8.8
		c2.9,3.7,4.3,7.8,4.5,12.4H752.3z"/>
	<path id="XMLID_340_" class="st1" d="M731.8,38.2c-0.4,0-0.7,0.3-0.7,0.7s0.3,0.7,0.7,0.7h2.8c0.4,0,0.7-0.3,0.7-0.7
		s-0.3-0.7-0.7-0.7H731.8z"/>
	<path id="XMLID_339_" class="st1" d="M729.8,34h20.8c-0.3,1.5-0.7,2.9-1.3,4.2h-11.8c-0.4,0-0.7,0.3-0.7,0.7s0.3,0.7,0.7,0.7h11.1
		c-0.9,1.5-1.9,2.8-3.2,4.2h-8.6c-0.4,0-0.7,0.3-0.7,0.7s0.3,0.7,0.7,0.7h7.2c-0.9,0.8-1.9,1.7-2.9,2.5c-0.3,0.2-0.3,0.7-0.1,1
		c0.2,0.3,0.7,0.3,1,0.1c3.1-2.5,6.4-5.5,8.4-9.5c0-0.1,0.1-0.1,0.1-0.2c0.8-1.7,1.4-3.5,1.7-5.7c0,0,0-0.1,0-0.1
		c0.1-0.7,0.2-1.4,0.2-2.2h1.4c-0.1,4.7-1.6,8.7-4.5,12.4c-1.5,1.9-3.4,3.8-6,5.9c-0.3,0.2-0.3,0.7-0.1,1c0.1,0.2,0.3,0.3,0.5,0.3
		c0.2,0,0.3-0.1,0.4-0.2c2.7-2.2,4.6-4.1,6.2-6.1c3.2-4.1,4.8-8.7,4.8-14c0-0.4-0.3-0.7-0.7-0.7h-2.8c-0.4,0-0.7,0.3-0.7,0.7
		c0,0.7,0,1.4-0.1,2.1h-21c-0.4,0-0.7,0.3-0.7,0.7C729.1,33.7,729.4,34,729.8,34L729.8,34z"/>
	<path id="XMLID_338_" class="st1" d="M748.6,69.7h-13.2c-0.4,0-0.7,0.3-0.7,0.7c0,0.4,0.3,0.7,0.7,0.7h13.2c0.4,0,0.7-0.3,0.7-0.7
		C749.3,70,749,69.7,748.6,69.7z"/>
</g>
<g id="XMLID_351_">
	<g id="XMLID_393_">
		<g id="XMLID_394_">
			<path id="XMLID_395_" class="st1" d="M142.5,427.8c-1.8-1.8-4.3-2.8-6.8-2.8c-2.6,0-5,1-6.8,2.8l-0.8,0.8l-0.8-0.8
				c-1.8-1.8-4.3-2.8-6.8-2.8c-2.6,0-5,1-6.8,2.8c-3.8,3.8-3.8,9.9,0,13.7l13.7,13.7c0.2,0.2,0.5,0.3,0.7,0.3s0.5-0.1,0.7-0.3
				l13.7-13.7c1.8-1.8,2.8-4.3,2.8-6.8C145.3,432.1,144.3,429.6,142.5,427.8z M141.1,440.1l-13,13l-13-13c-3-3-3-7.8,0-10.8
				c1.4-1.4,3.4-2.2,5.4-2.2c2,0,4,0.8,5.4,2.2l1.5,1.5c0.4,0.4,1,0.4,1.4,0l1.5-1.5c1.4-1.4,3.4-2.2,5.4-2.2c2,0,4,0.8,5.4,2.2
				C144,432.2,144,437.1,141.1,440.1z"/>
		</g>
	</g>
	<g id="XMLID_390_">
		<g id="XMLID_391_">
			<path id="XMLID_347_" class="st1" d="M112,437.9h-3.7c-0.6,0-1,0.5-1,1s0.5,1,1,1h3.7c0.6,0,1-0.5,1-1S112.6,437.9,112,437.9z"/>
		</g>
	</g>
	<g id="XMLID_387_">
		<g id="XMLID_388_">
			<path id="XMLID_346_" class="st1" d="M144,437.9h-9.8l-1.5-3.3c-0.1-0.3-0.4-0.4-0.6-0.4c-0.3,0-0.5,0.2-0.6,0.5l-3.1,8.8
				l-3.8-10.5c-0.1-0.3-0.3-0.4-0.6-0.4c-0.3,0-0.5,0.1-0.6,0.4l-2.5,5.4h-8.4c-0.4,0-0.7,0.3-0.7,0.7c0,0.4,0.4,0.6,0.8,0.6h8.8
				c0.3,0,0.4-0.1,0.5-0.4l2-4.3l3.9,10.7c0.1,0.3,0.4,0.4,0.6,0.4c0,0,0,0,0,0c0.3,0,0.5-0.2,0.6-0.5l3.2-9l1,2.2
				c0.1,0.2,0.5,0.4,0.8,0.4h10.2c0.4,0,0.5-0.3,0.5-0.6S144.3,437.9,144,437.9z"/>
		</g>
	</g>
	<g id="XMLID_384_">
		<g id="XMLID_385_">
			<path id="XMLID_344_" class="st1" d="M147.4,437.5h-3.1c-0.6,0-1,0.5-1,1s0.5,1,1,1h3.1c0.6,0,1-0.5,1-1S147.9,437.5,147.4,437.5
				z"/>
		</g>
	</g>
</g>
<g id="XMLID_360_">
	<g id="XMLID_361_">
		<path id="XMLID_362_" class="st1" d="M719.9,177.4c0.6-0.6,0.8-1.5,0.4-2.2c-0.3-0.8-1.1-1.3-1.9-1.3c-3.9,0-5.5,0-11.1-3.8
			c-0.6-0.4-1.1-0.6-1.7-0.6c-2.1,0-2.6,2.1-2.9,3.3c-0.4,1.7-0.7,2.6-1.7,2.9l0-6.2c1.2-0.4,2-1.5,2-2.9c0-1.7-1.4-3.1-3-3.1
			c-1.7,0-3.1,1.4-3.1,3c0,1.3,0.8,2.4,2,2.9l0,6.2c-1-0.3-1.3-1.2-1.7-2.9c-0.3-1.2-0.7-3.3-2.9-3.3c-0.6,0-1.1,0.2-1.7,0.6
			c-5.6,3.7-7.2,3.7-11.1,3.7c-0.8,0-1.6,0.5-1.9,1.3c-0.3,0.8-0.1,1.6,0.4,2.2c4.5,4.5,10.8,4.7,18.7,4.7l0,7c-1.8-0.5-3.1-2-3-3.9
			c0-0.6-0.5-1-1-1s-1,0.5-1,1c0,2.2,1.2,4.1,2.9,5.2c-1.2,0.9-1.9,2.3-1.9,4c0,1.8,0.9,3.3,2.2,4.2c-0.8,0.7-1.2,1.8-1.2,2.9
			c0,0.6,0.5,1,1,1c0.6,0,1-0.5,1-1c0-0.7,0.4-1.4,1-1.7l0,3.8c0,0.6,0.5,1,1,1c0.6,0,1-0.5,1-1l0-3.8c0.6,0.4,1,1,1,1.7
			c0,0.6,0.5,1,1,1c0.6,0,1-0.5,1-1c0-1.1-0.5-2.2-1.2-2.9c1.4-0.9,2.3-2.5,2.3-4.2c0-1.6-0.8-3-1.9-4c1.8-1.1,3-3,3-5.2
			c0-0.6-0.5-1-1-1c-0.6,0-1,0.5-1,1c0,1.9-1.3,3.5-3.1,3.9l0-7C709.1,182.1,715.4,181.9,719.9,177.4z M699.1,197.1
			c-1.2-0.4-2-1.5-2-2.9c0-1.3,0.9-2.4,2-2.9L699.1,197.1z M699.1,180c-7.6,0-13.4-0.2-17.3-4.1c4.1,0,6.1,0,12.2-4
			c0.2-0.1,0.4-0.2,0.6-0.2c1.4,0,0.2,5.5,4.5,6.3L699.1,180z M705.7,171.7c0.2,0,0.3,0.1,0.6,0.2c6.1,4.1,8.1,4.1,12.2,4.1
			c-3.9,3.9-9.7,4-17.3,4l0-2.1C705.5,177.2,704.4,171.7,705.7,171.7z M703.2,194.3c0,1.3-0.9,2.4-2,2.9l0-5.7
			C702.3,191.8,703.2,193,703.2,194.3z M700.2,167.8c-0.6,0-1-0.5-1-1c0-0.6,0.5-1,1-1c0.6,0,1,0.5,1,1
			C701.2,167.3,700.7,167.8,700.2,167.8z"/>
	</g>
</g>
<g id="XMLID_374_">
	<path id="XMLID_375_" class="st1" d="M21.8,50.7c5.2-2.8,15.4-8.8,18.7-14.5c-0.6-0.5-7.1-1.6-7.1-1.6s6.6-2.1,9.3-2.9
		c4.4-2.1-0.4-23.2-0.4-23.2S26.5,24.7,23.4,32.8c-3,8-4.9,19.6-4.9,19.6l0,0c-4.2,8.6-7.3,15.4-7.3,15.4l4.4-4.4L21.8,50.7z
		 M41.1,12.6c0.3,1.8,0.7,4,1,6.3c1.1,8.6,0,10.6-0.3,10.9l-9.1,2.8c-0.9,0.3-1.5,1.1-1.4,2c0.1,0.9,0.7,1.7,1.6,1.8
		c1.4,0.2,2.9,0.5,4.2,0.8c-3.4,3.9-9.4,7.7-13.9,10.3l16.1-33C40,13.8,40.6,13.2,41.1,12.6z M25.3,33.5c1.6-4.3,7.4-11.4,12.1-16.7
		c-3.1,5.3-7.2,12.7-11,20c-1.5,2.9-3,5.8-4.4,8.8C22.7,41.8,23.9,37.2,25.3,33.5z M35.2,54.5c6-1.2,12.1-1.6,18.1-1.5
		c-3,0.4-6,0.7-9,1.2c-3,0.5-5.9,1.1-8.8,1.8c-2.5,0.6-5,1.4-7.4,2.3c0.5-0.1,1.1-0.1,1.7-0.2c1.5-0.2,3-0.4,4.6-0.5
		c0.8,0,1.5-0.1,2.4,0c0.2,0,0.4,0,0.7,0.1c0.1,0,0.3,0.1,0.5,0.2c0.2,0.1,0.4,0.2,0.7,0.6c0.2,0.4,0.1,0.9,0,1.1
		c-0.1,0.2-0.2,0.3-0.3,0.5l-0.2,0.2L38,60.3l-0.3,0.2c-1.4,1-2.9,1.5-4.3,2.1c-1.4,0.5-2.9,1-4.4,1.4c-5.9,1.7-11.8,2.8-17.8,3.8
		c2.9-0.9,5.8-1.7,8.7-2.6c2.9-0.9,5.8-1.7,8.6-2.7c1.4-0.5,2.8-1,4.2-1.5c1.1-0.4,2.2-0.9,3.1-1.5c-0.4,0-0.9,0-1.3,0.1
		c-1.5,0.1-3,0.3-4.5,0.5c-1.5,0.2-3,0.4-4.6,0.5c-0.4,0-0.8,0.1-1.4-0.1c-0.1,0-0.2,0-0.3-0.1c-0.1-0.1-0.4-0.2-0.6-0.7
		c-0.1-0.2-0.1-0.5,0-0.6c0-0.2,0.1-0.3,0.2-0.3c0.1-0.2,0.2-0.2,0.2-0.3c0.3-0.2,0.4-0.3,0.6-0.4c0.8-0.4,1.4-0.7,2.2-1
		C29.2,55.9,32.2,55.1,35.2,54.5z"/>
</g>
</svg>
