<?xml version="1.0" encoding="iso-8859-1"?>
<!-- Generator: Adobe Illustrator 19.0.0, SVG Export Plug-In . SVG Version: 6.00 Build 0)  -->
<svg version="1.1" id="Layer_1" xmlns="http://www.w3.org/2000/svg" xmlns:xlink="http://www.w3.org/1999/xlink" x="0px" y="0px"
	 viewBox="0 0 512 512" style="enable-background:new 0 0 512 512;" xml:space="preserve">
<polygon style="fill:#002833;" points="384.24,502.08 255.92,393.52 127.6,502.08 106.96,477.68 255.92,351.6 404.96,477.68 "/>
<rect x="21.36" y="30.72" style="fill:#EFEFEF;" width="469.36" height="341.84"/>
<g>
	<rect y="9.92" style="fill:#002833;" width="512" height="21.36"/>
	<rect y="372.56" style="fill:#002833;" width="512" height="21.36"/>
	<rect x="159.92" y="452.56" style="fill:#002833;" width="192" height="10.64"/>
</g>
<circle style="fill:#FF5F5F;" cx="255.92" cy="201.6" r="38.08"/>
<path style="fill:#8AD5DD;" d="M381.04,220.4v-37.52l-38.16-3.84c-2.16-8-5.52-15.6-9.76-22.48l24.64-30.08L331.2,99.92l-31.28,25.6
	c-6.56-3.44-13.6-6.08-20.96-7.76l-4.08-41.2H256h-0.16h-18.72l-4.08,41.2c-7.44,1.68-14.4,4.32-20.96,7.76l-31.28-25.6
	l-26.56,26.56l24.64,30.08c-4.24,6.88-7.6,14.48-9.76,22.48l-38.16,3.84v37.52l38.24,3.84c2.16,8,5.52,15.52,9.76,22.48
	l-24.64,30.08l26.56,26.56l31.28-25.6c6.56,3.44,13.6,6.08,20.96,7.76l4.08,41.2h18.72H256h18.72l4.08-41.2
	c7.44-1.68,14.4-4.32,20.96-7.76l31.28,25.6l26.56-26.56l-24.64-30.08c4.24-6.88,7.6-14.48,9.76-22.48L381.04,220.4z M255.92,258
	c-31.12,0-56.4-25.28-56.4-56.4s25.28-56.4,56.4-56.4s56.4,25.28,56.4,56.4C312.4,232.8,287.12,258,255.92,258z"/>
<g>
</g>
<g>
</g>
<g>
</g>
<g>
</g>
<g>
</g>
<g>
</g>
<g>
</g>
<g>
</g>
<g>
</g>
<g>
</g>
<g>
</g>
<g>
</g>
<g>
</g>
<g>
</g>
<g>
</g>
</svg>
